%TF.GenerationSoftware,KiCad,Pcbnew,9.0.1*%
%TF.CreationDate,2026-01-07T21:00:54-05:00*%
%TF.ProjectId,mouse-micro,6d6f7573-652d-46d6-9963-726f2e6b6963,rev?*%
%TF.SameCoordinates,Original*%
%TF.FileFunction,Soldermask,Bot*%
%TF.FilePolarity,Negative*%
%FSLAX46Y46*%
G04 Gerber Fmt 4.6, Leading zero omitted, Abs format (unit mm)*
G04 Created by KiCad (PCBNEW 9.0.1) date 2026-01-07 21:00:54*
%MOMM*%
%LPD*%
G01*
G04 APERTURE LIST*
G04 Aperture macros list*
%AMRoundRect*
0 Rectangle with rounded corners*
0 $1 Rounding radius*
0 $2 $3 $4 $5 $6 $7 $8 $9 X,Y pos of 4 corners*
0 Add a 4 corners polygon primitive as box body*
4,1,4,$2,$3,$4,$5,$6,$7,$8,$9,$2,$3,0*
0 Add four circle primitives for the rounded corners*
1,1,$1+$1,$2,$3*
1,1,$1+$1,$4,$5*
1,1,$1+$1,$6,$7*
1,1,$1+$1,$8,$9*
0 Add four rect primitives between the rounded corners*
20,1,$1+$1,$2,$3,$4,$5,0*
20,1,$1+$1,$4,$5,$6,$7,0*
20,1,$1+$1,$6,$7,$8,$9,0*
20,1,$1+$1,$8,$9,$2,$3,0*%
G04 Aperture macros list end*
%ADD10C,1.600000*%
%ADD11C,1.700000*%
%ADD12R,1.700000X1.700000*%
%ADD13R,1.600000X1.600000*%
%ADD14RoundRect,0.102000X-0.900000X-0.900000X0.900000X-0.900000X0.900000X0.900000X-0.900000X0.900000X0*%
%ADD15C,2.004000*%
%ADD16RoundRect,0.102000X-0.900000X0.900000X-0.900000X-0.900000X0.900000X-0.900000X0.900000X0.900000X0*%
%ADD17C,2.006600*%
%ADD18C,2.200000*%
G04 APERTURE END LIST*
D10*
%TO.C,C2*%
X127000000Y-71080000D03*
X127000000Y-68580000D03*
%TD*%
D11*
%TO.C,Sensor1*%
X146050000Y-119380000D03*
X146050000Y-116840000D03*
X146050000Y-114300000D03*
X146050000Y-111760000D03*
X146050000Y-109220000D03*
X146050000Y-106680000D03*
X146050000Y-104140000D03*
D12*
X146050000Y-101600000D03*
%TD*%
D10*
%TO.C,U1*%
X127000000Y-95706087D03*
X127000000Y-98246087D03*
X127000000Y-100786087D03*
X127000000Y-103326087D03*
X127000000Y-105866087D03*
X127000000Y-108406087D03*
X127000000Y-110946087D03*
X127000000Y-113486087D03*
X127000000Y-116026087D03*
X127000000Y-118566087D03*
X127000000Y-121106087D03*
X127000000Y-123646087D03*
X142240000Y-123646087D03*
X142240000Y-121106087D03*
X142240000Y-118566087D03*
X142240000Y-116026087D03*
X142240000Y-113486087D03*
X142240000Y-110946087D03*
X142240000Y-108406087D03*
X142240000Y-105866087D03*
X142240000Y-103326087D03*
X142240000Y-100786087D03*
X142240000Y-98246087D03*
D13*
X142240000Y-95706087D03*
%TD*%
D14*
%TO.C,SW6*%
X111760000Y-104140000D03*
D15*
X116840000Y-104140000D03*
X121920000Y-104140000D03*
%TD*%
D16*
%TO.C,SW3*%
X144780000Y-55880000D03*
D15*
X144780000Y-60960000D03*
X144780000Y-66040000D03*
%TD*%
D10*
%TO.C,R8*%
X138190000Y-83820000D03*
X145810000Y-83820000D03*
%TD*%
D16*
%TO.C,SW2*%
X116840000Y-50800000D03*
D15*
X116840000Y-55880000D03*
X116840000Y-60960000D03*
%TD*%
D10*
%TO.C,R3*%
X157480000Y-73660000D03*
X149860000Y-73660000D03*
%TD*%
%TO.C,R4*%
X145800000Y-78600000D03*
X138180000Y-78600000D03*
%TD*%
D14*
%TO.C,SW5*%
X111760000Y-81280000D03*
D15*
X116840000Y-81280000D03*
X121920000Y-81280000D03*
%TD*%
D14*
%TO.C,SW4*%
X132080000Y-73660000D03*
D15*
X137160000Y-73660000D03*
X142240000Y-73660000D03*
%TD*%
D17*
%TO.C,J1*%
X124460000Y-63460000D03*
X124460000Y-60960000D03*
X124460000Y-58460000D03*
%TD*%
D10*
%TO.C,R6*%
X119380000Y-111760000D03*
X111760000Y-111760000D03*
%TD*%
D16*
%TO.C,SW1*%
X154940000Y-50800000D03*
D15*
X154940000Y-55880000D03*
X154940000Y-60960000D03*
%TD*%
D18*
%TO.C,REF\u002A\u002A*%
X162560000Y-53340000D03*
%TD*%
%TO.C,REF\u002A\u002A*%
X114300000Y-121920000D03*
%TD*%
D10*
%TO.C,R5*%
X119380000Y-88900000D03*
X111760000Y-88900000D03*
%TD*%
%TO.C,R7*%
X138190000Y-88900000D03*
X145810000Y-88900000D03*
%TD*%
%TO.C,R2*%
X119380000Y-64770000D03*
X111760000Y-64770000D03*
%TD*%
%TO.C,C1*%
X121920000Y-68620000D03*
X121920000Y-71120000D03*
%TD*%
%TO.C,R1*%
X158750000Y-66040000D03*
X151130000Y-66040000D03*
%TD*%
M02*
