%TF.GenerationSoftware,KiCad,Pcbnew,9.0.1*%
%TF.CreationDate,2026-01-07T21:00:53-05:00*%
%TF.ProjectId,mouse-micro,6d6f7573-652d-46d6-9963-726f2e6b6963,rev?*%
%TF.SameCoordinates,Original*%
%TF.FileFunction,Copper,L2,Bot*%
%TF.FilePolarity,Positive*%
%FSLAX46Y46*%
G04 Gerber Fmt 4.6, Leading zero omitted, Abs format (unit mm)*
G04 Created by KiCad (PCBNEW 9.0.1) date 2026-01-07 21:00:53*
%MOMM*%
%LPD*%
G01*
G04 APERTURE LIST*
%TA.AperFunction,ComponentPad*%
%ADD10C,1.600000*%
%TD*%
%TA.AperFunction,ComponentPad*%
%ADD11C,1.700000*%
%TD*%
%TA.AperFunction,ComponentPad*%
%ADD12R,1.700000X1.700000*%
%TD*%
%TA.AperFunction,ComponentPad*%
%ADD13R,1.600000X1.600000*%
%TD*%
%TA.AperFunction,ComponentPad*%
%ADD14R,1.800000X1.800000*%
%TD*%
%TA.AperFunction,ComponentPad*%
%ADD15C,1.800000*%
%TD*%
%TA.AperFunction,ComponentPad*%
%ADD16C,2.006600*%
%TD*%
%TA.AperFunction,ViaPad*%
%ADD17C,0.800000*%
%TD*%
%TA.AperFunction,Conductor*%
%ADD18C,0.300000*%
%TD*%
G04 APERTURE END LIST*
D10*
%TO.P,C2,1*%
%TO.N,GND*%
X127000000Y-71080000D03*
%TO.P,C2,2*%
%TO.N,Net-(U1-F4)*%
X127000000Y-68580000D03*
%TD*%
D11*
%TO.P,Sensor1,8,RST*%
%TO.N,unconnected-(Sensor1-RST-Pad8)*%
X146050000Y-119380000D03*
%TO.P,Sensor1,7,GND*%
%TO.N,GND*%
X146050000Y-116840000D03*
%TO.P,Sensor1,6,MT*%
%TO.N,unconnected-(Sensor1-MT-Pad6)*%
X146050000Y-114300000D03*
%TO.P,Sensor1,5,SS*%
%TO.N,/SS*%
X146050000Y-111760000D03*
%TO.P,Sensor1,4,SCK*%
%TO.N,/SCK*%
X146050000Y-109220000D03*
%TO.P,Sensor1,3,MOSI*%
%TO.N,/MOSI*%
X146050000Y-106680000D03*
%TO.P,Sensor1,2,MISO*%
%TO.N,/MISO*%
X146050000Y-104140000D03*
D12*
%TO.P,Sensor1,1,VIN*%
%TO.N,/5V Power*%
X146050000Y-101600000D03*
%TD*%
D10*
%TO.P,U1,24,RAW*%
%TO.N,unconnected-(U1-RAW-Pad24)*%
X127000000Y-95706087D03*
%TO.P,U1,23,GND*%
%TO.N,GND*%
X127000000Y-98246087D03*
%TO.P,U1,22,RST*%
%TO.N,unconnected-(U1-RST-Pad22)*%
X127000000Y-100786087D03*
%TO.P,U1,21,VCC*%
%TO.N,/5V Power*%
X127000000Y-103326087D03*
%TO.P,U1,20,F4*%
%TO.N,Net-(U1-F4)*%
X127000000Y-105866087D03*
%TO.P,U1,19,F5*%
%TO.N,Net-(U1-F5)*%
X127000000Y-108406087D03*
%TO.P,U1,18,F6*%
%TO.N,unconnected-(U1-F6-Pad18)*%
X127000000Y-110946087D03*
%TO.P,U1,17,F7*%
%TO.N,unconnected-(U1-F7-Pad17)*%
X127000000Y-113486087D03*
%TO.P,U1,16,B1*%
%TO.N,/SCK*%
X127000000Y-116026087D03*
%TO.P,U1,15,B3*%
%TO.N,/MISO*%
X127000000Y-118566087D03*
%TO.P,U1,14,B2*%
%TO.N,/MOSI*%
X127000000Y-121106087D03*
%TO.P,U1,13,B6*%
%TO.N,/SS*%
X127000000Y-123646087D03*
%TO.P,U1,12,B5*%
%TO.N,/IO 6*%
X142240000Y-123646087D03*
%TO.P,U1,11,B4*%
%TO.N,/IO 5*%
X142240000Y-121106087D03*
%TO.P,U1,10,E6*%
%TO.N,/IO 4*%
X142240000Y-118566087D03*
%TO.P,U1,9,D7*%
%TO.N,/IO 3*%
X142240000Y-116026087D03*
%TO.P,U1,8,C6*%
%TO.N,/IO 2*%
X142240000Y-113486087D03*
%TO.P,U1,7,D4*%
%TO.N,/IO 1*%
X142240000Y-110946087D03*
%TO.P,U1,6,SCL*%
%TO.N,unconnected-(U1-SCL-Pad6)*%
X142240000Y-108406087D03*
%TO.P,U1,5,SDA*%
%TO.N,unconnected-(U1-SDA-Pad5)*%
X142240000Y-105866087D03*
%TO.P,U1,4,GND*%
%TO.N,GND*%
X142240000Y-103326087D03*
%TO.P,U1,3,GND*%
X142240000Y-100786087D03*
%TO.P,U1,2,RX*%
%TO.N,unconnected-(U1-RX-Pad2)*%
X142240000Y-98246087D03*
D13*
%TO.P,U1,1,TX*%
%TO.N,unconnected-(U1-TX-Pad1)*%
X142240000Y-95706087D03*
%TD*%
D14*
%TO.P,SW6,1,1*%
%TO.N,/IO 6*%
X111760000Y-104140000D03*
D15*
%TO.P,SW6,2,2*%
%TO.N,GND*%
X116840000Y-104140000D03*
%TO.P,SW6,3*%
%TO.N,N/C*%
X121920000Y-104140000D03*
%TD*%
D14*
%TO.P,SW3,1,1*%
%TO.N,/IO 3*%
X144780000Y-55880000D03*
D15*
%TO.P,SW3,2,2*%
%TO.N,GND*%
X144780000Y-60960000D03*
%TO.P,SW3,3*%
%TO.N,N/C*%
X144780000Y-66040000D03*
%TD*%
D10*
%TO.P,R8,1*%
%TO.N,Net-(U1-F4)*%
X138190000Y-83820000D03*
%TO.P,R8,2*%
%TO.N,/5V Power*%
X145810000Y-83820000D03*
%TD*%
D14*
%TO.P,SW2,1,1*%
%TO.N,/IO 2*%
X116840000Y-50800000D03*
D15*
%TO.P,SW2,2,2*%
%TO.N,GND*%
X116840000Y-55880000D03*
%TO.P,SW2,3*%
%TO.N,N/C*%
X116840000Y-60960000D03*
%TD*%
D10*
%TO.P,R3,1*%
%TO.N,/5V Power*%
X157480000Y-73660000D03*
%TO.P,R3,2*%
%TO.N,/IO 3*%
X149860000Y-73660000D03*
%TD*%
%TO.P,R4,1*%
%TO.N,/5V Power*%
X145800000Y-78600000D03*
%TO.P,R4,2*%
%TO.N,/IO 4*%
X138180000Y-78600000D03*
%TD*%
D14*
%TO.P,SW5,1,1*%
%TO.N,/IO 5*%
X111760000Y-81280000D03*
D15*
%TO.P,SW5,2,2*%
%TO.N,GND*%
X116840000Y-81280000D03*
%TO.P,SW5,3*%
%TO.N,N/C*%
X121920000Y-81280000D03*
%TD*%
D14*
%TO.P,SW4,1,1*%
%TO.N,/IO 4*%
X132080000Y-73660000D03*
D15*
%TO.P,SW4,2,2*%
%TO.N,GND*%
X137160000Y-73660000D03*
%TO.P,SW4,3*%
%TO.N,N/C*%
X142240000Y-73660000D03*
%TD*%
D16*
%TO.P,J1,1,1*%
%TO.N,Net-(U1-F4)*%
X124460000Y-63460000D03*
%TO.P,J1,2,2*%
%TO.N,GND*%
X124460000Y-60960000D03*
%TO.P,J1,3,3*%
%TO.N,Net-(U1-F5)*%
X124460000Y-58460000D03*
%TD*%
D10*
%TO.P,R6,1*%
%TO.N,/5V Power*%
X119380000Y-111760000D03*
%TO.P,R6,2*%
%TO.N,/IO 6*%
X111760000Y-111760000D03*
%TD*%
D14*
%TO.P,SW1,1,1*%
%TO.N,/IO 1*%
X154940000Y-50800000D03*
D15*
%TO.P,SW1,2,2*%
%TO.N,GND*%
X154940000Y-55880000D03*
%TO.P,SW1,3*%
%TO.N,N/C*%
X154940000Y-60960000D03*
%TD*%
D10*
%TO.P,R5,1*%
%TO.N,/5V Power*%
X119380000Y-88900000D03*
%TO.P,R5,2*%
%TO.N,/IO 5*%
X111760000Y-88900000D03*
%TD*%
%TO.P,R7,1*%
%TO.N,Net-(U1-F5)*%
X138190000Y-88900000D03*
%TO.P,R7,2*%
%TO.N,/5V Power*%
X145810000Y-88900000D03*
%TD*%
%TO.P,R2,1*%
%TO.N,/5V Power*%
X119380000Y-64770000D03*
%TO.P,R2,2*%
%TO.N,/IO 2*%
X111760000Y-64770000D03*
%TD*%
%TO.P,C1,1*%
%TO.N,Net-(U1-F5)*%
X121920000Y-68620000D03*
%TO.P,C1,2*%
%TO.N,GND*%
X121920000Y-71120000D03*
%TD*%
%TO.P,R1,1*%
%TO.N,/5V Power*%
X158750000Y-66040000D03*
%TO.P,R1,2*%
%TO.N,/IO 1*%
X151130000Y-66040000D03*
%TD*%
D17*
%TO.N,/IO 1*%
X151130000Y-105410000D03*
%TD*%
D18*
%TO.N,/IO 1*%
X148659000Y-107881000D02*
X151130000Y-105410000D01*
X145690529Y-107881000D02*
X148659000Y-107881000D01*
X142625442Y-110946087D02*
X145690529Y-107881000D01*
X142240000Y-110946087D02*
X142625442Y-110946087D01*
%TO.N,Net-(U1-F4)*%
X128151000Y-93859000D02*
X138190000Y-83820000D01*
X128151000Y-104715087D02*
X128151000Y-93859000D01*
X127000000Y-105866087D02*
X128151000Y-104715087D01*
%TO.N,Net-(U1-F5)*%
X127000000Y-108406087D02*
X138190000Y-97216087D01*
X138190000Y-97216087D02*
X138190000Y-88900000D01*
%TO.N,/5V Power*%
X119380000Y-110946087D02*
X119380000Y-111760000D01*
%TO.N,/SCK*%
X137481367Y-112252480D02*
X143017520Y-112252480D01*
X127476760Y-122257087D02*
X137481367Y-112252480D01*
X143017520Y-112252480D02*
X146050000Y-109220000D01*
X125849000Y-117177087D02*
X125849000Y-121582847D01*
X125849000Y-121582847D02*
X126523240Y-122257087D01*
X126523240Y-122257087D02*
X127476760Y-122257087D01*
X127000000Y-116026087D02*
X125849000Y-117177087D01*
%TO.N,/MISO*%
X138549000Y-107017087D02*
X143172913Y-107017087D01*
X127000000Y-118566087D02*
X138549000Y-107017087D01*
X143172913Y-107017087D02*
X146050000Y-104140000D01*
%TO.N,/SS*%
X143012529Y-114797471D02*
X146050000Y-111760000D01*
X135848616Y-114797471D02*
X143012529Y-114797471D01*
X127000000Y-123646087D02*
X135848616Y-114797471D01*
%TO.N,/MOSI*%
X138388616Y-109717471D02*
X143012529Y-109717471D01*
X143012529Y-109717471D02*
X146050000Y-106680000D01*
X127000000Y-121106087D02*
X138388616Y-109717471D01*
%TO.N,/5V Power*%
X145810000Y-100090000D02*
X145810000Y-88900000D01*
X146050000Y-100330000D02*
X145810000Y-100090000D01*
X146050000Y-101600000D02*
X146050000Y-100330000D01*
X145800000Y-83810000D02*
X145810000Y-83820000D01*
%TO.N,GND*%
X142872029Y-103326087D02*
X142240000Y-103326087D01*
%TO.N,/5V Power*%
X132714240Y-78740000D02*
X123071000Y-69096760D01*
X142400000Y-75200000D02*
X145800000Y-78600000D01*
X145800000Y-78600000D02*
X146000000Y-78800000D01*
X158750000Y-69850000D02*
X158750000Y-66040000D01*
X157480000Y-71120000D02*
X158750000Y-69850000D01*
X136254240Y-75200000D02*
X142400000Y-75200000D01*
X119380000Y-88900000D02*
X122554240Y-88900000D01*
X119380000Y-111760000D02*
X119380000Y-88900000D01*
X119697760Y-64770000D02*
X119380000Y-64770000D01*
X122554240Y-88900000D02*
X132714240Y-78740000D01*
X157480000Y-73660000D02*
X157480000Y-71120000D01*
X132714240Y-78740000D02*
X136254240Y-75200000D01*
X152340000Y-78800000D02*
X157480000Y-73660000D01*
X123071000Y-69096760D02*
X123071000Y-68143240D01*
X145810000Y-83820000D02*
X145810000Y-88900000D01*
X123071000Y-68143240D02*
X119697760Y-64770000D01*
X145800000Y-78600000D02*
X145800000Y-83810000D01*
X146000000Y-78800000D02*
X152340000Y-78800000D01*
%TD*%
%TA.AperFunction,Conductor*%
%TO.N,GND*%
G36*
X129482539Y-48280185D02*
G01*
X129528294Y-48332989D01*
X129539500Y-48384500D01*
X129539500Y-68580207D01*
X129539793Y-68580500D01*
X140970207Y-68580500D01*
X140970500Y-68580207D01*
X140970500Y-65929778D01*
X143379500Y-65929778D01*
X143379500Y-66150221D01*
X143413985Y-66367952D01*
X143482103Y-66577603D01*
X143482104Y-66577606D01*
X143550122Y-66711096D01*
X143555479Y-66721610D01*
X143582187Y-66774025D01*
X143711752Y-66952358D01*
X143711756Y-66952363D01*
X143867636Y-67108243D01*
X143867641Y-67108247D01*
X144023192Y-67221260D01*
X144045978Y-67237815D01*
X144174375Y-67303237D01*
X144242393Y-67337895D01*
X144242396Y-67337896D01*
X144347221Y-67371955D01*
X144452049Y-67406015D01*
X144669778Y-67440500D01*
X144669779Y-67440500D01*
X144890221Y-67440500D01*
X144890222Y-67440500D01*
X145107951Y-67406015D01*
X145317606Y-67337895D01*
X145514022Y-67237815D01*
X145692365Y-67108242D01*
X145848242Y-66952365D01*
X145977815Y-66774022D01*
X146077895Y-66577606D01*
X146146015Y-66367951D01*
X146180500Y-66150222D01*
X146180500Y-65937648D01*
X149829500Y-65937648D01*
X149829500Y-66142351D01*
X149861522Y-66344534D01*
X149924781Y-66539223D01*
X150017715Y-66721613D01*
X150138028Y-66887213D01*
X150282786Y-67031971D01*
X150428383Y-67137751D01*
X150448390Y-67152287D01*
X150528453Y-67193081D01*
X150630776Y-67245218D01*
X150630778Y-67245218D01*
X150630781Y-67245220D01*
X150735137Y-67279127D01*
X150825465Y-67308477D01*
X150844697Y-67311523D01*
X151027648Y-67340500D01*
X151027649Y-67340500D01*
X151232351Y-67340500D01*
X151232352Y-67340500D01*
X151434534Y-67308477D01*
X151629219Y-67245220D01*
X151811610Y-67152287D01*
X151904590Y-67084732D01*
X151977213Y-67031971D01*
X151977215Y-67031968D01*
X151977219Y-67031966D01*
X152121966Y-66887219D01*
X152121968Y-66887215D01*
X152121971Y-66887213D01*
X152174732Y-66814590D01*
X152242287Y-66721610D01*
X152335220Y-66539219D01*
X152398477Y-66344534D01*
X152430500Y-66142352D01*
X152430500Y-65937648D01*
X152398477Y-65735465D01*
X152335218Y-65540776D01*
X152301503Y-65474607D01*
X152242287Y-65358390D01*
X152204205Y-65305974D01*
X152121971Y-65192786D01*
X151977213Y-65048028D01*
X151811613Y-64927715D01*
X151811612Y-64927714D01*
X151811610Y-64927713D01*
X151754653Y-64898691D01*
X151629223Y-64834781D01*
X151434534Y-64771522D01*
X151248799Y-64742105D01*
X151232352Y-64739500D01*
X151027648Y-64739500D01*
X151011201Y-64742105D01*
X150825465Y-64771522D01*
X150630776Y-64834781D01*
X150448386Y-64927715D01*
X150282786Y-65048028D01*
X150138028Y-65192786D01*
X150017715Y-65358386D01*
X149924781Y-65540776D01*
X149861522Y-65735465D01*
X149829500Y-65937648D01*
X146180500Y-65937648D01*
X146180500Y-65929778D01*
X146146015Y-65712049D01*
X146077895Y-65502394D01*
X146077895Y-65502393D01*
X146043237Y-65434375D01*
X145977815Y-65305978D01*
X145895573Y-65192781D01*
X145848247Y-65127641D01*
X145848243Y-65127636D01*
X145692363Y-64971756D01*
X145692358Y-64971752D01*
X145514025Y-64842187D01*
X145514024Y-64842186D01*
X145514022Y-64842185D01*
X145446517Y-64807789D01*
X145317606Y-64742104D01*
X145317603Y-64742103D01*
X145107952Y-64673985D01*
X144999086Y-64656742D01*
X144890222Y-64639500D01*
X144669778Y-64639500D01*
X144597201Y-64650995D01*
X144452047Y-64673985D01*
X144242396Y-64742103D01*
X144242393Y-64742104D01*
X144045974Y-64842187D01*
X143867641Y-64971752D01*
X143867636Y-64971756D01*
X143711756Y-65127636D01*
X143711752Y-65127641D01*
X143582187Y-65305974D01*
X143482104Y-65502393D01*
X143482103Y-65502396D01*
X143413985Y-65712047D01*
X143379500Y-65929778D01*
X140970500Y-65929778D01*
X140970500Y-60849818D01*
X143380000Y-60849818D01*
X143380000Y-61070181D01*
X143414473Y-61287835D01*
X143482567Y-61497410D01*
X143582611Y-61693756D01*
X143628932Y-61757513D01*
X144215387Y-61171058D01*
X144220889Y-61191591D01*
X144299881Y-61328408D01*
X144411592Y-61440119D01*
X144548409Y-61519111D01*
X144568939Y-61524612D01*
X143982485Y-62111065D01*
X143982485Y-62111066D01*
X144046243Y-62157388D01*
X144242589Y-62257432D01*
X144452164Y-62325526D01*
X144669819Y-62360000D01*
X144890181Y-62360000D01*
X145107835Y-62325526D01*
X145317410Y-62257432D01*
X145513760Y-62157386D01*
X145577513Y-62111066D01*
X145577514Y-62111066D01*
X144991059Y-61524612D01*
X145011591Y-61519111D01*
X145148408Y-61440119D01*
X145260119Y-61328408D01*
X145339111Y-61191591D01*
X145344612Y-61171060D01*
X145931066Y-61757514D01*
X145931066Y-61757513D01*
X145977386Y-61693760D01*
X146077432Y-61497410D01*
X146145526Y-61287835D01*
X146180000Y-61070181D01*
X146180000Y-60849818D01*
X146179994Y-60849778D01*
X153539500Y-60849778D01*
X153539500Y-61070221D01*
X153573985Y-61287952D01*
X153642103Y-61497603D01*
X153642104Y-61497606D01*
X153706517Y-61624021D01*
X153742049Y-61693756D01*
X153742187Y-61694025D01*
X153871752Y-61872358D01*
X153871756Y-61872363D01*
X154027636Y-62028243D01*
X154027641Y-62028247D01*
X154141632Y-62111065D01*
X154205978Y-62157815D01*
X154322487Y-62217180D01*
X154402393Y-62257895D01*
X154402396Y-62257896D01*
X154507221Y-62291955D01*
X154612049Y-62326015D01*
X154829778Y-62360500D01*
X154829779Y-62360500D01*
X155050221Y-62360500D01*
X155050222Y-62360500D01*
X155267951Y-62326015D01*
X155477606Y-62257895D01*
X155674022Y-62157815D01*
X155852365Y-62028242D01*
X156008242Y-61872365D01*
X156137815Y-61694022D01*
X156237895Y-61497606D01*
X156306015Y-61287951D01*
X156340500Y-61070222D01*
X156340500Y-60849778D01*
X156306015Y-60632049D01*
X156257375Y-60482349D01*
X156237896Y-60422396D01*
X156237895Y-60422393D01*
X156203237Y-60354375D01*
X156137815Y-60225978D01*
X156121260Y-60203192D01*
X156008247Y-60047641D01*
X156008243Y-60047636D01*
X155852363Y-59891756D01*
X155852358Y-59891752D01*
X155674025Y-59762187D01*
X155674024Y-59762186D01*
X155674022Y-59762185D01*
X155604438Y-59726730D01*
X155477606Y-59662104D01*
X155477603Y-59662103D01*
X155267952Y-59593985D01*
X155159086Y-59576742D01*
X155050222Y-59559500D01*
X154829778Y-59559500D01*
X154757201Y-59570995D01*
X154612047Y-59593985D01*
X154402396Y-59662103D01*
X154402393Y-59662104D01*
X154205974Y-59762187D01*
X154027641Y-59891752D01*
X154027636Y-59891756D01*
X153871756Y-60047636D01*
X153871752Y-60047641D01*
X153742187Y-60225974D01*
X153642104Y-60422393D01*
X153642103Y-60422396D01*
X153573985Y-60632047D01*
X153539500Y-60849778D01*
X146179994Y-60849778D01*
X146145526Y-60632164D01*
X146077432Y-60422589D01*
X145977388Y-60226243D01*
X145931066Y-60162485D01*
X145931065Y-60162485D01*
X145344612Y-60748939D01*
X145339111Y-60728409D01*
X145260119Y-60591592D01*
X145148408Y-60479881D01*
X145011591Y-60400889D01*
X144991057Y-60395387D01*
X145577513Y-59808932D01*
X145513756Y-59762611D01*
X145317410Y-59662567D01*
X145107835Y-59594473D01*
X144890181Y-59560000D01*
X144669819Y-59560000D01*
X144452164Y-59594473D01*
X144242589Y-59662567D01*
X144046233Y-59762616D01*
X143982485Y-59808931D01*
X143982485Y-59808932D01*
X144568940Y-60395387D01*
X144548409Y-60400889D01*
X144411592Y-60479881D01*
X144299881Y-60591592D01*
X144220889Y-60728409D01*
X144215387Y-60748940D01*
X143628932Y-60162485D01*
X143628931Y-60162485D01*
X143582616Y-60226233D01*
X143482567Y-60422589D01*
X143414473Y-60632164D01*
X143380000Y-60849818D01*
X140970500Y-60849818D01*
X140970500Y-54932135D01*
X143379500Y-54932135D01*
X143379500Y-56827870D01*
X143379501Y-56827876D01*
X143385908Y-56887483D01*
X143436202Y-57022328D01*
X143436206Y-57022335D01*
X143522452Y-57137544D01*
X143522455Y-57137547D01*
X143637664Y-57223793D01*
X143637671Y-57223797D01*
X143772517Y-57274091D01*
X143772516Y-57274091D01*
X143779444Y-57274835D01*
X143832127Y-57280500D01*
X145727872Y-57280499D01*
X145787483Y-57274091D01*
X145922331Y-57223796D01*
X146037546Y-57137546D01*
X146123796Y-57022331D01*
X146174091Y-56887483D01*
X146180500Y-56827873D01*
X146180499Y-55769818D01*
X153540000Y-55769818D01*
X153540000Y-55990181D01*
X153574473Y-56207835D01*
X153642567Y-56417410D01*
X153742611Y-56613756D01*
X153788932Y-56677513D01*
X154375387Y-56091058D01*
X154380889Y-56111591D01*
X154459881Y-56248408D01*
X154571592Y-56360119D01*
X154708409Y-56439111D01*
X154728939Y-56444612D01*
X154142485Y-57031065D01*
X154142485Y-57031066D01*
X154206243Y-57077388D01*
X154402589Y-57177432D01*
X154612164Y-57245526D01*
X154829819Y-57280000D01*
X155050181Y-57280000D01*
X155267835Y-57245526D01*
X155477410Y-57177432D01*
X155673760Y-57077386D01*
X155737513Y-57031066D01*
X155737514Y-57031066D01*
X155151059Y-56444612D01*
X155171591Y-56439111D01*
X155308408Y-56360119D01*
X155420119Y-56248408D01*
X155499111Y-56111591D01*
X155504612Y-56091059D01*
X156091066Y-56677514D01*
X156091066Y-56677513D01*
X156137386Y-56613760D01*
X156237432Y-56417410D01*
X156305526Y-56207835D01*
X156340000Y-55990181D01*
X156340000Y-55769818D01*
X156305526Y-55552164D01*
X156237432Y-55342589D01*
X156137388Y-55146243D01*
X156091066Y-55082485D01*
X156091065Y-55082485D01*
X155504612Y-55668939D01*
X155499111Y-55648409D01*
X155420119Y-55511592D01*
X155308408Y-55399881D01*
X155171591Y-55320889D01*
X155151057Y-55315387D01*
X155737513Y-54728932D01*
X155673756Y-54682611D01*
X155477410Y-54582567D01*
X155267835Y-54514473D01*
X155050181Y-54480000D01*
X154829819Y-54480000D01*
X154612164Y-54514473D01*
X154402589Y-54582567D01*
X154206233Y-54682616D01*
X154142485Y-54728931D01*
X154142485Y-54728932D01*
X154728940Y-55315387D01*
X154708409Y-55320889D01*
X154571592Y-55399881D01*
X154459881Y-55511592D01*
X154380889Y-55648409D01*
X154375387Y-55668940D01*
X153788932Y-55082485D01*
X153788931Y-55082485D01*
X153742616Y-55146233D01*
X153642567Y-55342589D01*
X153574473Y-55552164D01*
X153540000Y-55769818D01*
X146180499Y-55769818D01*
X146180499Y-54932128D01*
X146174091Y-54872517D01*
X146123796Y-54737669D01*
X146123795Y-54737668D01*
X146123793Y-54737664D01*
X146037547Y-54622455D01*
X146037544Y-54622452D01*
X145922335Y-54536206D01*
X145922328Y-54536202D01*
X145787482Y-54485908D01*
X145787483Y-54485908D01*
X145727883Y-54479501D01*
X145727881Y-54479500D01*
X145727873Y-54479500D01*
X145727864Y-54479500D01*
X143832129Y-54479500D01*
X143832123Y-54479501D01*
X143772516Y-54485908D01*
X143637671Y-54536202D01*
X143637664Y-54536206D01*
X143522455Y-54622452D01*
X143522452Y-54622455D01*
X143436206Y-54737664D01*
X143436202Y-54737671D01*
X143385908Y-54872517D01*
X143379501Y-54932116D01*
X143379501Y-54932123D01*
X143379500Y-54932135D01*
X140970500Y-54932135D01*
X140970500Y-53233713D01*
X161209500Y-53233713D01*
X161209500Y-53446286D01*
X161242753Y-53656239D01*
X161308444Y-53858414D01*
X161404951Y-54047820D01*
X161529890Y-54219786D01*
X161680213Y-54370109D01*
X161852179Y-54495048D01*
X161852181Y-54495049D01*
X161852184Y-54495051D01*
X162041588Y-54591557D01*
X162243757Y-54657246D01*
X162453713Y-54690500D01*
X162453714Y-54690500D01*
X162666286Y-54690500D01*
X162666287Y-54690500D01*
X162876243Y-54657246D01*
X163078412Y-54591557D01*
X163267816Y-54495051D01*
X163289789Y-54479086D01*
X163439786Y-54370109D01*
X163439788Y-54370106D01*
X163439792Y-54370104D01*
X163590104Y-54219792D01*
X163590106Y-54219788D01*
X163590109Y-54219786D01*
X163715048Y-54047820D01*
X163715047Y-54047820D01*
X163715051Y-54047816D01*
X163811557Y-53858412D01*
X163877246Y-53656243D01*
X163910500Y-53446287D01*
X163910500Y-53233713D01*
X163877246Y-53023757D01*
X163811557Y-52821588D01*
X163715051Y-52632184D01*
X163715049Y-52632181D01*
X163715048Y-52632179D01*
X163590109Y-52460213D01*
X163439786Y-52309890D01*
X163267820Y-52184951D01*
X163078414Y-52088444D01*
X163078413Y-52088443D01*
X163078412Y-52088443D01*
X162876243Y-52022754D01*
X162876241Y-52022753D01*
X162876240Y-52022753D01*
X162714957Y-51997208D01*
X162666287Y-51989500D01*
X162453713Y-51989500D01*
X162405042Y-51997208D01*
X162243760Y-52022753D01*
X162041585Y-52088444D01*
X161852179Y-52184951D01*
X161680213Y-52309890D01*
X161529890Y-52460213D01*
X161404951Y-52632179D01*
X161308444Y-52821585D01*
X161242753Y-53023760D01*
X161209500Y-53233713D01*
X140970500Y-53233713D01*
X140970500Y-49852135D01*
X153539500Y-49852135D01*
X153539500Y-51747870D01*
X153539501Y-51747876D01*
X153545908Y-51807483D01*
X153596202Y-51942328D01*
X153596206Y-51942335D01*
X153682452Y-52057544D01*
X153682455Y-52057547D01*
X153797664Y-52143793D01*
X153797671Y-52143797D01*
X153932517Y-52194091D01*
X153932516Y-52194091D01*
X153939444Y-52194835D01*
X153992127Y-52200500D01*
X155887872Y-52200499D01*
X155947483Y-52194091D01*
X156082331Y-52143796D01*
X156197546Y-52057546D01*
X156283796Y-51942331D01*
X156334091Y-51807483D01*
X156340500Y-51747873D01*
X156340499Y-49852128D01*
X156334091Y-49792517D01*
X156283796Y-49657669D01*
X156283795Y-49657668D01*
X156283793Y-49657664D01*
X156197547Y-49542455D01*
X156197544Y-49542452D01*
X156082335Y-49456206D01*
X156082328Y-49456202D01*
X155947482Y-49405908D01*
X155947483Y-49405908D01*
X155887883Y-49399501D01*
X155887881Y-49399500D01*
X155887873Y-49399500D01*
X155887864Y-49399500D01*
X153992129Y-49399500D01*
X153992123Y-49399501D01*
X153932516Y-49405908D01*
X153797671Y-49456202D01*
X153797664Y-49456206D01*
X153682455Y-49542452D01*
X153682452Y-49542455D01*
X153596206Y-49657664D01*
X153596202Y-49657671D01*
X153545908Y-49792517D01*
X153539501Y-49852116D01*
X153539501Y-49852123D01*
X153539500Y-49852135D01*
X140970500Y-49852135D01*
X140970500Y-48384500D01*
X140990185Y-48317461D01*
X141042989Y-48271706D01*
X141094500Y-48260500D01*
X166245500Y-48260500D01*
X166312539Y-48280185D01*
X166358294Y-48332989D01*
X166369500Y-48384500D01*
X166369500Y-126875500D01*
X166349815Y-126942539D01*
X166297011Y-126988294D01*
X166245500Y-126999500D01*
X109344500Y-126999500D01*
X109277461Y-126979815D01*
X109231706Y-126927011D01*
X109220500Y-126875500D01*
X109220500Y-121813713D01*
X112949500Y-121813713D01*
X112949500Y-122026286D01*
X112979923Y-122218374D01*
X112982754Y-122236243D01*
X113028192Y-122376087D01*
X113048444Y-122438414D01*
X113144951Y-122627820D01*
X113269890Y-122799786D01*
X113420213Y-122950109D01*
X113592179Y-123075048D01*
X113592181Y-123075049D01*
X113592184Y-123075051D01*
X113781588Y-123171557D01*
X113983757Y-123237246D01*
X114193713Y-123270500D01*
X114193714Y-123270500D01*
X114406286Y-123270500D01*
X114406287Y-123270500D01*
X114616243Y-123237246D01*
X114818412Y-123171557D01*
X115007816Y-123075051D01*
X115029789Y-123059086D01*
X115179786Y-122950109D01*
X115179788Y-122950106D01*
X115179792Y-122950104D01*
X115330104Y-122799792D01*
X115330106Y-122799788D01*
X115330109Y-122799786D01*
X115455048Y-122627820D01*
X115455047Y-122627820D01*
X115455051Y-122627816D01*
X115551557Y-122438412D01*
X115617246Y-122236243D01*
X115650500Y-122026287D01*
X115650500Y-121813713D01*
X115617246Y-121603757D01*
X115551557Y-121401588D01*
X115455051Y-121212184D01*
X115455049Y-121212181D01*
X115455048Y-121212179D01*
X115330109Y-121040213D01*
X115179786Y-120889890D01*
X115007820Y-120764951D01*
X114818414Y-120668444D01*
X114818413Y-120668443D01*
X114818412Y-120668443D01*
X114616243Y-120602754D01*
X114616241Y-120602753D01*
X114616240Y-120602753D01*
X114454957Y-120577208D01*
X114406287Y-120569500D01*
X114193713Y-120569500D01*
X114145042Y-120577208D01*
X113983760Y-120602753D01*
X113781585Y-120668444D01*
X113592179Y-120764951D01*
X113420213Y-120889890D01*
X113269890Y-121040213D01*
X113144951Y-121212179D01*
X113048444Y-121401585D01*
X112982753Y-121603760D01*
X112949500Y-121813713D01*
X109220500Y-121813713D01*
X109220500Y-111657648D01*
X110459500Y-111657648D01*
X110459500Y-111862351D01*
X110491522Y-112064534D01*
X110554781Y-112259223D01*
X110647715Y-112441613D01*
X110768028Y-112607213D01*
X110912786Y-112751971D01*
X111067749Y-112864556D01*
X111078390Y-112872287D01*
X111194607Y-112931503D01*
X111260776Y-112965218D01*
X111260778Y-112965218D01*
X111260781Y-112965220D01*
X111327407Y-112986868D01*
X111455465Y-113028477D01*
X111556557Y-113044488D01*
X111657648Y-113060500D01*
X111657649Y-113060500D01*
X111862351Y-113060500D01*
X111862352Y-113060500D01*
X112064534Y-113028477D01*
X112259219Y-112965220D01*
X112441610Y-112872287D01*
X112577946Y-112773234D01*
X112607213Y-112751971D01*
X112607215Y-112751968D01*
X112607219Y-112751966D01*
X112751966Y-112607219D01*
X112751968Y-112607215D01*
X112751971Y-112607213D01*
X112804732Y-112534590D01*
X112872287Y-112441610D01*
X112965220Y-112259219D01*
X113028477Y-112064534D01*
X113060500Y-111862352D01*
X113060500Y-111657648D01*
X113028477Y-111455466D01*
X113024673Y-111443760D01*
X112965218Y-111260776D01*
X112931503Y-111194607D01*
X112872287Y-111078390D01*
X112864556Y-111067749D01*
X112751971Y-110912786D01*
X112607213Y-110768028D01*
X112441613Y-110647715D01*
X112441612Y-110647714D01*
X112441610Y-110647713D01*
X112357681Y-110604949D01*
X112259223Y-110554781D01*
X112064534Y-110491522D01*
X111889995Y-110463878D01*
X111862352Y-110459500D01*
X111657648Y-110459500D01*
X111633329Y-110463351D01*
X111455465Y-110491522D01*
X111260776Y-110554781D01*
X111078386Y-110647715D01*
X110912786Y-110768028D01*
X110768028Y-110912786D01*
X110647715Y-111078386D01*
X110554781Y-111260776D01*
X110491522Y-111455465D01*
X110459500Y-111657648D01*
X109220500Y-111657648D01*
X109220500Y-103192135D01*
X110359500Y-103192135D01*
X110359500Y-105087870D01*
X110359501Y-105087876D01*
X110365908Y-105147483D01*
X110416202Y-105282328D01*
X110416206Y-105282335D01*
X110502452Y-105397544D01*
X110502455Y-105397547D01*
X110617664Y-105483793D01*
X110617671Y-105483797D01*
X110752517Y-105534091D01*
X110752516Y-105534091D01*
X110759444Y-105534835D01*
X110812127Y-105540500D01*
X112707872Y-105540499D01*
X112767483Y-105534091D01*
X112902331Y-105483796D01*
X113017546Y-105397546D01*
X113103796Y-105282331D01*
X113131429Y-105208243D01*
X113134327Y-105200474D01*
X113154091Y-105147482D01*
X113155997Y-105129756D01*
X113160500Y-105087873D01*
X113160499Y-104029818D01*
X115440000Y-104029818D01*
X115440000Y-104250181D01*
X115474473Y-104467835D01*
X115542567Y-104677410D01*
X115642611Y-104873756D01*
X115688932Y-104937513D01*
X116275387Y-104351058D01*
X116280889Y-104371591D01*
X116359881Y-104508408D01*
X116471592Y-104620119D01*
X116608409Y-104699111D01*
X116628939Y-104704612D01*
X116042485Y-105291065D01*
X116042485Y-105291066D01*
X116106243Y-105337388D01*
X116302589Y-105437432D01*
X116512164Y-105505526D01*
X116729819Y-105540000D01*
X116950181Y-105540000D01*
X117167835Y-105505526D01*
X117377410Y-105437432D01*
X117573760Y-105337386D01*
X117637513Y-105291066D01*
X117637514Y-105291066D01*
X117051059Y-104704612D01*
X117071591Y-104699111D01*
X117208408Y-104620119D01*
X117320119Y-104508408D01*
X117399111Y-104371591D01*
X117404612Y-104351059D01*
X117991066Y-104937514D01*
X117991066Y-104937513D01*
X118037386Y-104873760D01*
X118137432Y-104677410D01*
X118205526Y-104467835D01*
X118240000Y-104250181D01*
X118240000Y-104029818D01*
X118205526Y-103812164D01*
X118137432Y-103602589D01*
X118037388Y-103406243D01*
X117991066Y-103342485D01*
X117991065Y-103342485D01*
X117404612Y-103928939D01*
X117399111Y-103908409D01*
X117320119Y-103771592D01*
X117208408Y-103659881D01*
X117071591Y-103580889D01*
X117051057Y-103575387D01*
X117637513Y-102988932D01*
X117573756Y-102942611D01*
X117377410Y-102842567D01*
X117167835Y-102774473D01*
X116950181Y-102740000D01*
X116729819Y-102740000D01*
X116512164Y-102774473D01*
X116302589Y-102842567D01*
X116106233Y-102942616D01*
X116042485Y-102988931D01*
X116042485Y-102988932D01*
X116628940Y-103575387D01*
X116608409Y-103580889D01*
X116471592Y-103659881D01*
X116359881Y-103771592D01*
X116280889Y-103908409D01*
X116275387Y-103928940D01*
X115688932Y-103342485D01*
X115688931Y-103342485D01*
X115642616Y-103406233D01*
X115542567Y-103602589D01*
X115474473Y-103812164D01*
X115440000Y-104029818D01*
X113160499Y-104029818D01*
X113160499Y-103192128D01*
X113154091Y-103132517D01*
X113148832Y-103118418D01*
X113134326Y-103079524D01*
X113103797Y-102997671D01*
X113103793Y-102997664D01*
X113017547Y-102882455D01*
X113017544Y-102882452D01*
X112902335Y-102796206D01*
X112902328Y-102796202D01*
X112767482Y-102745908D01*
X112767483Y-102745908D01*
X112707883Y-102739501D01*
X112707881Y-102739500D01*
X112707873Y-102739500D01*
X112707864Y-102739500D01*
X110812129Y-102739500D01*
X110812123Y-102739501D01*
X110752516Y-102745908D01*
X110617671Y-102796202D01*
X110617664Y-102796206D01*
X110502455Y-102882452D01*
X110502452Y-102882455D01*
X110416206Y-102997664D01*
X110416202Y-102997671D01*
X110365908Y-103132517D01*
X110359501Y-103192116D01*
X110359501Y-103192123D01*
X110359500Y-103192135D01*
X109220500Y-103192135D01*
X109220500Y-88797648D01*
X110459500Y-88797648D01*
X110459500Y-89002351D01*
X110491522Y-89204534D01*
X110554781Y-89399223D01*
X110647715Y-89581613D01*
X110768028Y-89747213D01*
X110912786Y-89891971D01*
X111058383Y-89997751D01*
X111078390Y-90012287D01*
X111158453Y-90053081D01*
X111260776Y-90105218D01*
X111260778Y-90105218D01*
X111260781Y-90105220D01*
X111365137Y-90139127D01*
X111455465Y-90168477D01*
X111556557Y-90184488D01*
X111657648Y-90200500D01*
X111657649Y-90200500D01*
X111862351Y-90200500D01*
X111862352Y-90200500D01*
X112064534Y-90168477D01*
X112259219Y-90105220D01*
X112441610Y-90012287D01*
X112534590Y-89944732D01*
X112607213Y-89891971D01*
X112607215Y-89891968D01*
X112607219Y-89891966D01*
X112751966Y-89747219D01*
X112751968Y-89747215D01*
X112751971Y-89747213D01*
X112804732Y-89674590D01*
X112872287Y-89581610D01*
X112965220Y-89399219D01*
X113028477Y-89204534D01*
X113060500Y-89002352D01*
X113060500Y-88797648D01*
X113028477Y-88595466D01*
X112965220Y-88400781D01*
X112965218Y-88400778D01*
X112965218Y-88400776D01*
X112886694Y-88246666D01*
X112872287Y-88218390D01*
X112857753Y-88198385D01*
X112751971Y-88052786D01*
X112607213Y-87908028D01*
X112441613Y-87787715D01*
X112441612Y-87787714D01*
X112441610Y-87787713D01*
X112361542Y-87746916D01*
X112259223Y-87694781D01*
X112064534Y-87631522D01*
X111889995Y-87603878D01*
X111862352Y-87599500D01*
X111657648Y-87599500D01*
X111633329Y-87603351D01*
X111455465Y-87631522D01*
X111260776Y-87694781D01*
X111078386Y-87787715D01*
X110912786Y-87908028D01*
X110768028Y-88052786D01*
X110647715Y-88218386D01*
X110554781Y-88400776D01*
X110491522Y-88595465D01*
X110459500Y-88797648D01*
X109220500Y-88797648D01*
X109220500Y-80332135D01*
X110359500Y-80332135D01*
X110359500Y-82227870D01*
X110359501Y-82227876D01*
X110365908Y-82287483D01*
X110416202Y-82422328D01*
X110416206Y-82422335D01*
X110502452Y-82537544D01*
X110502455Y-82537547D01*
X110617664Y-82623793D01*
X110617671Y-82623797D01*
X110752517Y-82674091D01*
X110752516Y-82674091D01*
X110759444Y-82674835D01*
X110812127Y-82680500D01*
X112707872Y-82680499D01*
X112767483Y-82674091D01*
X112902331Y-82623796D01*
X113017546Y-82537546D01*
X113103796Y-82422331D01*
X113131429Y-82348243D01*
X113134327Y-82340474D01*
X113154091Y-82287482D01*
X113160500Y-82227873D01*
X113160499Y-81169818D01*
X115440000Y-81169818D01*
X115440000Y-81390181D01*
X115474473Y-81607835D01*
X115542567Y-81817410D01*
X115642611Y-82013756D01*
X115688932Y-82077513D01*
X116275387Y-81491058D01*
X116280889Y-81511591D01*
X116359881Y-81648408D01*
X116471592Y-81760119D01*
X116608409Y-81839111D01*
X116628939Y-81844612D01*
X116042485Y-82431065D01*
X116042485Y-82431066D01*
X116106243Y-82477388D01*
X116302589Y-82577432D01*
X116512164Y-82645526D01*
X116729819Y-82680000D01*
X116950181Y-82680000D01*
X117167835Y-82645526D01*
X117377410Y-82577432D01*
X117573760Y-82477386D01*
X117637513Y-82431066D01*
X117637514Y-82431066D01*
X117051059Y-81844612D01*
X117071591Y-81839111D01*
X117208408Y-81760119D01*
X117320119Y-81648408D01*
X117399111Y-81511591D01*
X117404612Y-81491059D01*
X117991066Y-82077514D01*
X117991066Y-82077513D01*
X118037386Y-82013760D01*
X118137432Y-81817410D01*
X118205526Y-81607835D01*
X118240000Y-81390181D01*
X118240000Y-81169818D01*
X118239994Y-81169778D01*
X120519500Y-81169778D01*
X120519500Y-81390221D01*
X120553985Y-81607952D01*
X120622103Y-81817603D01*
X120622104Y-81817606D01*
X120690122Y-81951096D01*
X120722049Y-82013756D01*
X120722187Y-82014025D01*
X120851752Y-82192358D01*
X120851756Y-82192363D01*
X121007636Y-82348243D01*
X121007641Y-82348247D01*
X121109606Y-82422328D01*
X121185978Y-82477815D01*
X121314375Y-82543237D01*
X121382393Y-82577895D01*
X121382396Y-82577896D01*
X121487221Y-82611955D01*
X121592049Y-82646015D01*
X121809778Y-82680500D01*
X121809779Y-82680500D01*
X122030221Y-82680500D01*
X122030222Y-82680500D01*
X122247951Y-82646015D01*
X122457606Y-82577895D01*
X122654022Y-82477815D01*
X122832365Y-82348242D01*
X122988242Y-82192365D01*
X123117815Y-82014022D01*
X123217895Y-81817606D01*
X123286015Y-81607951D01*
X123320500Y-81390222D01*
X123320500Y-81169778D01*
X123286015Y-80952049D01*
X123251955Y-80847221D01*
X123217896Y-80742396D01*
X123217895Y-80742393D01*
X123183237Y-80674375D01*
X123117815Y-80545978D01*
X123071685Y-80482485D01*
X122988247Y-80367641D01*
X122988243Y-80367636D01*
X122832363Y-80211756D01*
X122832358Y-80211752D01*
X122654025Y-80082187D01*
X122654024Y-80082186D01*
X122654022Y-80082185D01*
X122536791Y-80022452D01*
X122457606Y-79982104D01*
X122457603Y-79982103D01*
X122247952Y-79913985D01*
X122139086Y-79896742D01*
X122030222Y-79879500D01*
X121809778Y-79879500D01*
X121737201Y-79890995D01*
X121592047Y-79913985D01*
X121382396Y-79982103D01*
X121382393Y-79982104D01*
X121185974Y-80082187D01*
X121007641Y-80211752D01*
X121007636Y-80211756D01*
X120851756Y-80367636D01*
X120851752Y-80367641D01*
X120722187Y-80545974D01*
X120622104Y-80742393D01*
X120622103Y-80742396D01*
X120553985Y-80952047D01*
X120519500Y-81169778D01*
X118239994Y-81169778D01*
X118205526Y-80952164D01*
X118137432Y-80742589D01*
X118037388Y-80546243D01*
X117991066Y-80482485D01*
X117991065Y-80482485D01*
X117404612Y-81068939D01*
X117399111Y-81048409D01*
X117320119Y-80911592D01*
X117208408Y-80799881D01*
X117071591Y-80720889D01*
X117051057Y-80715387D01*
X117637513Y-80128932D01*
X117573756Y-80082611D01*
X117377410Y-79982567D01*
X117167835Y-79914473D01*
X116950181Y-79880000D01*
X116729819Y-79880000D01*
X116512164Y-79914473D01*
X116302589Y-79982567D01*
X116106233Y-80082616D01*
X116042485Y-80128931D01*
X116042485Y-80128932D01*
X116628940Y-80715387D01*
X116608409Y-80720889D01*
X116471592Y-80799881D01*
X116359881Y-80911592D01*
X116280889Y-81048409D01*
X116275387Y-81068940D01*
X115688932Y-80482485D01*
X115688931Y-80482485D01*
X115642616Y-80546233D01*
X115542567Y-80742589D01*
X115474473Y-80952164D01*
X115440000Y-81169818D01*
X113160499Y-81169818D01*
X113160499Y-80332128D01*
X113154091Y-80272517D01*
X113103796Y-80137669D01*
X113103795Y-80137668D01*
X113103793Y-80137664D01*
X113017547Y-80022455D01*
X113017544Y-80022452D01*
X112902335Y-79936206D01*
X112902328Y-79936202D01*
X112767482Y-79885908D01*
X112767483Y-79885908D01*
X112707883Y-79879501D01*
X112707881Y-79879500D01*
X112707873Y-79879500D01*
X112707864Y-79879500D01*
X110812129Y-79879500D01*
X110812123Y-79879501D01*
X110752516Y-79885908D01*
X110617671Y-79936202D01*
X110617664Y-79936206D01*
X110502455Y-80022452D01*
X110502452Y-80022455D01*
X110416206Y-80137664D01*
X110416202Y-80137671D01*
X110365908Y-80272517D01*
X110359501Y-80332116D01*
X110359501Y-80332123D01*
X110359500Y-80332135D01*
X109220500Y-80332135D01*
X109220500Y-64667648D01*
X110459500Y-64667648D01*
X110459500Y-64872351D01*
X110491522Y-65074534D01*
X110554781Y-65269223D01*
X110647715Y-65451613D01*
X110768028Y-65617213D01*
X110912786Y-65761971D01*
X111067749Y-65874556D01*
X111078390Y-65882287D01*
X111187042Y-65937648D01*
X111260776Y-65975218D01*
X111260778Y-65975218D01*
X111260781Y-65975220D01*
X111337843Y-66000259D01*
X111455465Y-66038477D01*
X111556557Y-66054488D01*
X111657648Y-66070500D01*
X111657649Y-66070500D01*
X111862351Y-66070500D01*
X111862352Y-66070500D01*
X112064534Y-66038477D01*
X112259219Y-65975220D01*
X112441610Y-65882287D01*
X112534590Y-65814732D01*
X112607213Y-65761971D01*
X112607215Y-65761968D01*
X112607219Y-65761966D01*
X112751966Y-65617219D01*
X112751968Y-65617215D01*
X112751971Y-65617213D01*
X112835389Y-65502396D01*
X112872287Y-65451610D01*
X112965220Y-65269219D01*
X113028477Y-65074534D01*
X113060500Y-64872352D01*
X113060500Y-64667648D01*
X118079500Y-64667648D01*
X118079500Y-64872351D01*
X118111522Y-65074534D01*
X118174781Y-65269223D01*
X118267715Y-65451613D01*
X118388028Y-65617213D01*
X118532786Y-65761971D01*
X118687749Y-65874556D01*
X118698390Y-65882287D01*
X118807042Y-65937648D01*
X118880776Y-65975218D01*
X118880778Y-65975218D01*
X118880781Y-65975220D01*
X118957843Y-66000259D01*
X119075465Y-66038477D01*
X119176557Y-66054488D01*
X119277648Y-66070500D01*
X119277649Y-66070500D01*
X119482351Y-66070500D01*
X119482352Y-66070500D01*
X119684534Y-66038477D01*
X119879219Y-65975220D01*
X119879222Y-65975218D01*
X119883852Y-65973714D01*
X119884476Y-65975636D01*
X119945453Y-65969033D01*
X120007956Y-66000259D01*
X120011213Y-66003399D01*
X121301299Y-67293485D01*
X121334784Y-67354808D01*
X121329800Y-67424500D01*
X121287928Y-67480433D01*
X121269914Y-67491650D01*
X121238388Y-67507713D01*
X121072786Y-67628028D01*
X120928028Y-67772786D01*
X120807715Y-67938386D01*
X120714781Y-68120776D01*
X120651522Y-68315465D01*
X120619500Y-68517648D01*
X120619500Y-68722351D01*
X120651522Y-68924534D01*
X120714781Y-69119223D01*
X120778691Y-69244653D01*
X120787333Y-69261613D01*
X120807715Y-69301613D01*
X120928028Y-69467213D01*
X121072786Y-69611971D01*
X121238385Y-69732284D01*
X121238387Y-69732285D01*
X121238390Y-69732287D01*
X121292378Y-69759795D01*
X121343174Y-69807769D01*
X121359969Y-69875590D01*
X121337432Y-69941725D01*
X121292378Y-69980765D01*
X121238644Y-70008143D01*
X121194077Y-70040523D01*
X121194077Y-70040524D01*
X121873554Y-70720000D01*
X121867339Y-70720000D01*
X121765606Y-70747259D01*
X121674394Y-70799920D01*
X121599920Y-70874394D01*
X121547259Y-70965606D01*
X121520000Y-71067339D01*
X121520000Y-71073553D01*
X120840524Y-70394077D01*
X120840523Y-70394077D01*
X120808143Y-70438644D01*
X120715244Y-70620968D01*
X120652009Y-70815582D01*
X120620000Y-71017682D01*
X120620000Y-71222317D01*
X120652009Y-71424417D01*
X120715244Y-71619031D01*
X120808141Y-71801350D01*
X120808147Y-71801359D01*
X120840523Y-71845921D01*
X120840524Y-71845922D01*
X121520000Y-71166446D01*
X121520000Y-71172661D01*
X121547259Y-71274394D01*
X121599920Y-71365606D01*
X121674394Y-71440080D01*
X121765606Y-71492741D01*
X121867339Y-71520000D01*
X121873553Y-71520000D01*
X121194076Y-72199474D01*
X121238650Y-72231859D01*
X121420968Y-72324755D01*
X121615582Y-72387990D01*
X121817683Y-72420000D01*
X122022317Y-72420000D01*
X122224417Y-72387990D01*
X122419031Y-72324755D01*
X122601349Y-72231859D01*
X122645921Y-72199474D01*
X121966447Y-71520000D01*
X121972661Y-71520000D01*
X122074394Y-71492741D01*
X122165606Y-71440080D01*
X122240080Y-71365606D01*
X122292741Y-71274394D01*
X122320000Y-71172661D01*
X122320000Y-71166448D01*
X122999474Y-71845922D01*
X122999474Y-71845921D01*
X123031859Y-71801349D01*
X123124755Y-71619031D01*
X123187990Y-71424417D01*
X123220000Y-71222317D01*
X123220000Y-71017682D01*
X123187990Y-70815582D01*
X123124755Y-70620968D01*
X123031859Y-70438650D01*
X122999474Y-70394077D01*
X122999474Y-70394076D01*
X122320000Y-71073551D01*
X122320000Y-71067339D01*
X122292741Y-70965606D01*
X122240080Y-70874394D01*
X122165606Y-70799920D01*
X122074394Y-70747259D01*
X121972661Y-70720000D01*
X121966446Y-70720000D01*
X122645922Y-70040524D01*
X122645921Y-70040523D01*
X122601359Y-70008147D01*
X122601350Y-70008141D01*
X122547621Y-69980765D01*
X122540870Y-69974389D01*
X122532094Y-69971362D01*
X122515876Y-69950783D01*
X122496825Y-69932791D01*
X122494593Y-69923778D01*
X122488846Y-69916486D01*
X122486327Y-69890401D01*
X122480030Y-69864970D01*
X122483024Y-69856183D01*
X122482132Y-69846940D01*
X122494115Y-69823636D01*
X122502567Y-69798835D01*
X122510686Y-69791410D01*
X122514084Y-69784804D01*
X122534830Y-69769333D01*
X122541804Y-69762957D01*
X122544654Y-69761307D01*
X122601610Y-69732287D01*
X122628281Y-69712909D01*
X122633837Y-69709694D01*
X122661781Y-69702883D01*
X122688865Y-69693219D01*
X122695300Y-69694715D01*
X122701720Y-69693151D01*
X122728905Y-69702528D01*
X122756920Y-69709042D01*
X122764513Y-69714811D01*
X122767771Y-69715935D01*
X122770425Y-69719303D01*
X122783630Y-69729336D01*
X131706613Y-78652319D01*
X131740098Y-78713642D01*
X131735114Y-78783334D01*
X131706613Y-78827681D01*
X122321113Y-88213181D01*
X122259790Y-88246666D01*
X122233432Y-88249500D01*
X120578071Y-88249500D01*
X120511032Y-88229815D01*
X120477754Y-88198386D01*
X120371966Y-88052781D01*
X120227219Y-87908034D01*
X120227213Y-87908028D01*
X120061613Y-87787715D01*
X120061612Y-87787714D01*
X120061610Y-87787713D01*
X119981542Y-87746916D01*
X119879223Y-87694781D01*
X119684534Y-87631522D01*
X119509995Y-87603878D01*
X119482352Y-87599500D01*
X119277648Y-87599500D01*
X119253329Y-87603351D01*
X119075465Y-87631522D01*
X118880776Y-87694781D01*
X118698386Y-87787715D01*
X118532786Y-87908028D01*
X118388028Y-88052786D01*
X118267715Y-88218386D01*
X118174781Y-88400776D01*
X118111522Y-88595465D01*
X118079500Y-88797648D01*
X118079500Y-89002351D01*
X118111522Y-89204534D01*
X118174781Y-89399223D01*
X118267715Y-89581613D01*
X118388028Y-89747213D01*
X118532784Y-89891969D01*
X118601863Y-89942157D01*
X118678385Y-89997753D01*
X118721051Y-90053081D01*
X118729500Y-90098070D01*
X118729500Y-110561928D01*
X118709815Y-110628967D01*
X118678385Y-110662246D01*
X118532787Y-110768028D01*
X118532782Y-110768032D01*
X118388028Y-110912786D01*
X118267715Y-111078386D01*
X118174781Y-111260776D01*
X118111522Y-111455465D01*
X118079500Y-111657648D01*
X118079500Y-111862351D01*
X118111522Y-112064534D01*
X118174781Y-112259223D01*
X118267715Y-112441613D01*
X118388028Y-112607213D01*
X118532786Y-112751971D01*
X118687749Y-112864556D01*
X118698390Y-112872287D01*
X118814607Y-112931503D01*
X118880776Y-112965218D01*
X118880778Y-112965218D01*
X118880781Y-112965220D01*
X118947407Y-112986868D01*
X119075465Y-113028477D01*
X119176557Y-113044488D01*
X119277648Y-113060500D01*
X119277649Y-113060500D01*
X119482351Y-113060500D01*
X119482352Y-113060500D01*
X119684534Y-113028477D01*
X119879219Y-112965220D01*
X120061610Y-112872287D01*
X120197946Y-112773234D01*
X120227213Y-112751971D01*
X120227215Y-112751968D01*
X120227219Y-112751966D01*
X120371966Y-112607219D01*
X120371968Y-112607215D01*
X120371971Y-112607213D01*
X120424732Y-112534590D01*
X120492287Y-112441610D01*
X120585220Y-112259219D01*
X120648477Y-112064534D01*
X120680500Y-111862352D01*
X120680500Y-111657648D01*
X120648477Y-111455466D01*
X120644673Y-111443760D01*
X120585218Y-111260776D01*
X120551503Y-111194607D01*
X120492287Y-111078390D01*
X120484556Y-111067749D01*
X120371971Y-110912786D01*
X120227217Y-110768032D01*
X120227212Y-110768028D01*
X120081615Y-110662246D01*
X120038949Y-110606916D01*
X120030500Y-110561928D01*
X120030500Y-104029778D01*
X120519500Y-104029778D01*
X120519500Y-104250221D01*
X120553985Y-104467952D01*
X120622103Y-104677603D01*
X120622104Y-104677606D01*
X120660928Y-104753800D01*
X120722049Y-104873756D01*
X120722187Y-104874025D01*
X120851752Y-105052358D01*
X120851756Y-105052363D01*
X121007636Y-105208243D01*
X121007641Y-105208247D01*
X121109606Y-105282328D01*
X121185978Y-105337815D01*
X121314375Y-105403237D01*
X121382393Y-105437895D01*
X121382396Y-105437896D01*
X121487221Y-105471955D01*
X121592049Y-105506015D01*
X121809778Y-105540500D01*
X121809779Y-105540500D01*
X122030221Y-105540500D01*
X122030222Y-105540500D01*
X122247951Y-105506015D01*
X122457606Y-105437895D01*
X122654022Y-105337815D01*
X122832365Y-105208242D01*
X122988242Y-105052365D01*
X123117815Y-104874022D01*
X123217895Y-104677606D01*
X123286015Y-104467951D01*
X123320500Y-104250222D01*
X123320500Y-104029778D01*
X123286015Y-103812049D01*
X123237845Y-103663795D01*
X123217896Y-103602396D01*
X123217895Y-103602393D01*
X123183237Y-103534375D01*
X123117815Y-103405978D01*
X123059772Y-103326088D01*
X122988247Y-103227641D01*
X122988243Y-103227636D01*
X122832363Y-103071756D01*
X122832358Y-103071752D01*
X122654025Y-102942187D01*
X122654024Y-102942186D01*
X122654022Y-102942185D01*
X122591096Y-102910122D01*
X122457606Y-102842104D01*
X122457603Y-102842103D01*
X122247952Y-102773985D01*
X122139086Y-102756742D01*
X122030222Y-102739500D01*
X121809778Y-102739500D01*
X121737201Y-102750995D01*
X121592047Y-102773985D01*
X121382396Y-102842103D01*
X121382393Y-102842104D01*
X121185974Y-102942187D01*
X121007641Y-103071752D01*
X121007636Y-103071756D01*
X120851756Y-103227636D01*
X120851752Y-103227641D01*
X120722187Y-103405974D01*
X120622104Y-103602393D01*
X120622103Y-103602396D01*
X120553985Y-103812047D01*
X120519500Y-104029778D01*
X120030500Y-104029778D01*
X120030500Y-90098070D01*
X120050185Y-90031031D01*
X120081613Y-89997753D01*
X120227219Y-89891966D01*
X120371966Y-89747219D01*
X120477753Y-89601613D01*
X120533082Y-89558949D01*
X120578071Y-89550500D01*
X122618311Y-89550500D01*
X122702855Y-89533682D01*
X122743984Y-89525501D01*
X122862367Y-89476465D01*
X122865076Y-89474654D01*
X122866012Y-89474030D01*
X122901231Y-89450497D01*
X122968909Y-89405277D01*
X133219517Y-79154669D01*
X133876538Y-78497648D01*
X136879500Y-78497648D01*
X136879500Y-78702351D01*
X136911522Y-78904534D01*
X136974781Y-79099223D01*
X137067715Y-79281613D01*
X137188028Y-79447213D01*
X137332786Y-79591971D01*
X137478383Y-79697751D01*
X137498390Y-79712287D01*
X137578453Y-79753081D01*
X137680776Y-79805218D01*
X137680778Y-79805218D01*
X137680781Y-79805220D01*
X137785137Y-79839127D01*
X137875465Y-79868477D01*
X137948218Y-79880000D01*
X138077648Y-79900500D01*
X138077649Y-79900500D01*
X138282351Y-79900500D01*
X138282352Y-79900500D01*
X138484534Y-79868477D01*
X138679219Y-79805220D01*
X138861610Y-79712287D01*
X138954590Y-79644732D01*
X139027213Y-79591971D01*
X139027215Y-79591968D01*
X139027219Y-79591966D01*
X139171966Y-79447219D01*
X139171968Y-79447215D01*
X139171971Y-79447213D01*
X139231337Y-79365501D01*
X139292287Y-79281610D01*
X139385220Y-79099219D01*
X139448477Y-78904534D01*
X139480500Y-78702352D01*
X139480500Y-78497648D01*
X139448477Y-78295466D01*
X139385220Y-78100781D01*
X139385218Y-78100778D01*
X139385218Y-78100776D01*
X139351503Y-78034607D01*
X139292287Y-77918390D01*
X139284556Y-77907749D01*
X139171971Y-77752786D01*
X139027213Y-77608028D01*
X138861613Y-77487715D01*
X138861612Y-77487714D01*
X138861610Y-77487713D01*
X138804653Y-77458691D01*
X138679223Y-77394781D01*
X138484534Y-77331522D01*
X138309995Y-77303878D01*
X138282352Y-77299500D01*
X138077648Y-77299500D01*
X138053329Y-77303351D01*
X137875465Y-77331522D01*
X137680776Y-77394781D01*
X137498386Y-77487715D01*
X137332786Y-77608028D01*
X137188028Y-77752786D01*
X137067715Y-77918386D01*
X136974781Y-78100776D01*
X136911522Y-78295465D01*
X136879500Y-78497648D01*
X133876538Y-78497648D01*
X136487367Y-75886819D01*
X136548690Y-75853334D01*
X136575048Y-75850500D01*
X142079192Y-75850500D01*
X142146231Y-75870185D01*
X142166873Y-75886819D01*
X144492862Y-78212808D01*
X144526347Y-78274131D01*
X144527654Y-78319886D01*
X144499500Y-78497647D01*
X144499500Y-78702351D01*
X144531522Y-78904534D01*
X144594781Y-79099223D01*
X144687715Y-79281613D01*
X144808028Y-79447213D01*
X144952784Y-79591969D01*
X145021863Y-79642157D01*
X145098385Y-79697753D01*
X145141051Y-79753081D01*
X145149500Y-79798070D01*
X145149500Y-82629194D01*
X145129815Y-82696233D01*
X145098385Y-82729512D01*
X144962786Y-82828028D01*
X144818028Y-82972786D01*
X144697715Y-83138386D01*
X144604781Y-83320776D01*
X144541522Y-83515465D01*
X144509500Y-83717648D01*
X144509500Y-83922351D01*
X144541522Y-84124534D01*
X144604781Y-84319223D01*
X144697715Y-84501613D01*
X144818028Y-84667213D01*
X144962784Y-84811969D01*
X145031863Y-84862157D01*
X145108385Y-84917753D01*
X145151051Y-84973081D01*
X145159500Y-85018070D01*
X145159500Y-87701928D01*
X145139815Y-87768967D01*
X145108385Y-87802246D01*
X144962787Y-87908028D01*
X144962782Y-87908032D01*
X144818028Y-88052786D01*
X144697715Y-88218386D01*
X144604781Y-88400776D01*
X144541522Y-88595465D01*
X144509500Y-88797648D01*
X144509500Y-89002351D01*
X144541522Y-89204534D01*
X144604781Y-89399223D01*
X144697715Y-89581613D01*
X144818028Y-89747213D01*
X144962784Y-89891969D01*
X145031863Y-89942157D01*
X145108385Y-89997753D01*
X145151051Y-90053081D01*
X145159500Y-90098070D01*
X145159500Y-100144830D01*
X145139815Y-100211869D01*
X145087011Y-100257624D01*
X145078833Y-100261012D01*
X144957671Y-100306202D01*
X144957664Y-100306206D01*
X144842455Y-100392452D01*
X144842452Y-100392455D01*
X144756206Y-100507664D01*
X144756202Y-100507671D01*
X144705908Y-100642517D01*
X144699501Y-100702116D01*
X144699501Y-100702123D01*
X144699500Y-100702135D01*
X144699500Y-102497870D01*
X144699501Y-102497876D01*
X144705908Y-102557483D01*
X144756202Y-102692328D01*
X144756206Y-102692335D01*
X144842452Y-102807544D01*
X144842455Y-102807547D01*
X144957664Y-102893793D01*
X144957671Y-102893797D01*
X145089082Y-102942810D01*
X145145016Y-102984681D01*
X145169433Y-103050145D01*
X145154582Y-103118418D01*
X145133431Y-103146673D01*
X145019889Y-103260215D01*
X144894951Y-103432179D01*
X144798444Y-103621585D01*
X144732753Y-103823760D01*
X144703620Y-104007700D01*
X144699500Y-104033713D01*
X144699500Y-104246287D01*
X144716894Y-104356111D01*
X144733516Y-104461055D01*
X144731877Y-104461314D01*
X144728738Y-104523883D01*
X144699342Y-104570710D01*
X143700613Y-105569439D01*
X143639290Y-105602924D01*
X143569598Y-105597940D01*
X143513665Y-105556068D01*
X143495001Y-105520077D01*
X143445218Y-105366863D01*
X143402146Y-105282331D01*
X143352287Y-105184477D01*
X143341848Y-105170109D01*
X143231971Y-105018873D01*
X143087213Y-104874115D01*
X142921611Y-104753800D01*
X142828369Y-104706290D01*
X142777574Y-104658316D01*
X142760779Y-104590494D01*
X142783317Y-104524360D01*
X142828371Y-104485321D01*
X142921346Y-104437948D01*
X142921347Y-104437948D01*
X142965921Y-104405561D01*
X142410234Y-103849874D01*
X142452292Y-103838605D01*
X142577708Y-103766197D01*
X142680110Y-103663795D01*
X142752518Y-103538379D01*
X142763787Y-103496322D01*
X143319474Y-104052009D01*
X143319474Y-104052008D01*
X143351859Y-104007436D01*
X143444755Y-103825118D01*
X143507990Y-103630504D01*
X143540000Y-103428404D01*
X143540000Y-103223769D01*
X143507990Y-103021669D01*
X143444755Y-102827055D01*
X143351859Y-102644737D01*
X143319474Y-102600164D01*
X143319474Y-102600163D01*
X142763787Y-103155851D01*
X142752518Y-103113795D01*
X142680110Y-102988379D01*
X142577708Y-102885977D01*
X142452292Y-102813569D01*
X142410233Y-102802299D01*
X142965922Y-102246611D01*
X142965921Y-102246610D01*
X142921359Y-102214234D01*
X142921350Y-102214228D01*
X142827819Y-102166572D01*
X142777023Y-102118598D01*
X142760228Y-102050777D01*
X142782765Y-101984642D01*
X142827820Y-101945602D01*
X142921346Y-101897948D01*
X142921347Y-101897948D01*
X142965921Y-101865561D01*
X142410234Y-101309874D01*
X142452292Y-101298605D01*
X142577708Y-101226197D01*
X142680110Y-101123795D01*
X142752518Y-100998379D01*
X142763787Y-100956322D01*
X143319474Y-101512009D01*
X143319474Y-101512008D01*
X143351859Y-101467436D01*
X143444755Y-101285118D01*
X143507990Y-101090504D01*
X143540000Y-100888404D01*
X143540000Y-100683769D01*
X143507990Y-100481669D01*
X143444755Y-100287055D01*
X143351859Y-100104737D01*
X143319474Y-100060164D01*
X143319474Y-100060163D01*
X142763787Y-100615851D01*
X142752518Y-100573795D01*
X142680110Y-100448379D01*
X142577708Y-100345977D01*
X142452292Y-100273569D01*
X142410233Y-100262299D01*
X142965922Y-99706611D01*
X142965921Y-99706610D01*
X142921359Y-99674234D01*
X142921350Y-99674228D01*
X142828369Y-99626852D01*
X142777573Y-99578877D01*
X142760778Y-99511056D01*
X142783315Y-99444922D01*
X142828370Y-99405882D01*
X142829471Y-99405321D01*
X142921610Y-99358374D01*
X142971144Y-99322385D01*
X143087213Y-99238058D01*
X143087215Y-99238055D01*
X143087219Y-99238053D01*
X143231966Y-99093306D01*
X143231968Y-99093302D01*
X143231971Y-99093300D01*
X143284732Y-99020677D01*
X143352287Y-98927697D01*
X143445220Y-98745306D01*
X143508477Y-98550621D01*
X143540500Y-98348439D01*
X143540500Y-98143735D01*
X143514825Y-97981629D01*
X143508477Y-97941552D01*
X143464426Y-97805977D01*
X143445220Y-97746868D01*
X143445218Y-97746865D01*
X143445218Y-97746863D01*
X143386060Y-97630760D01*
X143352287Y-97564477D01*
X143323037Y-97524217D01*
X143231971Y-97398873D01*
X143087219Y-97254121D01*
X143050930Y-97227756D01*
X143008264Y-97172426D01*
X143002285Y-97102813D01*
X143034890Y-97041018D01*
X143095728Y-97006660D01*
X143110562Y-97004147D01*
X143147483Y-97000178D01*
X143147488Y-97000176D01*
X143282331Y-96949883D01*
X143397546Y-96863633D01*
X143483796Y-96748418D01*
X143534091Y-96613570D01*
X143540500Y-96553960D01*
X143540499Y-94858215D01*
X143534091Y-94798604D01*
X143483796Y-94663756D01*
X143483795Y-94663755D01*
X143483793Y-94663751D01*
X143397547Y-94548542D01*
X143397544Y-94548539D01*
X143282335Y-94462293D01*
X143282328Y-94462289D01*
X143147482Y-94411995D01*
X143147483Y-94411995D01*
X143087883Y-94405588D01*
X143087881Y-94405587D01*
X143087873Y-94405587D01*
X143087864Y-94405587D01*
X141392129Y-94405587D01*
X141392123Y-94405588D01*
X141332516Y-94411995D01*
X141197671Y-94462289D01*
X141197664Y-94462293D01*
X141082455Y-94548539D01*
X141082452Y-94548542D01*
X140996206Y-94663751D01*
X140996202Y-94663758D01*
X140945908Y-94798604D01*
X140939501Y-94858203D01*
X140939501Y-94858210D01*
X140939500Y-94858222D01*
X140939500Y-96553957D01*
X140939501Y-96553963D01*
X140945908Y-96613570D01*
X140996202Y-96748415D01*
X140996206Y-96748422D01*
X141082452Y-96863631D01*
X141082455Y-96863634D01*
X141197664Y-96949880D01*
X141197671Y-96949884D01*
X141231006Y-96962317D01*
X141332517Y-97000178D01*
X141369441Y-97004147D01*
X141433989Y-97030883D01*
X141473838Y-97088275D01*
X141476333Y-97158100D01*
X141440681Y-97218189D01*
X141429071Y-97227753D01*
X141392784Y-97254117D01*
X141248028Y-97398873D01*
X141127715Y-97564473D01*
X141034781Y-97746863D01*
X140971522Y-97941552D01*
X140939500Y-98143735D01*
X140939500Y-98348438D01*
X140971522Y-98550621D01*
X141034781Y-98745310D01*
X141060654Y-98796087D01*
X141127585Y-98927446D01*
X141127715Y-98927700D01*
X141248028Y-99093300D01*
X141392786Y-99238058D01*
X141558385Y-99358371D01*
X141558387Y-99358372D01*
X141558390Y-99358374D01*
X141650529Y-99405321D01*
X141651630Y-99405882D01*
X141702426Y-99453857D01*
X141719221Y-99521678D01*
X141696684Y-99587812D01*
X141651630Y-99626852D01*
X141558644Y-99674230D01*
X141514077Y-99706610D01*
X141514077Y-99706611D01*
X142069766Y-100262299D01*
X142027708Y-100273569D01*
X141902292Y-100345977D01*
X141799890Y-100448379D01*
X141727482Y-100573795D01*
X141716212Y-100615852D01*
X141160524Y-100060164D01*
X141160523Y-100060164D01*
X141128143Y-100104731D01*
X141035244Y-100287055D01*
X140972009Y-100481669D01*
X140940000Y-100683769D01*
X140940000Y-100888404D01*
X140972009Y-101090504D01*
X141035244Y-101285118D01*
X141128141Y-101467437D01*
X141128147Y-101467446D01*
X141160523Y-101512008D01*
X141160524Y-101512009D01*
X141716212Y-100956321D01*
X141727482Y-100998379D01*
X141799890Y-101123795D01*
X141902292Y-101226197D01*
X142027708Y-101298605D01*
X142069765Y-101309874D01*
X141514076Y-101865561D01*
X141558650Y-101897946D01*
X141652180Y-101945602D01*
X141702976Y-101993576D01*
X141719771Y-102061397D01*
X141697234Y-102127532D01*
X141652180Y-102166572D01*
X141558644Y-102214230D01*
X141514077Y-102246610D01*
X141514077Y-102246611D01*
X142069766Y-102802299D01*
X142027708Y-102813569D01*
X141902292Y-102885977D01*
X141799890Y-102988379D01*
X141727482Y-103113795D01*
X141716212Y-103155852D01*
X141160524Y-102600164D01*
X141160523Y-102600164D01*
X141128143Y-102644731D01*
X141035244Y-102827055D01*
X140972009Y-103021669D01*
X140940000Y-103223769D01*
X140940000Y-103428404D01*
X140972009Y-103630504D01*
X141035244Y-103825118D01*
X141128141Y-104007437D01*
X141128147Y-104007446D01*
X141160523Y-104052008D01*
X141160524Y-104052009D01*
X141716212Y-103496321D01*
X141727482Y-103538379D01*
X141799890Y-103663795D01*
X141902292Y-103766197D01*
X142027708Y-103838605D01*
X142069765Y-103849874D01*
X141514076Y-104405561D01*
X141558652Y-104437948D01*
X141651628Y-104485321D01*
X141702425Y-104533295D01*
X141719220Y-104601116D01*
X141696683Y-104667251D01*
X141651630Y-104706290D01*
X141558388Y-104753800D01*
X141392786Y-104874115D01*
X141248028Y-105018873D01*
X141127715Y-105184473D01*
X141034781Y-105366863D01*
X140971522Y-105561552D01*
X140944174Y-105734227D01*
X140939500Y-105763735D01*
X140939500Y-105968439D01*
X140945678Y-106007444D01*
X140971523Y-106170622D01*
X140971524Y-106170629D01*
X140982455Y-106204270D01*
X140984450Y-106274111D01*
X140948369Y-106333943D01*
X140885668Y-106364771D01*
X140864524Y-106366587D01*
X138484929Y-106366587D01*
X138359261Y-106391584D01*
X138359255Y-106391586D01*
X138240870Y-106440622D01*
X138134331Y-106511809D01*
X138134324Y-106511815D01*
X128512181Y-116133959D01*
X128450858Y-116167444D01*
X128381166Y-116162460D01*
X128325233Y-116120588D01*
X128300816Y-116055124D01*
X128300500Y-116046278D01*
X128300500Y-115923735D01*
X128268477Y-115721552D01*
X128205218Y-115526863D01*
X128165020Y-115447971D01*
X128112287Y-115344477D01*
X128101848Y-115330109D01*
X127991971Y-115178873D01*
X127847213Y-115034115D01*
X127681614Y-114913802D01*
X127675006Y-114910435D01*
X127588917Y-114866570D01*
X127538123Y-114818598D01*
X127521328Y-114750777D01*
X127543865Y-114684642D01*
X127588917Y-114645603D01*
X127681610Y-114598374D01*
X127702770Y-114583000D01*
X127847213Y-114478058D01*
X127847215Y-114478055D01*
X127847219Y-114478053D01*
X127991966Y-114333306D01*
X127991968Y-114333302D01*
X127991971Y-114333300D01*
X128048497Y-114255497D01*
X128112287Y-114167697D01*
X128205220Y-113985306D01*
X128268477Y-113790621D01*
X128300500Y-113588439D01*
X128300500Y-113383735D01*
X128282469Y-113269896D01*
X128268477Y-113181552D01*
X128219234Y-113030000D01*
X128205220Y-112986868D01*
X128205218Y-112986865D01*
X128205218Y-112986863D01*
X128146836Y-112872284D01*
X128112287Y-112804477D01*
X128101848Y-112790109D01*
X127991971Y-112638873D01*
X127847213Y-112494115D01*
X127681614Y-112373802D01*
X127675006Y-112370435D01*
X127588917Y-112326570D01*
X127538123Y-112278598D01*
X127521328Y-112210777D01*
X127543865Y-112144642D01*
X127588917Y-112105603D01*
X127681610Y-112058374D01*
X127702770Y-112043000D01*
X127847213Y-111938058D01*
X127847215Y-111938055D01*
X127847219Y-111938053D01*
X127991966Y-111793306D01*
X127991968Y-111793302D01*
X127991971Y-111793300D01*
X128048497Y-111715497D01*
X128112287Y-111627697D01*
X128205220Y-111445306D01*
X128268477Y-111250621D01*
X128300500Y-111048439D01*
X128300500Y-110843735D01*
X128282469Y-110729896D01*
X128268477Y-110641552D01*
X128205218Y-110446863D01*
X128165020Y-110367971D01*
X128112287Y-110264477D01*
X128101848Y-110250109D01*
X127991971Y-110098873D01*
X127847213Y-109954115D01*
X127681614Y-109833802D01*
X127675006Y-109830435D01*
X127588917Y-109786570D01*
X127538123Y-109738598D01*
X127521328Y-109670777D01*
X127543865Y-109604642D01*
X127588917Y-109565603D01*
X127681610Y-109518374D01*
X127702770Y-109503000D01*
X127847213Y-109398058D01*
X127847215Y-109398055D01*
X127847219Y-109398053D01*
X127991966Y-109253306D01*
X127991968Y-109253302D01*
X127991971Y-109253300D01*
X128073556Y-109141006D01*
X128112287Y-109087697D01*
X128205220Y-108905306D01*
X128268477Y-108710621D01*
X128300500Y-108508439D01*
X128300500Y-108303735D01*
X128272345Y-108125973D01*
X128281300Y-108056680D01*
X128307134Y-108018897D01*
X138695277Y-97630756D01*
X138766465Y-97524214D01*
X138815501Y-97405830D01*
X138840500Y-97280156D01*
X138840500Y-97152018D01*
X138840500Y-90098070D01*
X138860185Y-90031031D01*
X138891613Y-89997753D01*
X139037219Y-89891966D01*
X139181966Y-89747219D01*
X139181968Y-89747215D01*
X139181971Y-89747213D01*
X139234732Y-89674590D01*
X139302287Y-89581610D01*
X139395220Y-89399219D01*
X139458477Y-89204534D01*
X139490500Y-89002352D01*
X139490500Y-88797648D01*
X139458477Y-88595466D01*
X139395220Y-88400781D01*
X139395218Y-88400778D01*
X139395218Y-88400776D01*
X139316694Y-88246666D01*
X139302287Y-88218390D01*
X139287753Y-88198385D01*
X139181971Y-88052786D01*
X139037213Y-87908028D01*
X138871613Y-87787715D01*
X138871612Y-87787714D01*
X138871610Y-87787713D01*
X138791542Y-87746916D01*
X138689223Y-87694781D01*
X138494534Y-87631522D01*
X138319995Y-87603878D01*
X138292352Y-87599500D01*
X138087648Y-87599500D01*
X138063329Y-87603351D01*
X137885465Y-87631522D01*
X137690776Y-87694781D01*
X137508386Y-87787715D01*
X137342786Y-87908028D01*
X137198028Y-88052786D01*
X137077715Y-88218386D01*
X136984781Y-88400776D01*
X136921522Y-88595465D01*
X136889500Y-88797648D01*
X136889500Y-89002351D01*
X136921522Y-89204534D01*
X136984781Y-89399223D01*
X137077715Y-89581613D01*
X137198028Y-89747213D01*
X137342784Y-89891969D01*
X137411863Y-89942157D01*
X137488385Y-89997753D01*
X137531051Y-90053081D01*
X137539500Y-90098070D01*
X137539500Y-96895278D01*
X137519815Y-96962317D01*
X137503181Y-96982959D01*
X128512181Y-105973959D01*
X128450858Y-106007444D01*
X128381166Y-106002460D01*
X128325233Y-105960588D01*
X128300816Y-105895124D01*
X128300500Y-105886278D01*
X128300500Y-105763735D01*
X128272345Y-105585974D01*
X128281300Y-105516681D01*
X128307137Y-105478895D01*
X128464724Y-105321309D01*
X128656277Y-105129756D01*
X128727465Y-105023214D01*
X128727467Y-105023210D01*
X128739015Y-104995331D01*
X128739015Y-104995330D01*
X128743932Y-104983459D01*
X128776501Y-104904831D01*
X128790200Y-104835965D01*
X128801500Y-104779158D01*
X128801500Y-94179807D01*
X128821185Y-94112768D01*
X128837814Y-94092131D01*
X137802809Y-85127135D01*
X137864130Y-85093652D01*
X137909886Y-85092345D01*
X138006719Y-85107681D01*
X138087648Y-85120500D01*
X138087649Y-85120500D01*
X138292351Y-85120500D01*
X138292352Y-85120500D01*
X138494534Y-85088477D01*
X138689219Y-85025220D01*
X138871610Y-84932287D01*
X138964590Y-84864732D01*
X139037213Y-84811971D01*
X139037215Y-84811968D01*
X139037219Y-84811966D01*
X139181966Y-84667219D01*
X139181968Y-84667215D01*
X139181971Y-84667213D01*
X139234732Y-84594590D01*
X139302287Y-84501610D01*
X139395220Y-84319219D01*
X139458477Y-84124534D01*
X139490500Y-83922352D01*
X139490500Y-83717648D01*
X139458477Y-83515466D01*
X139395220Y-83320781D01*
X139395218Y-83320778D01*
X139395218Y-83320776D01*
X139361503Y-83254607D01*
X139302287Y-83138390D01*
X139294556Y-83127749D01*
X139181971Y-82972786D01*
X139037213Y-82828028D01*
X138871613Y-82707715D01*
X138871612Y-82707714D01*
X138871610Y-82707713D01*
X138805623Y-82674091D01*
X138689223Y-82614781D01*
X138494534Y-82551522D01*
X138319995Y-82523878D01*
X138292352Y-82519500D01*
X138087648Y-82519500D01*
X138063329Y-82523351D01*
X137885465Y-82551522D01*
X137690776Y-82614781D01*
X137508386Y-82707715D01*
X137342786Y-82828028D01*
X137198028Y-82972786D01*
X137077715Y-83138386D01*
X136984781Y-83320776D01*
X136921522Y-83515465D01*
X136889500Y-83717648D01*
X136889500Y-83922351D01*
X136917654Y-84100111D01*
X136908699Y-84169405D01*
X136882862Y-84207190D01*
X127645726Y-93444326D01*
X127574534Y-93550874D01*
X127525499Y-93669255D01*
X127525497Y-93669261D01*
X127500500Y-93794928D01*
X127500500Y-94330611D01*
X127480815Y-94397650D01*
X127428011Y-94443405D01*
X127358853Y-94453349D01*
X127338183Y-94448542D01*
X127304542Y-94437611D01*
X127304535Y-94437610D01*
X127142816Y-94411996D01*
X127102352Y-94405587D01*
X126897648Y-94405587D01*
X126873329Y-94409438D01*
X126695465Y-94437609D01*
X126500776Y-94500868D01*
X126318386Y-94593802D01*
X126152786Y-94714115D01*
X126008028Y-94858873D01*
X125887715Y-95024473D01*
X125794781Y-95206863D01*
X125731522Y-95401552D01*
X125699500Y-95603735D01*
X125699500Y-95808438D01*
X125731522Y-96010621D01*
X125794781Y-96205310D01*
X125887715Y-96387700D01*
X126008028Y-96553300D01*
X126152786Y-96698058D01*
X126318385Y-96818371D01*
X126318387Y-96818372D01*
X126318390Y-96818374D01*
X126407212Y-96863631D01*
X126411630Y-96865882D01*
X126462426Y-96913857D01*
X126479221Y-96981678D01*
X126456684Y-97047812D01*
X126411630Y-97086852D01*
X126318644Y-97134230D01*
X126274077Y-97166610D01*
X126274077Y-97166611D01*
X126829765Y-97722299D01*
X126787708Y-97733569D01*
X126662292Y-97805977D01*
X126559890Y-97908379D01*
X126487482Y-98033795D01*
X126476212Y-98075852D01*
X125920524Y-97520164D01*
X125920523Y-97520164D01*
X125888143Y-97564731D01*
X125795244Y-97747055D01*
X125732009Y-97941669D01*
X125700000Y-98143769D01*
X125700000Y-98348404D01*
X125732009Y-98550504D01*
X125795244Y-98745118D01*
X125888141Y-98927437D01*
X125888147Y-98927446D01*
X125920523Y-98972008D01*
X125920524Y-98972009D01*
X126476212Y-98416321D01*
X126487482Y-98458379D01*
X126559890Y-98583795D01*
X126662292Y-98686197D01*
X126787708Y-98758605D01*
X126829764Y-98769874D01*
X126274076Y-99325561D01*
X126318652Y-99357948D01*
X126411628Y-99405321D01*
X126462425Y-99453295D01*
X126479220Y-99521116D01*
X126456683Y-99587251D01*
X126411630Y-99626290D01*
X126318388Y-99673800D01*
X126152786Y-99794115D01*
X126152782Y-99794119D01*
X126008034Y-99938868D01*
X126008028Y-99938873D01*
X125887715Y-100104473D01*
X125794781Y-100286863D01*
X125731522Y-100481552D01*
X125699500Y-100683735D01*
X125699500Y-100888438D01*
X125731522Y-101090621D01*
X125794781Y-101285310D01*
X125820654Y-101336087D01*
X125887585Y-101467446D01*
X125887715Y-101467700D01*
X126008028Y-101633300D01*
X126152786Y-101778058D01*
X126273226Y-101865561D01*
X126318390Y-101898374D01*
X126409840Y-101944970D01*
X126411080Y-101945602D01*
X126461876Y-101993577D01*
X126478671Y-102061398D01*
X126456134Y-102127533D01*
X126411080Y-102166572D01*
X126318386Y-102213802D01*
X126152786Y-102334115D01*
X126008028Y-102478873D01*
X125887715Y-102644473D01*
X125794781Y-102826863D01*
X125731522Y-103021552D01*
X125704508Y-103192116D01*
X125699500Y-103223735D01*
X125699500Y-103428439D01*
X125700093Y-103432184D01*
X125731522Y-103630621D01*
X125794781Y-103825310D01*
X125820654Y-103876087D01*
X125887585Y-104007446D01*
X125887715Y-104007700D01*
X126008028Y-104173300D01*
X126152786Y-104318058D01*
X126273226Y-104405561D01*
X126318390Y-104438374D01*
X126409840Y-104484970D01*
X126411080Y-104485602D01*
X126461876Y-104533577D01*
X126478671Y-104601398D01*
X126456134Y-104667533D01*
X126411080Y-104706572D01*
X126318386Y-104753802D01*
X126152786Y-104874115D01*
X126008028Y-105018873D01*
X125887715Y-105184473D01*
X125794781Y-105366863D01*
X125731522Y-105561552D01*
X125704174Y-105734227D01*
X125699500Y-105763735D01*
X125699500Y-105968439D01*
X125700093Y-105972184D01*
X125731522Y-106170621D01*
X125794781Y-106365310D01*
X125887715Y-106547700D01*
X126008028Y-106713300D01*
X126152786Y-106858058D01*
X126307749Y-106970643D01*
X126318390Y-106978374D01*
X126409840Y-107024970D01*
X126411080Y-107025602D01*
X126461876Y-107073577D01*
X126478671Y-107141398D01*
X126456134Y-107207533D01*
X126411080Y-107246572D01*
X126318386Y-107293802D01*
X126152786Y-107414115D01*
X126008028Y-107558873D01*
X125887715Y-107724473D01*
X125794781Y-107906863D01*
X125731522Y-108101552D01*
X125699500Y-108303735D01*
X125699500Y-108508438D01*
X125731522Y-108710621D01*
X125794781Y-108905310D01*
X125830033Y-108974494D01*
X125876227Y-109065155D01*
X125887715Y-109087700D01*
X126008028Y-109253300D01*
X126152786Y-109398058D01*
X126307749Y-109510643D01*
X126318390Y-109518374D01*
X126409840Y-109564970D01*
X126411080Y-109565602D01*
X126461876Y-109613577D01*
X126478671Y-109681398D01*
X126456134Y-109747533D01*
X126411080Y-109786572D01*
X126318386Y-109833802D01*
X126152786Y-109954115D01*
X126008028Y-110098873D01*
X125887715Y-110264473D01*
X125794781Y-110446863D01*
X125731522Y-110641552D01*
X125711491Y-110768028D01*
X125699500Y-110843735D01*
X125699500Y-111048439D01*
X125700093Y-111052184D01*
X125731522Y-111250621D01*
X125794781Y-111445310D01*
X125827490Y-111509503D01*
X125864579Y-111582295D01*
X125887715Y-111627700D01*
X126008028Y-111793300D01*
X126152786Y-111938058D01*
X126307749Y-112050643D01*
X126318390Y-112058374D01*
X126409840Y-112104970D01*
X126411080Y-112105602D01*
X126461876Y-112153577D01*
X126478671Y-112221398D01*
X126456134Y-112287533D01*
X126411080Y-112326572D01*
X126318386Y-112373802D01*
X126152786Y-112494115D01*
X126008028Y-112638873D01*
X125887715Y-112804473D01*
X125794781Y-112986863D01*
X125731522Y-113181552D01*
X125704174Y-113354227D01*
X125699500Y-113383735D01*
X125699500Y-113588439D01*
X125700093Y-113592184D01*
X125731522Y-113790621D01*
X125794781Y-113985310D01*
X125858691Y-114110740D01*
X125876227Y-114145155D01*
X125887715Y-114167700D01*
X126008028Y-114333300D01*
X126152786Y-114478058D01*
X126307749Y-114590643D01*
X126318390Y-114598374D01*
X126409840Y-114644970D01*
X126411080Y-114645602D01*
X126461876Y-114693577D01*
X126478671Y-114761398D01*
X126456134Y-114827533D01*
X126411080Y-114866572D01*
X126318386Y-114913802D01*
X126152786Y-115034115D01*
X126008028Y-115178873D01*
X125887715Y-115344473D01*
X125794781Y-115526863D01*
X125731522Y-115721552D01*
X125699500Y-115923735D01*
X125699500Y-116128438D01*
X125727654Y-116306198D01*
X125718699Y-116375492D01*
X125692862Y-116413277D01*
X125343724Y-116762415D01*
X125290505Y-116842065D01*
X125272535Y-116868958D01*
X125223499Y-116987342D01*
X125223497Y-116987348D01*
X125198500Y-117113015D01*
X125198500Y-117113018D01*
X125198500Y-121646916D01*
X125198500Y-121646918D01*
X125198499Y-121646918D01*
X125220314Y-121756583D01*
X125223498Y-121772587D01*
X125223500Y-121772594D01*
X125272533Y-121890972D01*
X125343726Y-121997520D01*
X125343727Y-121997521D01*
X125990815Y-122644608D01*
X126024300Y-122705931D01*
X126019316Y-122775622D01*
X126003452Y-122805174D01*
X125887715Y-122964473D01*
X125794781Y-123146863D01*
X125731522Y-123341552D01*
X125699500Y-123543735D01*
X125699500Y-123748438D01*
X125731522Y-123950621D01*
X125794781Y-124145310D01*
X125887715Y-124327700D01*
X126008028Y-124493300D01*
X126152786Y-124638058D01*
X126307749Y-124750643D01*
X126318390Y-124758374D01*
X126434607Y-124817590D01*
X126500776Y-124851305D01*
X126500778Y-124851305D01*
X126500781Y-124851307D01*
X126605137Y-124885214D01*
X126695465Y-124914564D01*
X126796557Y-124930575D01*
X126897648Y-124946587D01*
X126897649Y-124946587D01*
X127102351Y-124946587D01*
X127102352Y-124946587D01*
X127304534Y-124914564D01*
X127499219Y-124851307D01*
X127681610Y-124758374D01*
X127774590Y-124690819D01*
X127847213Y-124638058D01*
X127847215Y-124638055D01*
X127847219Y-124638053D01*
X127991966Y-124493306D01*
X127991968Y-124493302D01*
X127991971Y-124493300D01*
X128044732Y-124420677D01*
X128112287Y-124327697D01*
X128205220Y-124145306D01*
X128268477Y-123950621D01*
X128300500Y-123748439D01*
X128300500Y-123543735D01*
X128272345Y-123365973D01*
X128281300Y-123296680D01*
X128307134Y-123258897D01*
X136081743Y-115484290D01*
X136143066Y-115450805D01*
X136169424Y-115447971D01*
X140889744Y-115447971D01*
X140956783Y-115467656D01*
X141002538Y-115520460D01*
X141012482Y-115589618D01*
X141007676Y-115610285D01*
X141000365Y-115632788D01*
X140971522Y-115721552D01*
X140939500Y-115923735D01*
X140939500Y-116128438D01*
X140971522Y-116330621D01*
X141034781Y-116525310D01*
X141127715Y-116707700D01*
X141248028Y-116873300D01*
X141392786Y-117018058D01*
X141523486Y-117113015D01*
X141558390Y-117138374D01*
X141649840Y-117184970D01*
X141651080Y-117185602D01*
X141701876Y-117233577D01*
X141718671Y-117301398D01*
X141696134Y-117367533D01*
X141651080Y-117406572D01*
X141558386Y-117453802D01*
X141392786Y-117574115D01*
X141248028Y-117718873D01*
X141127715Y-117884473D01*
X141034781Y-118066863D01*
X140971522Y-118261552D01*
X140939500Y-118463735D01*
X140939500Y-118668439D01*
X140940093Y-118672184D01*
X140971522Y-118870621D01*
X141034781Y-119065310D01*
X141127715Y-119247700D01*
X141248028Y-119413300D01*
X141392786Y-119558058D01*
X141547749Y-119670643D01*
X141558390Y-119678374D01*
X141649840Y-119724970D01*
X141651080Y-119725602D01*
X141701876Y-119773577D01*
X141718671Y-119841398D01*
X141696134Y-119907533D01*
X141651080Y-119946572D01*
X141558386Y-119993802D01*
X141392786Y-120114115D01*
X141248028Y-120258873D01*
X141127715Y-120424473D01*
X141034781Y-120606863D01*
X140971522Y-120801552D01*
X140939500Y-121003735D01*
X140939500Y-121208439D01*
X140940093Y-121212184D01*
X140971522Y-121410621D01*
X141034781Y-121605310D01*
X141127715Y-121787700D01*
X141248028Y-121953300D01*
X141392786Y-122098058D01*
X141547749Y-122210643D01*
X141558390Y-122218374D01*
X141649840Y-122264970D01*
X141651080Y-122265602D01*
X141701876Y-122313577D01*
X141718671Y-122381398D01*
X141696134Y-122447533D01*
X141651080Y-122486572D01*
X141558386Y-122533802D01*
X141392786Y-122654115D01*
X141248028Y-122798873D01*
X141127715Y-122964473D01*
X141034781Y-123146863D01*
X140971522Y-123341552D01*
X140939500Y-123543735D01*
X140939500Y-123748438D01*
X140971522Y-123950621D01*
X141034781Y-124145310D01*
X141127715Y-124327700D01*
X141248028Y-124493300D01*
X141392786Y-124638058D01*
X141547749Y-124750643D01*
X141558390Y-124758374D01*
X141674607Y-124817590D01*
X141740776Y-124851305D01*
X141740778Y-124851305D01*
X141740781Y-124851307D01*
X141845137Y-124885214D01*
X141935465Y-124914564D01*
X142036557Y-124930575D01*
X142137648Y-124946587D01*
X142137649Y-124946587D01*
X142342351Y-124946587D01*
X142342352Y-124946587D01*
X142544534Y-124914564D01*
X142739219Y-124851307D01*
X142921610Y-124758374D01*
X143014590Y-124690819D01*
X143087213Y-124638058D01*
X143087215Y-124638055D01*
X143087219Y-124638053D01*
X143231966Y-124493306D01*
X143231968Y-124493302D01*
X143231971Y-124493300D01*
X143284732Y-124420677D01*
X143352287Y-124327697D01*
X143445220Y-124145306D01*
X143508477Y-123950621D01*
X143540500Y-123748439D01*
X143540500Y-123543735D01*
X143508477Y-123341553D01*
X143485390Y-123270500D01*
X143445218Y-123146863D01*
X143408626Y-123075048D01*
X143352287Y-122964477D01*
X143341848Y-122950109D01*
X143231971Y-122798873D01*
X143087213Y-122654115D01*
X142921614Y-122533802D01*
X142915006Y-122530435D01*
X142828917Y-122486570D01*
X142778123Y-122438598D01*
X142761328Y-122370777D01*
X142783865Y-122304642D01*
X142828917Y-122265603D01*
X142921610Y-122218374D01*
X142942770Y-122203000D01*
X143087213Y-122098058D01*
X143087215Y-122098055D01*
X143087219Y-122098053D01*
X143231966Y-121953306D01*
X143231968Y-121953302D01*
X143231971Y-121953300D01*
X143333385Y-121813713D01*
X143352287Y-121787697D01*
X143445220Y-121605306D01*
X143508477Y-121410621D01*
X143540500Y-121208439D01*
X143540500Y-121003735D01*
X143522469Y-120889896D01*
X143508477Y-120801552D01*
X143445218Y-120606863D01*
X143408626Y-120535048D01*
X143352287Y-120424477D01*
X143341848Y-120410109D01*
X143231971Y-120258873D01*
X143087213Y-120114115D01*
X142921614Y-119993802D01*
X142915006Y-119990435D01*
X142828917Y-119946570D01*
X142778123Y-119898598D01*
X142761328Y-119830777D01*
X142783865Y-119764642D01*
X142828917Y-119725603D01*
X142921610Y-119678374D01*
X142942770Y-119663000D01*
X143087213Y-119558058D01*
X143087215Y-119558055D01*
X143087219Y-119558053D01*
X143231966Y-119413306D01*
X143231968Y-119413302D01*
X143231971Y-119413300D01*
X143352286Y-119247698D01*
X143370197Y-119212547D01*
X143370197Y-119212546D01*
X143445218Y-119065310D01*
X143445218Y-119065309D01*
X143445220Y-119065306D01*
X143508477Y-118870621D01*
X143540500Y-118668439D01*
X143540500Y-118463735D01*
X143522469Y-118349896D01*
X143508477Y-118261552D01*
X143445218Y-118066863D01*
X143388357Y-117955269D01*
X143352287Y-117884477D01*
X143344556Y-117873836D01*
X143231971Y-117718873D01*
X143087213Y-117574115D01*
X142921614Y-117453802D01*
X142915006Y-117450435D01*
X142828917Y-117406570D01*
X142778123Y-117358598D01*
X142761328Y-117290777D01*
X142783865Y-117224642D01*
X142828917Y-117185603D01*
X142921610Y-117138374D01*
X143066656Y-117032993D01*
X143087213Y-117018058D01*
X143087215Y-117018055D01*
X143087219Y-117018053D01*
X143231966Y-116873306D01*
X143231968Y-116873302D01*
X143231971Y-116873300D01*
X143333356Y-116733753D01*
X143352287Y-116707697D01*
X143445220Y-116525306D01*
X143508477Y-116330621D01*
X143540500Y-116128439D01*
X143540500Y-115923735D01*
X143508477Y-115721553D01*
X143445220Y-115526868D01*
X143411043Y-115459792D01*
X143404388Y-115446730D01*
X143391492Y-115378060D01*
X143417769Y-115313320D01*
X143427192Y-115302754D01*
X143911534Y-114818412D01*
X144487819Y-114242125D01*
X144549142Y-114208641D01*
X144618834Y-114213625D01*
X144674767Y-114255497D01*
X144699184Y-114320961D01*
X144699500Y-114329807D01*
X144699500Y-114406286D01*
X144729923Y-114598374D01*
X144732754Y-114616243D01*
X144778192Y-114756087D01*
X144798444Y-114818414D01*
X144894951Y-115007820D01*
X145019890Y-115179786D01*
X145170213Y-115330109D01*
X145342179Y-115455048D01*
X145342181Y-115455049D01*
X145342184Y-115455051D01*
X145351493Y-115459794D01*
X145402290Y-115507766D01*
X145419087Y-115575587D01*
X145396552Y-115641722D01*
X145351505Y-115680760D01*
X145342446Y-115685376D01*
X145342440Y-115685380D01*
X145288282Y-115724727D01*
X145288282Y-115724728D01*
X145920591Y-116357037D01*
X145857007Y-116374075D01*
X145742993Y-116439901D01*
X145649901Y-116532993D01*
X145584075Y-116647007D01*
X145567037Y-116710591D01*
X144934728Y-116078282D01*
X144934727Y-116078282D01*
X144895380Y-116132439D01*
X144798904Y-116321782D01*
X144733242Y-116523869D01*
X144733242Y-116523872D01*
X144700000Y-116733753D01*
X144700000Y-116946246D01*
X144733242Y-117156127D01*
X144733242Y-117156130D01*
X144798904Y-117358217D01*
X144895375Y-117547550D01*
X144934728Y-117601716D01*
X145567037Y-116969408D01*
X145584075Y-117032993D01*
X145649901Y-117147007D01*
X145742993Y-117240099D01*
X145857007Y-117305925D01*
X145920590Y-117322962D01*
X145288282Y-117955269D01*
X145288282Y-117955270D01*
X145342452Y-117994626D01*
X145342451Y-117994626D01*
X145351495Y-117999234D01*
X145402292Y-118047208D01*
X145419087Y-118115029D01*
X145396550Y-118181164D01*
X145351499Y-118220202D01*
X145342182Y-118224949D01*
X145170213Y-118349890D01*
X145019890Y-118500213D01*
X144894951Y-118672179D01*
X144798444Y-118861585D01*
X144732753Y-119063760D01*
X144699500Y-119273713D01*
X144699500Y-119486286D01*
X144729923Y-119678374D01*
X144732754Y-119696243D01*
X144778192Y-119836087D01*
X144798444Y-119898414D01*
X144894951Y-120087820D01*
X145019890Y-120259786D01*
X145170213Y-120410109D01*
X145342179Y-120535048D01*
X145342181Y-120535049D01*
X145342184Y-120535051D01*
X145531588Y-120631557D01*
X145733757Y-120697246D01*
X145943713Y-120730500D01*
X145943714Y-120730500D01*
X146156286Y-120730500D01*
X146156287Y-120730500D01*
X146366243Y-120697246D01*
X146568412Y-120631557D01*
X146757816Y-120535051D01*
X146779789Y-120519086D01*
X146929786Y-120410109D01*
X146929788Y-120410106D01*
X146929792Y-120410104D01*
X147080104Y-120259792D01*
X147080106Y-120259788D01*
X147080109Y-120259786D01*
X147205048Y-120087820D01*
X147205047Y-120087820D01*
X147205051Y-120087816D01*
X147301557Y-119898412D01*
X147367246Y-119696243D01*
X147400500Y-119486287D01*
X147400500Y-119273713D01*
X147367246Y-119063757D01*
X147301557Y-118861588D01*
X147205051Y-118672184D01*
X147205049Y-118672181D01*
X147205048Y-118672179D01*
X147080109Y-118500213D01*
X146929786Y-118349890D01*
X146757817Y-118224949D01*
X146748504Y-118220204D01*
X146697707Y-118172230D01*
X146680912Y-118104409D01*
X146703449Y-118038274D01*
X146748507Y-117999232D01*
X146757555Y-117994622D01*
X146811716Y-117955270D01*
X146811717Y-117955270D01*
X146179408Y-117322962D01*
X146242993Y-117305925D01*
X146357007Y-117240099D01*
X146450099Y-117147007D01*
X146515925Y-117032993D01*
X146532962Y-116969408D01*
X147165270Y-117601717D01*
X147165270Y-117601716D01*
X147204622Y-117547554D01*
X147301095Y-117358217D01*
X147366757Y-117156130D01*
X147366757Y-117156127D01*
X147400000Y-116946246D01*
X147400000Y-116733753D01*
X147366757Y-116523872D01*
X147366757Y-116523869D01*
X147301095Y-116321782D01*
X147204624Y-116132449D01*
X147165270Y-116078282D01*
X147165269Y-116078282D01*
X146532962Y-116710590D01*
X146515925Y-116647007D01*
X146450099Y-116532993D01*
X146357007Y-116439901D01*
X146242993Y-116374075D01*
X146179409Y-116357037D01*
X146811716Y-115724728D01*
X146757547Y-115685373D01*
X146757547Y-115685372D01*
X146748500Y-115680763D01*
X146697706Y-115632788D01*
X146680912Y-115564966D01*
X146703451Y-115498832D01*
X146748508Y-115459793D01*
X146757816Y-115455051D01*
X146863786Y-115378060D01*
X146929786Y-115330109D01*
X146929788Y-115330106D01*
X146929792Y-115330104D01*
X147080104Y-115179792D01*
X147080106Y-115179788D01*
X147080109Y-115179786D01*
X147205048Y-115007820D01*
X147205047Y-115007820D01*
X147205051Y-115007816D01*
X147301557Y-114818412D01*
X147367246Y-114616243D01*
X147400500Y-114406287D01*
X147400500Y-114193713D01*
X147367246Y-113983757D01*
X147301557Y-113781588D01*
X147205051Y-113592184D01*
X147205049Y-113592181D01*
X147205048Y-113592179D01*
X147080109Y-113420213D01*
X146929786Y-113269890D01*
X146757820Y-113144951D01*
X146757115Y-113144591D01*
X146749054Y-113140485D01*
X146698259Y-113092512D01*
X146681463Y-113024692D01*
X146703999Y-112958556D01*
X146749054Y-112919515D01*
X146757816Y-112915051D01*
X146816680Y-112872284D01*
X146929786Y-112790109D01*
X146929788Y-112790106D01*
X146929792Y-112790104D01*
X147080104Y-112639792D01*
X147080106Y-112639788D01*
X147080109Y-112639786D01*
X147205048Y-112467820D01*
X147205047Y-112467820D01*
X147205051Y-112467816D01*
X147301557Y-112278412D01*
X147367246Y-112076243D01*
X147400500Y-111866287D01*
X147400500Y-111653713D01*
X147367246Y-111443757D01*
X147301557Y-111241588D01*
X147205051Y-111052184D01*
X147205049Y-111052181D01*
X147205048Y-111052179D01*
X147080109Y-110880213D01*
X146929786Y-110729890D01*
X146757820Y-110604951D01*
X146757115Y-110604591D01*
X146749054Y-110600485D01*
X146698259Y-110552512D01*
X146681463Y-110484692D01*
X146703999Y-110418556D01*
X146749054Y-110379515D01*
X146757816Y-110375051D01*
X146779789Y-110359086D01*
X146929786Y-110250109D01*
X146929788Y-110250106D01*
X146929792Y-110250104D01*
X147080104Y-110099792D01*
X147080106Y-110099788D01*
X147080109Y-110099786D01*
X147205048Y-109927820D01*
X147205047Y-109927820D01*
X147205051Y-109927816D01*
X147301557Y-109738412D01*
X147367246Y-109536243D01*
X147400500Y-109326287D01*
X147400500Y-109113713D01*
X147367246Y-108903757D01*
X147301557Y-108701588D01*
X147301556Y-108701586D01*
X147300051Y-108696954D01*
X147301428Y-108696506D01*
X147294653Y-108633484D01*
X147325927Y-108571005D01*
X147386016Y-108535352D01*
X147416683Y-108531500D01*
X148723071Y-108531500D01*
X148839006Y-108508438D01*
X148848744Y-108506501D01*
X148967127Y-108457465D01*
X149073669Y-108386277D01*
X151113127Y-106346819D01*
X151174450Y-106313334D01*
X151200808Y-106310500D01*
X151218693Y-106310500D01*
X151218694Y-106310499D01*
X151276682Y-106298964D01*
X151392658Y-106275896D01*
X151392661Y-106275894D01*
X151392666Y-106275894D01*
X151556547Y-106208013D01*
X151704035Y-106109464D01*
X151829464Y-105984035D01*
X151928013Y-105836547D01*
X151995894Y-105672666D01*
X152000424Y-105649896D01*
X152024601Y-105528345D01*
X152030500Y-105498691D01*
X152030500Y-105321309D01*
X152030500Y-105321306D01*
X152030499Y-105321304D01*
X151995896Y-105147341D01*
X151995893Y-105147332D01*
X151928016Y-104983459D01*
X151928009Y-104983446D01*
X151829464Y-104835965D01*
X151829461Y-104835961D01*
X151704038Y-104710538D01*
X151704034Y-104710535D01*
X151556553Y-104611990D01*
X151556540Y-104611983D01*
X151392667Y-104544106D01*
X151392658Y-104544103D01*
X151218694Y-104509500D01*
X151218691Y-104509500D01*
X151041309Y-104509500D01*
X151041306Y-104509500D01*
X150867341Y-104544103D01*
X150867332Y-104544106D01*
X150703459Y-104611983D01*
X150703446Y-104611990D01*
X150555965Y-104710535D01*
X150555961Y-104710538D01*
X150430538Y-104835961D01*
X150430535Y-104835965D01*
X150331990Y-104983446D01*
X150331983Y-104983459D01*
X150264106Y-105147332D01*
X150264103Y-105147341D01*
X150229500Y-105321304D01*
X150229500Y-105339192D01*
X150209815Y-105406231D01*
X150193181Y-105426873D01*
X148425873Y-107194181D01*
X148364550Y-107227666D01*
X148338192Y-107230500D01*
X147461802Y-107230500D01*
X147394763Y-107210815D01*
X147349008Y-107158011D01*
X147339064Y-107088853D01*
X147343871Y-107068182D01*
X147345268Y-107063883D01*
X147367246Y-106996243D01*
X147400500Y-106786287D01*
X147400500Y-106573713D01*
X147367246Y-106363757D01*
X147301557Y-106161588D01*
X147205051Y-105972184D01*
X147205049Y-105972181D01*
X147205048Y-105972179D01*
X147080109Y-105800213D01*
X146929786Y-105649890D01*
X146757820Y-105524951D01*
X146757115Y-105524591D01*
X146749054Y-105520485D01*
X146698259Y-105472512D01*
X146681463Y-105404692D01*
X146703999Y-105338556D01*
X146749054Y-105299515D01*
X146757816Y-105295051D01*
X146779789Y-105279086D01*
X146929786Y-105170109D01*
X146929788Y-105170106D01*
X146929792Y-105170104D01*
X147080104Y-105019792D01*
X147080106Y-105019788D01*
X147080109Y-105019786D01*
X147205048Y-104847820D01*
X147205047Y-104847820D01*
X147205051Y-104847816D01*
X147301557Y-104658412D01*
X147367246Y-104456243D01*
X147400500Y-104246287D01*
X147400500Y-104033713D01*
X147367246Y-103823757D01*
X147301557Y-103621588D01*
X147205051Y-103432184D01*
X147205049Y-103432181D01*
X147205048Y-103432179D01*
X147080109Y-103260213D01*
X146966569Y-103146673D01*
X146933084Y-103085350D01*
X146938068Y-103015658D01*
X146979940Y-102959725D01*
X147010915Y-102942810D01*
X147142331Y-102893796D01*
X147257546Y-102807546D01*
X147343796Y-102692331D01*
X147394091Y-102557483D01*
X147400500Y-102497873D01*
X147400499Y-100702128D01*
X147394091Y-100642517D01*
X147368459Y-100573795D01*
X147343797Y-100507671D01*
X147343793Y-100507664D01*
X147257547Y-100392455D01*
X147257544Y-100392452D01*
X147142335Y-100306206D01*
X147142328Y-100306202D01*
X147007482Y-100255908D01*
X147007483Y-100255908D01*
X146947883Y-100249501D01*
X146947881Y-100249500D01*
X146947873Y-100249500D01*
X146947865Y-100249500D01*
X146798995Y-100249500D01*
X146731956Y-100229815D01*
X146686201Y-100177011D01*
X146677377Y-100149689D01*
X146675501Y-100140256D01*
X146626465Y-100021873D01*
X146626464Y-100021872D01*
X146626461Y-100021866D01*
X146575753Y-99945977D01*
X146571003Y-99938868D01*
X146555276Y-99915330D01*
X146494242Y-99854296D01*
X146491830Y-99851583D01*
X146478402Y-99823144D01*
X146463334Y-99795550D01*
X146462733Y-99789960D01*
X146461997Y-99788402D01*
X146462308Y-99786016D01*
X146460500Y-99769192D01*
X146460500Y-90098070D01*
X146480185Y-90031031D01*
X146511613Y-89997753D01*
X146657219Y-89891966D01*
X146801966Y-89747219D01*
X146801968Y-89747215D01*
X146801971Y-89747213D01*
X146854732Y-89674590D01*
X146922287Y-89581610D01*
X147015220Y-89399219D01*
X147078477Y-89204534D01*
X147110500Y-89002352D01*
X147110500Y-88797648D01*
X147078477Y-88595466D01*
X147015220Y-88400781D01*
X147015218Y-88400778D01*
X147015218Y-88400776D01*
X146936694Y-88246666D01*
X146922287Y-88218390D01*
X146907753Y-88198385D01*
X146801971Y-88052786D01*
X146657217Y-87908032D01*
X146657212Y-87908028D01*
X146511615Y-87802246D01*
X146468949Y-87746916D01*
X146460500Y-87701928D01*
X146460500Y-85018070D01*
X146480185Y-84951031D01*
X146511613Y-84917753D01*
X146657219Y-84811966D01*
X146801966Y-84667219D01*
X146801968Y-84667215D01*
X146801971Y-84667213D01*
X146854732Y-84594590D01*
X146922287Y-84501610D01*
X147015220Y-84319219D01*
X147078477Y-84124534D01*
X147110500Y-83922352D01*
X147110500Y-83717648D01*
X147078477Y-83515466D01*
X147015220Y-83320781D01*
X147015218Y-83320778D01*
X147015218Y-83320776D01*
X146981503Y-83254607D01*
X146922287Y-83138390D01*
X146914556Y-83127749D01*
X146801971Y-82972786D01*
X146657217Y-82828032D01*
X146657212Y-82828028D01*
X146501615Y-82714981D01*
X146458949Y-82659652D01*
X146450500Y-82614663D01*
X146450500Y-79798070D01*
X146470185Y-79731031D01*
X146501613Y-79697753D01*
X146647219Y-79591966D01*
X146752366Y-79486819D01*
X146813689Y-79453334D01*
X146840047Y-79450500D01*
X152404071Y-79450500D01*
X152488615Y-79433682D01*
X152529744Y-79425501D01*
X152648127Y-79376465D01*
X152664536Y-79365501D01*
X152754669Y-79305277D01*
X157092809Y-74967135D01*
X157154130Y-74933652D01*
X157199886Y-74932345D01*
X157296719Y-74947681D01*
X157377648Y-74960500D01*
X157377649Y-74960500D01*
X157582351Y-74960500D01*
X157582352Y-74960500D01*
X157784534Y-74928477D01*
X157979219Y-74865220D01*
X158161610Y-74772287D01*
X158254590Y-74704732D01*
X158327213Y-74651971D01*
X158327215Y-74651968D01*
X158327219Y-74651966D01*
X158471966Y-74507219D01*
X158471968Y-74507215D01*
X158471971Y-74507213D01*
X158544159Y-74407853D01*
X158592287Y-74341610D01*
X158685220Y-74159219D01*
X158748477Y-73964534D01*
X158780500Y-73762352D01*
X158780500Y-73557648D01*
X158779260Y-73549818D01*
X158748477Y-73355465D01*
X158685218Y-73160776D01*
X158633869Y-73060000D01*
X158592287Y-72978390D01*
X158584556Y-72967749D01*
X158471971Y-72812786D01*
X158327217Y-72668032D01*
X158327212Y-72668028D01*
X158181615Y-72562246D01*
X158138949Y-72506916D01*
X158130500Y-72461928D01*
X158130500Y-71440807D01*
X158150185Y-71373768D01*
X158166819Y-71353126D01*
X159255273Y-70264672D01*
X159255276Y-70264669D01*
X159326465Y-70158127D01*
X159375501Y-70039744D01*
X159388501Y-69974389D01*
X159400500Y-69914071D01*
X159400500Y-67238070D01*
X159420185Y-67171031D01*
X159451613Y-67137753D01*
X159597219Y-67031966D01*
X159741966Y-66887219D01*
X159741968Y-66887215D01*
X159741971Y-66887213D01*
X159794732Y-66814590D01*
X159862287Y-66721610D01*
X159955220Y-66539219D01*
X160018477Y-66344534D01*
X160050500Y-66142352D01*
X160050500Y-65937648D01*
X160018477Y-65735465D01*
X159955218Y-65540776D01*
X159921503Y-65474607D01*
X159862287Y-65358390D01*
X159824205Y-65305974D01*
X159741971Y-65192786D01*
X159597213Y-65048028D01*
X159431613Y-64927715D01*
X159431612Y-64927714D01*
X159431610Y-64927713D01*
X159374653Y-64898691D01*
X159249223Y-64834781D01*
X159054534Y-64771522D01*
X158868799Y-64742105D01*
X158852352Y-64739500D01*
X158647648Y-64739500D01*
X158631201Y-64742105D01*
X158445465Y-64771522D01*
X158250776Y-64834781D01*
X158068386Y-64927715D01*
X157902786Y-65048028D01*
X157758028Y-65192786D01*
X157637715Y-65358386D01*
X157544781Y-65540776D01*
X157481522Y-65735465D01*
X157449500Y-65937648D01*
X157449500Y-66142351D01*
X157481522Y-66344534D01*
X157544781Y-66539223D01*
X157637715Y-66721613D01*
X157758028Y-66887213D01*
X157902784Y-67031969D01*
X157971863Y-67082157D01*
X158048385Y-67137753D01*
X158091051Y-67193081D01*
X158099500Y-67238070D01*
X158099500Y-69529191D01*
X158079815Y-69596230D01*
X158063181Y-69616872D01*
X156974727Y-70705325D01*
X156974726Y-70705326D01*
X156903534Y-70811874D01*
X156854499Y-70930255D01*
X156854497Y-70930261D01*
X156829500Y-71055928D01*
X156829500Y-72461928D01*
X156809815Y-72528967D01*
X156778385Y-72562246D01*
X156632787Y-72668028D01*
X156632782Y-72668032D01*
X156488028Y-72812786D01*
X156367715Y-72978386D01*
X156274781Y-73160776D01*
X156211522Y-73355465D01*
X156180740Y-73549818D01*
X156179500Y-73557648D01*
X156179500Y-73762352D01*
X156182704Y-73782580D01*
X156207654Y-73940111D01*
X156198699Y-74009405D01*
X156172862Y-74047190D01*
X152106873Y-78113181D01*
X152045550Y-78146666D01*
X152019192Y-78149500D01*
X147106031Y-78149500D01*
X147038992Y-78129815D01*
X146995546Y-78081795D01*
X146912284Y-77918385D01*
X146791971Y-77752786D01*
X146647213Y-77608028D01*
X146481613Y-77487715D01*
X146481612Y-77487714D01*
X146481610Y-77487713D01*
X146424653Y-77458691D01*
X146299223Y-77394781D01*
X146104534Y-77331522D01*
X145929995Y-77303878D01*
X145902352Y-77299500D01*
X145697648Y-77299500D01*
X145519886Y-77327654D01*
X145450593Y-77318699D01*
X145412808Y-77292862D01*
X143078849Y-74958903D01*
X143045364Y-74897580D01*
X143050348Y-74827888D01*
X143092220Y-74771955D01*
X143093646Y-74770903D01*
X143152365Y-74728242D01*
X143308242Y-74572365D01*
X143437815Y-74394022D01*
X143537895Y-74197606D01*
X143606015Y-73987951D01*
X143640500Y-73770222D01*
X143640500Y-73557648D01*
X148559500Y-73557648D01*
X148559500Y-73762352D01*
X148562704Y-73782580D01*
X148591522Y-73964534D01*
X148654781Y-74159223D01*
X148747715Y-74341613D01*
X148868028Y-74507213D01*
X149012786Y-74651971D01*
X149117768Y-74728243D01*
X149178390Y-74772287D01*
X149287513Y-74827888D01*
X149360776Y-74865218D01*
X149360778Y-74865218D01*
X149360781Y-74865220D01*
X149460375Y-74897580D01*
X149555465Y-74928477D01*
X149656557Y-74944488D01*
X149757648Y-74960500D01*
X149757649Y-74960500D01*
X149962351Y-74960500D01*
X149962352Y-74960500D01*
X150164534Y-74928477D01*
X150359219Y-74865220D01*
X150541610Y-74772287D01*
X150634590Y-74704732D01*
X150707213Y-74651971D01*
X150707215Y-74651968D01*
X150707219Y-74651966D01*
X150851966Y-74507219D01*
X150851968Y-74507215D01*
X150851971Y-74507213D01*
X150924159Y-74407853D01*
X150972287Y-74341610D01*
X151065220Y-74159219D01*
X151128477Y-73964534D01*
X151160500Y-73762352D01*
X151160500Y-73557648D01*
X151159260Y-73549818D01*
X151128477Y-73355465D01*
X151065218Y-73160776D01*
X151013869Y-73060000D01*
X150972287Y-72978390D01*
X150964556Y-72967749D01*
X150851971Y-72812786D01*
X150707213Y-72668028D01*
X150541613Y-72547715D01*
X150541612Y-72547714D01*
X150541610Y-72547713D01*
X150461542Y-72506916D01*
X150359223Y-72454781D01*
X150164534Y-72391522D01*
X149978799Y-72362105D01*
X149962352Y-72359500D01*
X149757648Y-72359500D01*
X149741201Y-72362105D01*
X149555465Y-72391522D01*
X149360776Y-72454781D01*
X149178386Y-72547715D01*
X149012786Y-72668028D01*
X148868028Y-72812786D01*
X148747715Y-72978386D01*
X148654781Y-73160776D01*
X148591522Y-73355465D01*
X148560740Y-73549818D01*
X148559500Y-73557648D01*
X143640500Y-73557648D01*
X143640500Y-73549778D01*
X143606015Y-73332049D01*
X143571955Y-73227221D01*
X143537896Y-73122396D01*
X143537895Y-73122393D01*
X143503237Y-73054375D01*
X143437815Y-72925978D01*
X143355573Y-72812781D01*
X143308247Y-72747641D01*
X143308243Y-72747636D01*
X143152363Y-72591756D01*
X143152358Y-72591752D01*
X142974025Y-72462187D01*
X142974024Y-72462186D01*
X142974022Y-72462185D01*
X142856791Y-72402452D01*
X142777606Y-72362104D01*
X142777603Y-72362103D01*
X142567952Y-72293985D01*
X142459086Y-72276742D01*
X142350222Y-72259500D01*
X142129778Y-72259500D01*
X142057201Y-72270995D01*
X141912047Y-72293985D01*
X141702396Y-72362103D01*
X141702393Y-72362104D01*
X141505974Y-72462187D01*
X141327641Y-72591752D01*
X141327636Y-72591756D01*
X141171756Y-72747636D01*
X141171752Y-72747641D01*
X141042187Y-72925974D01*
X140942104Y-73122393D01*
X140942103Y-73122396D01*
X140873985Y-73332047D01*
X140839500Y-73549778D01*
X140839500Y-73770221D01*
X140873985Y-73987952D01*
X140942103Y-74197603D01*
X140942104Y-74197606D01*
X141029540Y-74369205D01*
X141042436Y-74437874D01*
X141016160Y-74502614D01*
X140959054Y-74542872D01*
X140919055Y-74549500D01*
X138480383Y-74549500D01*
X138413344Y-74529815D01*
X138367589Y-74477011D01*
X138357645Y-74407853D01*
X138369898Y-74369205D01*
X138457432Y-74197410D01*
X138525526Y-73987835D01*
X138560000Y-73770181D01*
X138560000Y-73549818D01*
X138525526Y-73332164D01*
X138457432Y-73122589D01*
X138357388Y-72926243D01*
X138311065Y-72862485D01*
X137724612Y-73448939D01*
X137719111Y-73428409D01*
X137640119Y-73291592D01*
X137528408Y-73179881D01*
X137391591Y-73100889D01*
X137371057Y-73095387D01*
X137957513Y-72508932D01*
X137893756Y-72462611D01*
X137697410Y-72362567D01*
X137487835Y-72294473D01*
X137270181Y-72260000D01*
X137049819Y-72260000D01*
X136832164Y-72294473D01*
X136622589Y-72362567D01*
X136426233Y-72462616D01*
X136362485Y-72508931D01*
X136362485Y-72508932D01*
X136948940Y-73095387D01*
X136928409Y-73100889D01*
X136791592Y-73179881D01*
X136679881Y-73291592D01*
X136600889Y-73428409D01*
X136595387Y-73448940D01*
X136008932Y-72862485D01*
X136008931Y-72862485D01*
X135962616Y-72926233D01*
X135862567Y-73122589D01*
X135794473Y-73332164D01*
X135760000Y-73549818D01*
X135760000Y-73770181D01*
X135794473Y-73987835D01*
X135862567Y-74197410D01*
X135962613Y-74393760D01*
X135994664Y-74437874D01*
X136018144Y-74503681D01*
X136002319Y-74571734D01*
X135952213Y-74620429D01*
X135949807Y-74621559D01*
X135946118Y-74623531D01*
X135839566Y-74694726D01*
X132801920Y-77732372D01*
X132740597Y-77765857D01*
X132670905Y-77760873D01*
X132626558Y-77732372D01*
X127606321Y-72712135D01*
X130679500Y-72712135D01*
X130679500Y-74607870D01*
X130679501Y-74607876D01*
X130685908Y-74667483D01*
X130736202Y-74802328D01*
X130736206Y-74802335D01*
X130822452Y-74917544D01*
X130822455Y-74917547D01*
X130937664Y-75003793D01*
X130937671Y-75003797D01*
X131072517Y-75054091D01*
X131072516Y-75054091D01*
X131079444Y-75054835D01*
X131132127Y-75060500D01*
X133027872Y-75060499D01*
X133087483Y-75054091D01*
X133222331Y-75003796D01*
X133337546Y-74917546D01*
X133423796Y-74802331D01*
X133474091Y-74667483D01*
X133480500Y-74607873D01*
X133480499Y-72712128D01*
X133474091Y-72652517D01*
X133440422Y-72562246D01*
X133423797Y-72517671D01*
X133423793Y-72517664D01*
X133337547Y-72402455D01*
X133337544Y-72402452D01*
X133222335Y-72316206D01*
X133222328Y-72316202D01*
X133087482Y-72265908D01*
X133087483Y-72265908D01*
X133027883Y-72259501D01*
X133027881Y-72259500D01*
X133027873Y-72259500D01*
X133027864Y-72259500D01*
X131132129Y-72259500D01*
X131132123Y-72259501D01*
X131072516Y-72265908D01*
X130937671Y-72316202D01*
X130937664Y-72316206D01*
X130822455Y-72402452D01*
X130822452Y-72402455D01*
X130736206Y-72517664D01*
X130736202Y-72517671D01*
X130685908Y-72652517D01*
X130679501Y-72712116D01*
X130679501Y-72712123D01*
X130679500Y-72712135D01*
X127606321Y-72712135D01*
X127400522Y-72506336D01*
X127367037Y-72445013D01*
X127372021Y-72375321D01*
X127413893Y-72319388D01*
X127449885Y-72300724D01*
X127499029Y-72284755D01*
X127681349Y-72191859D01*
X127725921Y-72159474D01*
X127046446Y-71480000D01*
X127052661Y-71480000D01*
X127154394Y-71452741D01*
X127245606Y-71400080D01*
X127320080Y-71325606D01*
X127372741Y-71234394D01*
X127400000Y-71132661D01*
X127400000Y-71126448D01*
X128079474Y-71805922D01*
X128079474Y-71805921D01*
X128111859Y-71761349D01*
X128204755Y-71579031D01*
X128267990Y-71384417D01*
X128300000Y-71182317D01*
X128300000Y-70977682D01*
X128267990Y-70775582D01*
X128204755Y-70580968D01*
X128111859Y-70398650D01*
X128079474Y-70354077D01*
X128079474Y-70354076D01*
X127400000Y-71033551D01*
X127400000Y-71027339D01*
X127372741Y-70925606D01*
X127320080Y-70834394D01*
X127245606Y-70759920D01*
X127154394Y-70707259D01*
X127052661Y-70680000D01*
X127046446Y-70680000D01*
X127725922Y-70000524D01*
X127725921Y-70000523D01*
X127681359Y-69968147D01*
X127681350Y-69968141D01*
X127627621Y-69940765D01*
X127576825Y-69892791D01*
X127560030Y-69824970D01*
X127582567Y-69758835D01*
X127627621Y-69719795D01*
X127681610Y-69692287D01*
X127785411Y-69616872D01*
X127847213Y-69571971D01*
X127847215Y-69571968D01*
X127847219Y-69571966D01*
X127991966Y-69427219D01*
X127991968Y-69427215D01*
X127991971Y-69427213D01*
X128083223Y-69301613D01*
X128112287Y-69261610D01*
X128205220Y-69079219D01*
X128268477Y-68884534D01*
X128300500Y-68682352D01*
X128300500Y-68477648D01*
X128268477Y-68275465D01*
X128205218Y-68080776D01*
X128171503Y-68014607D01*
X128112287Y-67898390D01*
X128066314Y-67835113D01*
X127991971Y-67732786D01*
X127847213Y-67588028D01*
X127681613Y-67467715D01*
X127681612Y-67467714D01*
X127681610Y-67467713D01*
X127596800Y-67424500D01*
X127499223Y-67374781D01*
X127304534Y-67311522D01*
X127129995Y-67283878D01*
X127102352Y-67279500D01*
X126897648Y-67279500D01*
X126873329Y-67283351D01*
X126695465Y-67311522D01*
X126500776Y-67374781D01*
X126318386Y-67467715D01*
X126152786Y-67588028D01*
X126008028Y-67732786D01*
X125887715Y-67898386D01*
X125794781Y-68080776D01*
X125731522Y-68275465D01*
X125699500Y-68477648D01*
X125699500Y-68682351D01*
X125731522Y-68884534D01*
X125794781Y-69079223D01*
X125887715Y-69261613D01*
X126008028Y-69427213D01*
X126152786Y-69571971D01*
X126318385Y-69692284D01*
X126318387Y-69692285D01*
X126318390Y-69692287D01*
X126372378Y-69719795D01*
X126423174Y-69767769D01*
X126439969Y-69835590D01*
X126417432Y-69901725D01*
X126372378Y-69940765D01*
X126318644Y-69968143D01*
X126274077Y-70000523D01*
X126274077Y-70000524D01*
X126953554Y-70680000D01*
X126947339Y-70680000D01*
X126845606Y-70707259D01*
X126754394Y-70759920D01*
X126679920Y-70834394D01*
X126627259Y-70925606D01*
X126600000Y-71027339D01*
X126600000Y-71033553D01*
X125920524Y-70354077D01*
X125920523Y-70354077D01*
X125888143Y-70398644D01*
X125795244Y-70580970D01*
X125779276Y-70630115D01*
X125739838Y-70687791D01*
X125675480Y-70714989D01*
X125606633Y-70703074D01*
X125573664Y-70679478D01*
X123757819Y-68863633D01*
X123724334Y-68802310D01*
X123721500Y-68775952D01*
X123721500Y-68079168D01*
X123696502Y-67953501D01*
X123696501Y-67953500D01*
X123696501Y-67953496D01*
X123647465Y-67835113D01*
X123576277Y-67728571D01*
X123576275Y-67728569D01*
X123576273Y-67728566D01*
X120716819Y-64869112D01*
X120683334Y-64807789D01*
X120680500Y-64781431D01*
X120680500Y-64667648D01*
X120648477Y-64465465D01*
X120585218Y-64270776D01*
X120551503Y-64204607D01*
X120492287Y-64088390D01*
X120484556Y-64077749D01*
X120371971Y-63922786D01*
X120227213Y-63778028D01*
X120061613Y-63657715D01*
X120061612Y-63657714D01*
X120061610Y-63657713D01*
X120004653Y-63628691D01*
X119879223Y-63564781D01*
X119684534Y-63501522D01*
X119509995Y-63473878D01*
X119482352Y-63469500D01*
X119277648Y-63469500D01*
X119253329Y-63473351D01*
X119075465Y-63501522D01*
X118880776Y-63564781D01*
X118698386Y-63657715D01*
X118532786Y-63778028D01*
X118388028Y-63922786D01*
X118267715Y-64088386D01*
X118174781Y-64270776D01*
X118111522Y-64465465D01*
X118079500Y-64667648D01*
X113060500Y-64667648D01*
X113028477Y-64465466D01*
X113020092Y-64439661D01*
X112965218Y-64270776D01*
X112931503Y-64204607D01*
X112872287Y-64088390D01*
X112864556Y-64077749D01*
X112751971Y-63922786D01*
X112607213Y-63778028D01*
X112441613Y-63657715D01*
X112441612Y-63657714D01*
X112441610Y-63657713D01*
X112384653Y-63628691D01*
X112259223Y-63564781D01*
X112064534Y-63501522D01*
X111889995Y-63473878D01*
X111862352Y-63469500D01*
X111657648Y-63469500D01*
X111633329Y-63473351D01*
X111455465Y-63501522D01*
X111260776Y-63564781D01*
X111078386Y-63657715D01*
X110912786Y-63778028D01*
X110768028Y-63922786D01*
X110647715Y-64088386D01*
X110554781Y-64270776D01*
X110491522Y-64465465D01*
X110459500Y-64667648D01*
X109220500Y-64667648D01*
X109220500Y-60849778D01*
X115439500Y-60849778D01*
X115439500Y-61070221D01*
X115473985Y-61287952D01*
X115542103Y-61497603D01*
X115542104Y-61497606D01*
X115606517Y-61624021D01*
X115642049Y-61693756D01*
X115642187Y-61694025D01*
X115771752Y-61872358D01*
X115771756Y-61872363D01*
X115927636Y-62028243D01*
X115927641Y-62028247D01*
X116041632Y-62111065D01*
X116105978Y-62157815D01*
X116222487Y-62217180D01*
X116302393Y-62257895D01*
X116302396Y-62257896D01*
X116407221Y-62291955D01*
X116512049Y-62326015D01*
X116729778Y-62360500D01*
X116729779Y-62360500D01*
X116950221Y-62360500D01*
X116950222Y-62360500D01*
X117167951Y-62326015D01*
X117377606Y-62257895D01*
X117574022Y-62157815D01*
X117752365Y-62028242D01*
X117908242Y-61872365D01*
X118037815Y-61694022D01*
X118137895Y-61497606D01*
X118206015Y-61287951D01*
X118240500Y-61070222D01*
X118240500Y-60849778D01*
X118206015Y-60632049D01*
X118157375Y-60482349D01*
X118137896Y-60422396D01*
X118137895Y-60422393D01*
X118103237Y-60354375D01*
X118037815Y-60225978D01*
X118021260Y-60203192D01*
X117908247Y-60047641D01*
X117908243Y-60047636D01*
X117752363Y-59891756D01*
X117752358Y-59891752D01*
X117574025Y-59762187D01*
X117574024Y-59762186D01*
X117574022Y-59762185D01*
X117504438Y-59726730D01*
X117377606Y-59662104D01*
X117377603Y-59662103D01*
X117167952Y-59593985D01*
X117059086Y-59576742D01*
X116950222Y-59559500D01*
X116729778Y-59559500D01*
X116657201Y-59570995D01*
X116512047Y-59593985D01*
X116302396Y-59662103D01*
X116302393Y-59662104D01*
X116105974Y-59762187D01*
X115927641Y-59891752D01*
X115927636Y-59891756D01*
X115771756Y-60047636D01*
X115771752Y-60047641D01*
X115642187Y-60225974D01*
X115542104Y-60422393D01*
X115542103Y-60422396D01*
X115473985Y-60632047D01*
X115439500Y-60849778D01*
X109220500Y-60849778D01*
X109220500Y-58341648D01*
X122956200Y-58341648D01*
X122956200Y-58578351D01*
X122993229Y-58812142D01*
X122993229Y-58812145D01*
X123066372Y-59037256D01*
X123066374Y-59037259D01*
X123173835Y-59248163D01*
X123312966Y-59439660D01*
X123480340Y-59607034D01*
X123536022Y-59647489D01*
X123578687Y-59702818D01*
X123582546Y-59728993D01*
X124136510Y-60282957D01*
X124105073Y-60295979D01*
X123982349Y-60377980D01*
X123877980Y-60482349D01*
X123795979Y-60605073D01*
X123782957Y-60636510D01*
X123234977Y-60088530D01*
X123234976Y-60088530D01*
X123174263Y-60172097D01*
X123066838Y-60382928D01*
X122993715Y-60607975D01*
X122956700Y-60841682D01*
X122956700Y-61078317D01*
X122993715Y-61312024D01*
X123066838Y-61537071D01*
X123174260Y-61747897D01*
X123234977Y-61831468D01*
X123782956Y-61283488D01*
X123795979Y-61314927D01*
X123877980Y-61437651D01*
X123982349Y-61542020D01*
X124105073Y-61624021D01*
X124136509Y-61637042D01*
X123580282Y-62193269D01*
X123572389Y-62230842D01*
X123536023Y-62272509D01*
X123480340Y-62312965D01*
X123312968Y-62480337D01*
X123312968Y-62480338D01*
X123312966Y-62480340D01*
X123253214Y-62562580D01*
X123173835Y-62671836D01*
X123066372Y-62882743D01*
X122993229Y-63107854D01*
X122993229Y-63107857D01*
X122956200Y-63341648D01*
X122956200Y-63578351D01*
X122993229Y-63812142D01*
X122993229Y-63812145D01*
X123066372Y-64037256D01*
X123173835Y-64248163D01*
X123312966Y-64439660D01*
X123480340Y-64607034D01*
X123671837Y-64746165D01*
X123792781Y-64807789D01*
X123882743Y-64853627D01*
X124107855Y-64926770D01*
X124107856Y-64926770D01*
X124107859Y-64926771D01*
X124341648Y-64963800D01*
X124341649Y-64963800D01*
X124578351Y-64963800D01*
X124578352Y-64963800D01*
X124812141Y-64926771D01*
X124812144Y-64926770D01*
X124812145Y-64926770D01*
X125037256Y-64853627D01*
X125037256Y-64853626D01*
X125037259Y-64853626D01*
X125248163Y-64746165D01*
X125439660Y-64607034D01*
X125607034Y-64439660D01*
X125746165Y-64248163D01*
X125853626Y-64037259D01*
X125853627Y-64037256D01*
X125926770Y-63812145D01*
X125926770Y-63812144D01*
X125926771Y-63812141D01*
X125963800Y-63578352D01*
X125963800Y-63341648D01*
X125926771Y-63107859D01*
X125926770Y-63107855D01*
X125926770Y-63107854D01*
X125853627Y-62882743D01*
X125746164Y-62671836D01*
X125607034Y-62480340D01*
X125439660Y-62312966D01*
X125383976Y-62272509D01*
X125341311Y-62217180D01*
X125337452Y-62191005D01*
X124783489Y-61637042D01*
X124814927Y-61624021D01*
X124937651Y-61542020D01*
X125042020Y-61437651D01*
X125124021Y-61314927D01*
X125137042Y-61283490D01*
X125685021Y-61831469D01*
X125685021Y-61831468D01*
X125745737Y-61747901D01*
X125853161Y-61537071D01*
X125926284Y-61312024D01*
X125963300Y-61078317D01*
X125963300Y-60841682D01*
X125926284Y-60607975D01*
X125853161Y-60382928D01*
X125745735Y-60172094D01*
X125685022Y-60088530D01*
X125685021Y-60088529D01*
X125137042Y-60636508D01*
X125124021Y-60605073D01*
X125042020Y-60482349D01*
X124937651Y-60377980D01*
X124814927Y-60295979D01*
X124783488Y-60282956D01*
X125339715Y-59726730D01*
X125347608Y-59689161D01*
X125383976Y-59647490D01*
X125439660Y-59607034D01*
X125607034Y-59439660D01*
X125746165Y-59248163D01*
X125853626Y-59037259D01*
X125926771Y-58812141D01*
X125963800Y-58578352D01*
X125963800Y-58341648D01*
X125926771Y-58107859D01*
X125926770Y-58107855D01*
X125926770Y-58107854D01*
X125853627Y-57882743D01*
X125746164Y-57671836D01*
X125607034Y-57480340D01*
X125439660Y-57312966D01*
X125248163Y-57173835D01*
X125176938Y-57137544D01*
X125037256Y-57066372D01*
X124812144Y-56993229D01*
X124636799Y-56965457D01*
X124578352Y-56956200D01*
X124341648Y-56956200D01*
X124263718Y-56968543D01*
X124107857Y-56993229D01*
X124107854Y-56993229D01*
X123882743Y-57066372D01*
X123671836Y-57173835D01*
X123603070Y-57223797D01*
X123480340Y-57312966D01*
X123480338Y-57312968D01*
X123480337Y-57312968D01*
X123312968Y-57480337D01*
X123312968Y-57480338D01*
X123312966Y-57480340D01*
X123253214Y-57562580D01*
X123173835Y-57671836D01*
X123066372Y-57882743D01*
X122993229Y-58107854D01*
X122993229Y-58107857D01*
X122956200Y-58341648D01*
X109220500Y-58341648D01*
X109220500Y-55769818D01*
X115440000Y-55769818D01*
X115440000Y-55990181D01*
X115474473Y-56207835D01*
X115542567Y-56417410D01*
X115642611Y-56613756D01*
X115688932Y-56677513D01*
X116275387Y-56091058D01*
X116280889Y-56111591D01*
X116359881Y-56248408D01*
X116471592Y-56360119D01*
X116608409Y-56439111D01*
X116628939Y-56444612D01*
X116042485Y-57031065D01*
X116042485Y-57031066D01*
X116106243Y-57077388D01*
X116302589Y-57177432D01*
X116512164Y-57245526D01*
X116729819Y-57280000D01*
X116950181Y-57280000D01*
X117167835Y-57245526D01*
X117377410Y-57177432D01*
X117573760Y-57077386D01*
X117637513Y-57031066D01*
X117637514Y-57031066D01*
X117051059Y-56444612D01*
X117071591Y-56439111D01*
X117208408Y-56360119D01*
X117320119Y-56248408D01*
X117399111Y-56111591D01*
X117404612Y-56091060D01*
X117991066Y-56677514D01*
X117991066Y-56677513D01*
X118037386Y-56613760D01*
X118137432Y-56417410D01*
X118205526Y-56207835D01*
X118240000Y-55990181D01*
X118240000Y-55769818D01*
X118205526Y-55552164D01*
X118137432Y-55342589D01*
X118037388Y-55146243D01*
X117991066Y-55082485D01*
X117991065Y-55082485D01*
X117404612Y-55668939D01*
X117399111Y-55648409D01*
X117320119Y-55511592D01*
X117208408Y-55399881D01*
X117071591Y-55320889D01*
X117051057Y-55315387D01*
X117637513Y-54728932D01*
X117573756Y-54682611D01*
X117377410Y-54582567D01*
X117167835Y-54514473D01*
X116950181Y-54480000D01*
X116729819Y-54480000D01*
X116512164Y-54514473D01*
X116302589Y-54582567D01*
X116106233Y-54682616D01*
X116042485Y-54728931D01*
X116042485Y-54728932D01*
X116628940Y-55315387D01*
X116608409Y-55320889D01*
X116471592Y-55399881D01*
X116359881Y-55511592D01*
X116280889Y-55648409D01*
X116275387Y-55668940D01*
X115688932Y-55082485D01*
X115688931Y-55082485D01*
X115642616Y-55146233D01*
X115542567Y-55342589D01*
X115474473Y-55552164D01*
X115440000Y-55769818D01*
X109220500Y-55769818D01*
X109220500Y-49852135D01*
X115439500Y-49852135D01*
X115439500Y-51747870D01*
X115439501Y-51747876D01*
X115445908Y-51807483D01*
X115496202Y-51942328D01*
X115496206Y-51942335D01*
X115582452Y-52057544D01*
X115582455Y-52057547D01*
X115697664Y-52143793D01*
X115697671Y-52143797D01*
X115832517Y-52194091D01*
X115832516Y-52194091D01*
X115839444Y-52194835D01*
X115892127Y-52200500D01*
X117787872Y-52200499D01*
X117847483Y-52194091D01*
X117982331Y-52143796D01*
X118097546Y-52057546D01*
X118183796Y-51942331D01*
X118234091Y-51807483D01*
X118240500Y-51747873D01*
X118240499Y-49852128D01*
X118234091Y-49792517D01*
X118183796Y-49657669D01*
X118183795Y-49657668D01*
X118183793Y-49657664D01*
X118097547Y-49542455D01*
X118097544Y-49542452D01*
X117982335Y-49456206D01*
X117982328Y-49456202D01*
X117847482Y-49405908D01*
X117847483Y-49405908D01*
X117787883Y-49399501D01*
X117787881Y-49399500D01*
X117787873Y-49399500D01*
X117787864Y-49399500D01*
X115892129Y-49399500D01*
X115892123Y-49399501D01*
X115832516Y-49405908D01*
X115697671Y-49456202D01*
X115697664Y-49456206D01*
X115582455Y-49542452D01*
X115582452Y-49542455D01*
X115496206Y-49657664D01*
X115496202Y-49657671D01*
X115445908Y-49792517D01*
X115439501Y-49852116D01*
X115439501Y-49852123D01*
X115439500Y-49852135D01*
X109220500Y-49852135D01*
X109220500Y-48384500D01*
X109240185Y-48317461D01*
X109292989Y-48271706D01*
X109344500Y-48260500D01*
X129415500Y-48260500D01*
X129482539Y-48280185D01*
G37*
%TD.AperFunction*%
%TD*%
M02*
