M48
; DRILL file {KiCad 9.0.1} date 2026-01-07T21:01:05-0500
; FORMAT={-:-/ absolute / metric / decimal}
; #@! TF.CreationDate,2026-01-07T21:01:05-05:00
; #@! TF.GenerationSoftware,Kicad,Pcbnew,9.0.1
; #@! TF.FileFunction,Plated,1,2,PTH
FMAT,2
METRIC
; #@! TA.AperFunction,Plated,PTH,ViaDrill
T1C0.400
; #@! TA.AperFunction,Plated,PTH,ComponentDrill
T2C0.800
; #@! TA.AperFunction,Plated,PTH,ComponentDrill
T3C1.000
; #@! TA.AperFunction,Plated,PTH,ComponentDrill
T4C1.100
; #@! TA.AperFunction,Plated,PTH,ComponentDrill
T5C1.200
; #@! TA.AperFunction,Plated,PTH,ComponentDrill
T6C1.499
%
G90
G05
T1
X151.13Y-105.41
T2
X111.76Y-64.77
X111.76Y-88.9
X111.76Y-111.76
X119.38Y-64.77
X119.38Y-88.9
X119.38Y-111.76
X121.92Y-68.62
X121.92Y-71.12
X127.0Y-68.58
X127.0Y-71.08
X138.18Y-78.6
X138.19Y-83.82
X138.19Y-88.9
X145.8Y-78.6
X145.81Y-83.82
X145.81Y-88.9
X149.86Y-73.66
X151.13Y-66.04
X157.48Y-73.66
X158.75Y-66.04
T3
X146.05Y-101.6
X146.05Y-104.14
X146.05Y-106.68
X146.05Y-109.22
X146.05Y-111.76
X146.05Y-114.3
X146.05Y-116.84
X146.05Y-119.38
T4
X127.0Y-95.706
X127.0Y-98.246
X127.0Y-100.786
X127.0Y-103.326
X127.0Y-105.866
X127.0Y-108.406
X127.0Y-110.946
X127.0Y-113.486
X127.0Y-116.026
X127.0Y-118.566
X127.0Y-121.106
X127.0Y-123.646
X142.24Y-95.706
X142.24Y-98.246
X142.24Y-100.786
X142.24Y-103.326
X142.24Y-105.866
X142.24Y-108.406
X142.24Y-110.946
X142.24Y-113.486
X142.24Y-116.026
X142.24Y-118.566
X142.24Y-121.106
X142.24Y-123.646
T5
X111.76Y-81.28
X111.76Y-104.14
X116.84Y-50.8
X116.84Y-55.88
X116.84Y-60.96
X116.84Y-81.28
X116.84Y-104.14
X121.92Y-81.28
X121.92Y-104.14
X132.08Y-73.66
X137.16Y-73.66
X142.24Y-73.66
X144.78Y-55.88
X144.78Y-60.96
X144.78Y-66.04
X154.94Y-50.8
X154.94Y-55.88
X154.94Y-60.96
T6
X124.46Y-58.46
X124.46Y-60.96
X124.46Y-63.46
M30
