%TF.GenerationSoftware,KiCad,Pcbnew,9.0.1*%
%TF.CreationDate,2026-01-07T21:00:53-05:00*%
%TF.ProjectId,mouse-micro,6d6f7573-652d-46d6-9963-726f2e6b6963,rev?*%
%TF.SameCoordinates,Original*%
%TF.FileFunction,Copper,L1,Top*%
%TF.FilePolarity,Positive*%
%FSLAX46Y46*%
G04 Gerber Fmt 4.6, Leading zero omitted, Abs format (unit mm)*
G04 Created by KiCad (PCBNEW 9.0.1) date 2026-01-07 21:00:53*
%MOMM*%
%LPD*%
G01*
G04 APERTURE LIST*
%TA.AperFunction,ComponentPad*%
%ADD10C,1.600000*%
%TD*%
%TA.AperFunction,ComponentPad*%
%ADD11C,1.700000*%
%TD*%
%TA.AperFunction,ComponentPad*%
%ADD12R,1.700000X1.700000*%
%TD*%
%TA.AperFunction,ComponentPad*%
%ADD13R,1.600000X1.600000*%
%TD*%
%TA.AperFunction,ComponentPad*%
%ADD14R,1.800000X1.800000*%
%TD*%
%TA.AperFunction,ComponentPad*%
%ADD15C,1.800000*%
%TD*%
%TA.AperFunction,ComponentPad*%
%ADD16C,2.006600*%
%TD*%
%TA.AperFunction,SMDPad,CuDef*%
%ADD17R,2.006600X1.803400*%
%TD*%
%TA.AperFunction,ViaPad*%
%ADD18C,0.800000*%
%TD*%
%TA.AperFunction,Conductor*%
%ADD19C,0.300000*%
%TD*%
G04 APERTURE END LIST*
D10*
%TO.P,C2,1*%
%TO.N,GND*%
X127000000Y-71080000D03*
%TO.P,C2,2*%
%TO.N,Net-(U1-F4)*%
X127000000Y-68580000D03*
%TD*%
D11*
%TO.P,Sensor1,8,RST*%
%TO.N,unconnected-(Sensor1-RST-Pad8)*%
X146050000Y-119380000D03*
%TO.P,Sensor1,7,GND*%
%TO.N,GND*%
X146050000Y-116840000D03*
%TO.P,Sensor1,6,MT*%
%TO.N,unconnected-(Sensor1-MT-Pad6)*%
X146050000Y-114300000D03*
%TO.P,Sensor1,5,SS*%
%TO.N,/SS*%
X146050000Y-111760000D03*
%TO.P,Sensor1,4,SCK*%
%TO.N,/SCK*%
X146050000Y-109220000D03*
%TO.P,Sensor1,3,MOSI*%
%TO.N,/MOSI*%
X146050000Y-106680000D03*
%TO.P,Sensor1,2,MISO*%
%TO.N,/MISO*%
X146050000Y-104140000D03*
D12*
%TO.P,Sensor1,1,VIN*%
%TO.N,/5V Power*%
X146050000Y-101600000D03*
%TD*%
D10*
%TO.P,U1,24,RAW*%
%TO.N,unconnected-(U1-RAW-Pad24)*%
X127000000Y-95706087D03*
%TO.P,U1,23,GND*%
%TO.N,GND*%
X127000000Y-98246087D03*
%TO.P,U1,22,RST*%
%TO.N,unconnected-(U1-RST-Pad22)*%
X127000000Y-100786087D03*
%TO.P,U1,21,VCC*%
%TO.N,/5V Power*%
X127000000Y-103326087D03*
%TO.P,U1,20,F4*%
%TO.N,Net-(U1-F4)*%
X127000000Y-105866087D03*
%TO.P,U1,19,F5*%
%TO.N,Net-(U1-F5)*%
X127000000Y-108406087D03*
%TO.P,U1,18,F6*%
%TO.N,unconnected-(U1-F6-Pad18)*%
X127000000Y-110946087D03*
%TO.P,U1,17,F7*%
%TO.N,unconnected-(U1-F7-Pad17)*%
X127000000Y-113486087D03*
%TO.P,U1,16,B1*%
%TO.N,/SCK*%
X127000000Y-116026087D03*
%TO.P,U1,15,B3*%
%TO.N,/MISO*%
X127000000Y-118566087D03*
%TO.P,U1,14,B2*%
%TO.N,/MOSI*%
X127000000Y-121106087D03*
%TO.P,U1,13,B6*%
%TO.N,/SS*%
X127000000Y-123646087D03*
%TO.P,U1,12,B5*%
%TO.N,/IO 6*%
X142240000Y-123646087D03*
%TO.P,U1,11,B4*%
%TO.N,/IO 5*%
X142240000Y-121106087D03*
%TO.P,U1,10,E6*%
%TO.N,/IO 4*%
X142240000Y-118566087D03*
%TO.P,U1,9,D7*%
%TO.N,/IO 3*%
X142240000Y-116026087D03*
%TO.P,U1,8,C6*%
%TO.N,/IO 2*%
X142240000Y-113486087D03*
%TO.P,U1,7,D4*%
%TO.N,/IO 1*%
X142240000Y-110946087D03*
%TO.P,U1,6,SCL*%
%TO.N,unconnected-(U1-SCL-Pad6)*%
X142240000Y-108406087D03*
%TO.P,U1,5,SDA*%
%TO.N,unconnected-(U1-SDA-Pad5)*%
X142240000Y-105866087D03*
%TO.P,U1,4,GND*%
%TO.N,GND*%
X142240000Y-103326087D03*
%TO.P,U1,3,GND*%
X142240000Y-100786087D03*
%TO.P,U1,2,RX*%
%TO.N,unconnected-(U1-RX-Pad2)*%
X142240000Y-98246087D03*
D13*
%TO.P,U1,1,TX*%
%TO.N,unconnected-(U1-TX-Pad1)*%
X142240000Y-95706087D03*
%TD*%
D14*
%TO.P,SW6,1,1*%
%TO.N,/IO 6*%
X111760000Y-104140000D03*
D15*
%TO.P,SW6,2,2*%
%TO.N,GND*%
X116840000Y-104140000D03*
%TO.P,SW6,3*%
%TO.N,N/C*%
X121920000Y-104140000D03*
%TD*%
D14*
%TO.P,SW3,1,1*%
%TO.N,/IO 3*%
X144780000Y-55880000D03*
D15*
%TO.P,SW3,2,2*%
%TO.N,GND*%
X144780000Y-60960000D03*
%TO.P,SW3,3*%
%TO.N,N/C*%
X144780000Y-66040000D03*
%TD*%
D10*
%TO.P,R8,1*%
%TO.N,Net-(U1-F4)*%
X138190000Y-83820000D03*
%TO.P,R8,2*%
%TO.N,/5V Power*%
X145810000Y-83820000D03*
%TD*%
D14*
%TO.P,SW2,1,1*%
%TO.N,/IO 2*%
X116840000Y-50800000D03*
D15*
%TO.P,SW2,2,2*%
%TO.N,GND*%
X116840000Y-55880000D03*
%TO.P,SW2,3*%
%TO.N,N/C*%
X116840000Y-60960000D03*
%TD*%
D10*
%TO.P,R3,1*%
%TO.N,/5V Power*%
X157480000Y-73660000D03*
%TO.P,R3,2*%
%TO.N,/IO 3*%
X149860000Y-73660000D03*
%TD*%
%TO.P,R4,1*%
%TO.N,/5V Power*%
X145800000Y-78600000D03*
%TO.P,R4,2*%
%TO.N,/IO 4*%
X138180000Y-78600000D03*
%TD*%
D14*
%TO.P,SW5,1,1*%
%TO.N,/IO 5*%
X111760000Y-81280000D03*
D15*
%TO.P,SW5,2,2*%
%TO.N,GND*%
X116840000Y-81280000D03*
%TO.P,SW5,3*%
%TO.N,N/C*%
X121920000Y-81280000D03*
%TD*%
D14*
%TO.P,SW4,1,1*%
%TO.N,/IO 4*%
X132080000Y-73660000D03*
D15*
%TO.P,SW4,2,2*%
%TO.N,GND*%
X137160000Y-73660000D03*
%TO.P,SW4,3*%
%TO.N,N/C*%
X142240000Y-73660000D03*
%TD*%
D16*
%TO.P,J1,1,1*%
%TO.N,Net-(U1-F4)*%
X124460000Y-63460000D03*
%TO.P,J1,2,2*%
%TO.N,GND*%
X124460000Y-60960000D03*
%TO.P,J1,3,3*%
%TO.N,Net-(U1-F5)*%
X124460000Y-58460000D03*
D17*
%TO.P,J1,4*%
%TO.N,N/C*%
X126460001Y-65459999D03*
%TO.P,J1,5*%
X126460001Y-56460001D03*
%TD*%
D10*
%TO.P,R6,1*%
%TO.N,/5V Power*%
X119380000Y-111760000D03*
%TO.P,R6,2*%
%TO.N,/IO 6*%
X111760000Y-111760000D03*
%TD*%
D14*
%TO.P,SW1,1,1*%
%TO.N,/IO 1*%
X154940000Y-50800000D03*
D15*
%TO.P,SW1,2,2*%
%TO.N,GND*%
X154940000Y-55880000D03*
%TO.P,SW1,3*%
%TO.N,N/C*%
X154940000Y-60960000D03*
%TD*%
D10*
%TO.P,R5,1*%
%TO.N,/5V Power*%
X119380000Y-88900000D03*
%TO.P,R5,2*%
%TO.N,/IO 5*%
X111760000Y-88900000D03*
%TD*%
%TO.P,R7,1*%
%TO.N,Net-(U1-F5)*%
X138190000Y-88900000D03*
%TO.P,R7,2*%
%TO.N,/5V Power*%
X145810000Y-88900000D03*
%TD*%
%TO.P,R2,1*%
%TO.N,/5V Power*%
X119380000Y-64770000D03*
%TO.P,R2,2*%
%TO.N,/IO 2*%
X111760000Y-64770000D03*
%TD*%
%TO.P,C1,1*%
%TO.N,Net-(U1-F5)*%
X121920000Y-68620000D03*
%TO.P,C1,2*%
%TO.N,GND*%
X121920000Y-71120000D03*
%TD*%
%TO.P,R1,1*%
%TO.N,/5V Power*%
X158750000Y-66040000D03*
%TO.P,R1,2*%
%TO.N,/IO 1*%
X151130000Y-66040000D03*
%TD*%
D18*
%TO.N,/IO 1*%
X151130000Y-105410000D03*
%TD*%
D19*
%TO.N,/5V Power*%
X119380000Y-110946087D02*
X119380000Y-111760000D01*
X127000000Y-103326087D02*
X119380000Y-110946087D01*
%TO.N,/IO 1*%
X151130000Y-105410000D02*
X151130000Y-66040000D01*
%TO.N,/IO 4*%
X143391000Y-83811000D02*
X138180000Y-78600000D01*
X143391000Y-114166567D02*
X143391000Y-83811000D01*
X142682480Y-114875087D02*
X143391000Y-114166567D01*
X141089000Y-115549327D02*
X141763240Y-114875087D01*
X141763240Y-114875087D02*
X142682480Y-114875087D01*
X142240000Y-118566087D02*
X141089000Y-117415087D01*
X141089000Y-117415087D02*
X141089000Y-115549327D01*
%TO.N,/IO 2*%
X128151000Y-81161000D02*
X111760000Y-64770000D01*
X128151000Y-99397087D02*
X128151000Y-81161000D01*
X142240000Y-113486087D02*
X128151000Y-99397087D01*
%TO.N,/IO 5*%
X122257087Y-99397087D02*
X111760000Y-88900000D01*
X127238760Y-99397087D02*
X122257087Y-99397087D01*
X128151000Y-100309327D02*
X127238760Y-99397087D01*
X128151000Y-107017087D02*
X128151000Y-100309327D01*
X142240000Y-121106087D02*
X128151000Y-107017087D01*
%TO.N,/IO 3*%
X149860000Y-109648471D02*
X149860000Y-73660000D01*
X146547471Y-112961000D02*
X149860000Y-109648471D01*
X145305087Y-112961000D02*
X146547471Y-112961000D01*
X142240000Y-116026087D02*
X145305087Y-112961000D01*
%TO.N,/IO 6*%
X117415087Y-117415087D02*
X111760000Y-111760000D01*
X136009000Y-117415087D02*
X117415087Y-117415087D01*
X142240000Y-123646087D02*
X136009000Y-117415087D01*
%TO.N,Net-(U1-F5)*%
X121920000Y-68620000D02*
X121920000Y-61000000D01*
X137039000Y-83739000D02*
X121920000Y-68620000D01*
X137039000Y-87749000D02*
X137039000Y-83739000D01*
X138190000Y-88900000D02*
X137039000Y-87749000D01*
X121920000Y-61000000D02*
X124460000Y-58460000D01*
%TO.N,Net-(U1-F4)*%
X124460000Y-66040000D02*
X124460000Y-63460000D01*
X130829000Y-72409000D02*
X127000000Y-68580000D01*
X130829000Y-76459000D02*
X130829000Y-72409000D01*
X127000000Y-68580000D02*
X124460000Y-66040000D01*
X138190000Y-83820000D02*
X130829000Y-76459000D01*
%TO.N,/IO 1*%
X151130000Y-54610000D02*
X154940000Y-50800000D01*
X151130000Y-66040000D02*
X151130000Y-54610000D01*
%TO.N,/IO 2*%
X111760000Y-64770000D02*
X111760000Y-55880000D01*
X111760000Y-55880000D02*
X116840000Y-50800000D01*
%TO.N,/IO 4*%
X137020000Y-78600000D02*
X132080000Y-73660000D01*
X138180000Y-78600000D02*
X137020000Y-78600000D01*
%TO.N,/IO 5*%
X111760000Y-81280000D02*
X111760000Y-88900000D01*
%TO.N,/IO 6*%
X111760000Y-104140000D02*
X111760000Y-111760000D01*
%TO.N,/IO 3*%
X144780000Y-55880000D02*
X149860000Y-60960000D01*
X149860000Y-60960000D02*
X149860000Y-73660000D01*
%TD*%
M02*
