%TF.GenerationSoftware,KiCad,Pcbnew,9.0.1*%
%TF.CreationDate,2026-01-07T21:00:54-05:00*%
%TF.ProjectId,mouse-micro,6d6f7573-652d-46d6-9963-726f2e6b6963,rev?*%
%TF.SameCoordinates,Original*%
%TF.FileFunction,Legend,Bot*%
%TF.FilePolarity,Positive*%
%FSLAX46Y46*%
G04 Gerber Fmt 4.6, Leading zero omitted, Abs format (unit mm)*
G04 Created by KiCad (PCBNEW 9.0.1) date 2026-01-07 21:00:54*
%MOMM*%
%LPD*%
G01*
G04 APERTURE LIST*
%ADD10C,0.100000*%
%ADD11C,0.150000*%
%ADD12C,0.508000*%
%ADD13C,1.600000*%
%ADD14R,1.600000X1.600000*%
G04 APERTURE END LIST*
D10*
%TO.C,Sensor1*%
X156480000Y-98520000D02*
G75*
G02*
X154080000Y-98520000I-1200000J0D01*
G01*
X154080000Y-98520000D02*
G75*
G02*
X156480000Y-98520000I1200000J0D01*
G01*
X156480000Y-122620000D02*
G75*
G02*
X154080000Y-122620000I-1200000J0D01*
G01*
X154080000Y-122620000D02*
G75*
G02*
X156480000Y-122620000I1200000J0D01*
G01*
X144780000Y-120620000D02*
X147320000Y-120620000D01*
X147320000Y-100520000D01*
X144780000Y-100520000D01*
X144780000Y-120620000D01*
X144780000Y-124620000D02*
X165780000Y-124620000D01*
X165780000Y-96520000D01*
X144780000Y-96520000D01*
X144780000Y-124620000D01*
D11*
%TO.C,U1*%
X125730000Y-124916087D02*
X143510000Y-124916087D01*
X125730000Y-94436087D02*
X125730000Y-124916087D01*
X130810000Y-94436087D02*
X125730000Y-94436087D01*
X130810000Y-91896087D02*
X130810000Y-94436087D01*
X138430000Y-94436087D02*
X138430000Y-91896087D01*
X138430000Y-91896087D02*
X130810000Y-91896087D01*
X143510000Y-94436087D02*
X138430000Y-94436087D01*
X143510000Y-94436087D02*
X143510000Y-124916087D01*
D12*
%TO.C,J1*%
X124841000Y-66624200D02*
G75*
G02*
X124079000Y-66624200I-381000J0D01*
G01*
X124079000Y-66624200D02*
G75*
G02*
X124841000Y-66624200I381000J0D01*
G01*
%TD*%
D13*
%TO.C,U1*%
X127000000Y-95706087D03*
X127000000Y-98246087D03*
X127000000Y-100786087D03*
X127000000Y-103326087D03*
X127000000Y-105866087D03*
X127000000Y-108406087D03*
X127000000Y-110946087D03*
X127000000Y-113486087D03*
X127000000Y-116026087D03*
X127000000Y-118566087D03*
X127000000Y-121106087D03*
X127000000Y-123646087D03*
X142240000Y-123646087D03*
X142240000Y-121106087D03*
X142240000Y-118566087D03*
X142240000Y-116026087D03*
X142240000Y-113486087D03*
X142240000Y-110946087D03*
X142240000Y-108406087D03*
X142240000Y-105866087D03*
X142240000Y-103326087D03*
X142240000Y-100786087D03*
X142240000Y-98246087D03*
D14*
X142240000Y-95706087D03*
%TD*%
M02*
