%TF.GenerationSoftware,KiCad,Pcbnew,9.0.1*%
%TF.CreationDate,2026-01-07T21:00:54-05:00*%
%TF.ProjectId,mouse-micro,6d6f7573-652d-46d6-9963-726f2e6b6963,rev?*%
%TF.SameCoordinates,Original*%
%TF.FileFunction,Legend,Top*%
%TF.FilePolarity,Positive*%
%FSLAX46Y46*%
G04 Gerber Fmt 4.6, Leading zero omitted, Abs format (unit mm)*
G04 Created by KiCad (PCBNEW 9.0.1) date 2026-01-07 21:00:54*
%MOMM*%
%LPD*%
G01*
G04 APERTURE LIST*
%ADD10C,0.150000*%
%ADD11C,0.120000*%
%ADD12C,0.127000*%
%ADD13C,0.200000*%
%ADD14C,0.152400*%
%ADD15C,0.508000*%
%ADD16C,0.000000*%
G04 APERTURE END LIST*
D10*
X126089580Y-75096666D02*
X126137200Y-75144285D01*
X126137200Y-75144285D02*
X126184819Y-75287142D01*
X126184819Y-75287142D02*
X126184819Y-75382380D01*
X126184819Y-75382380D02*
X126137200Y-75525237D01*
X126137200Y-75525237D02*
X126041961Y-75620475D01*
X126041961Y-75620475D02*
X125946723Y-75668094D01*
X125946723Y-75668094D02*
X125756247Y-75715713D01*
X125756247Y-75715713D02*
X125613390Y-75715713D01*
X125613390Y-75715713D02*
X125422914Y-75668094D01*
X125422914Y-75668094D02*
X125327676Y-75620475D01*
X125327676Y-75620475D02*
X125232438Y-75525237D01*
X125232438Y-75525237D02*
X125184819Y-75382380D01*
X125184819Y-75382380D02*
X125184819Y-75287142D01*
X125184819Y-75287142D02*
X125232438Y-75144285D01*
X125232438Y-75144285D02*
X125280057Y-75096666D01*
X125280057Y-74715713D02*
X125232438Y-74668094D01*
X125232438Y-74668094D02*
X125184819Y-74572856D01*
X125184819Y-74572856D02*
X125184819Y-74334761D01*
X125184819Y-74334761D02*
X125232438Y-74239523D01*
X125232438Y-74239523D02*
X125280057Y-74191904D01*
X125280057Y-74191904D02*
X125375295Y-74144285D01*
X125375295Y-74144285D02*
X125470533Y-74144285D01*
X125470533Y-74144285D02*
X125613390Y-74191904D01*
X125613390Y-74191904D02*
X126184819Y-74763332D01*
X126184819Y-74763332D02*
X126184819Y-74144285D01*
X112331667Y-100102200D02*
X112474524Y-100149819D01*
X112474524Y-100149819D02*
X112712619Y-100149819D01*
X112712619Y-100149819D02*
X112807857Y-100102200D01*
X112807857Y-100102200D02*
X112855476Y-100054580D01*
X112855476Y-100054580D02*
X112903095Y-99959342D01*
X112903095Y-99959342D02*
X112903095Y-99864104D01*
X112903095Y-99864104D02*
X112855476Y-99768866D01*
X112855476Y-99768866D02*
X112807857Y-99721247D01*
X112807857Y-99721247D02*
X112712619Y-99673628D01*
X112712619Y-99673628D02*
X112522143Y-99626009D01*
X112522143Y-99626009D02*
X112426905Y-99578390D01*
X112426905Y-99578390D02*
X112379286Y-99530771D01*
X112379286Y-99530771D02*
X112331667Y-99435533D01*
X112331667Y-99435533D02*
X112331667Y-99340295D01*
X112331667Y-99340295D02*
X112379286Y-99245057D01*
X112379286Y-99245057D02*
X112426905Y-99197438D01*
X112426905Y-99197438D02*
X112522143Y-99149819D01*
X112522143Y-99149819D02*
X112760238Y-99149819D01*
X112760238Y-99149819D02*
X112903095Y-99197438D01*
X113236429Y-99149819D02*
X113474524Y-100149819D01*
X113474524Y-100149819D02*
X113665000Y-99435533D01*
X113665000Y-99435533D02*
X113855476Y-100149819D01*
X113855476Y-100149819D02*
X114093572Y-99149819D01*
X114903095Y-99149819D02*
X114712619Y-99149819D01*
X114712619Y-99149819D02*
X114617381Y-99197438D01*
X114617381Y-99197438D02*
X114569762Y-99245057D01*
X114569762Y-99245057D02*
X114474524Y-99387914D01*
X114474524Y-99387914D02*
X114426905Y-99578390D01*
X114426905Y-99578390D02*
X114426905Y-99959342D01*
X114426905Y-99959342D02*
X114474524Y-100054580D01*
X114474524Y-100054580D02*
X114522143Y-100102200D01*
X114522143Y-100102200D02*
X114617381Y-100149819D01*
X114617381Y-100149819D02*
X114807857Y-100149819D01*
X114807857Y-100149819D02*
X114903095Y-100102200D01*
X114903095Y-100102200D02*
X114950714Y-100054580D01*
X114950714Y-100054580D02*
X114998333Y-99959342D01*
X114998333Y-99959342D02*
X114998333Y-99721247D01*
X114998333Y-99721247D02*
X114950714Y-99626009D01*
X114950714Y-99626009D02*
X114903095Y-99578390D01*
X114903095Y-99578390D02*
X114807857Y-99530771D01*
X114807857Y-99530771D02*
X114617381Y-99530771D01*
X114617381Y-99530771D02*
X114522143Y-99578390D01*
X114522143Y-99578390D02*
X114474524Y-99626009D01*
X114474524Y-99626009D02*
X114426905Y-99721247D01*
X149632200Y-59118332D02*
X149679819Y-58975475D01*
X149679819Y-58975475D02*
X149679819Y-58737380D01*
X149679819Y-58737380D02*
X149632200Y-58642142D01*
X149632200Y-58642142D02*
X149584580Y-58594523D01*
X149584580Y-58594523D02*
X149489342Y-58546904D01*
X149489342Y-58546904D02*
X149394104Y-58546904D01*
X149394104Y-58546904D02*
X149298866Y-58594523D01*
X149298866Y-58594523D02*
X149251247Y-58642142D01*
X149251247Y-58642142D02*
X149203628Y-58737380D01*
X149203628Y-58737380D02*
X149156009Y-58927856D01*
X149156009Y-58927856D02*
X149108390Y-59023094D01*
X149108390Y-59023094D02*
X149060771Y-59070713D01*
X149060771Y-59070713D02*
X148965533Y-59118332D01*
X148965533Y-59118332D02*
X148870295Y-59118332D01*
X148870295Y-59118332D02*
X148775057Y-59070713D01*
X148775057Y-59070713D02*
X148727438Y-59023094D01*
X148727438Y-59023094D02*
X148679819Y-58927856D01*
X148679819Y-58927856D02*
X148679819Y-58689761D01*
X148679819Y-58689761D02*
X148727438Y-58546904D01*
X148679819Y-58213570D02*
X149679819Y-57975475D01*
X149679819Y-57975475D02*
X148965533Y-57784999D01*
X148965533Y-57784999D02*
X149679819Y-57594523D01*
X149679819Y-57594523D02*
X148679819Y-57356428D01*
X148679819Y-57070713D02*
X148679819Y-56451666D01*
X148679819Y-56451666D02*
X149060771Y-56784999D01*
X149060771Y-56784999D02*
X149060771Y-56642142D01*
X149060771Y-56642142D02*
X149108390Y-56546904D01*
X149108390Y-56546904D02*
X149156009Y-56499285D01*
X149156009Y-56499285D02*
X149251247Y-56451666D01*
X149251247Y-56451666D02*
X149489342Y-56451666D01*
X149489342Y-56451666D02*
X149584580Y-56499285D01*
X149584580Y-56499285D02*
X149632200Y-56546904D01*
X149632200Y-56546904D02*
X149679819Y-56642142D01*
X149679819Y-56642142D02*
X149679819Y-56927856D01*
X149679819Y-56927856D02*
X149632200Y-57023094D01*
X149632200Y-57023094D02*
X149584580Y-57070713D01*
X141833333Y-81904819D02*
X141500000Y-81428628D01*
X141261905Y-81904819D02*
X141261905Y-80904819D01*
X141261905Y-80904819D02*
X141642857Y-80904819D01*
X141642857Y-80904819D02*
X141738095Y-80952438D01*
X141738095Y-80952438D02*
X141785714Y-81000057D01*
X141785714Y-81000057D02*
X141833333Y-81095295D01*
X141833333Y-81095295D02*
X141833333Y-81238152D01*
X141833333Y-81238152D02*
X141785714Y-81333390D01*
X141785714Y-81333390D02*
X141738095Y-81381009D01*
X141738095Y-81381009D02*
X141642857Y-81428628D01*
X141642857Y-81428628D02*
X141261905Y-81428628D01*
X142404762Y-81333390D02*
X142309524Y-81285771D01*
X142309524Y-81285771D02*
X142261905Y-81238152D01*
X142261905Y-81238152D02*
X142214286Y-81142914D01*
X142214286Y-81142914D02*
X142214286Y-81095295D01*
X142214286Y-81095295D02*
X142261905Y-81000057D01*
X142261905Y-81000057D02*
X142309524Y-80952438D01*
X142309524Y-80952438D02*
X142404762Y-80904819D01*
X142404762Y-80904819D02*
X142595238Y-80904819D01*
X142595238Y-80904819D02*
X142690476Y-80952438D01*
X142690476Y-80952438D02*
X142738095Y-81000057D01*
X142738095Y-81000057D02*
X142785714Y-81095295D01*
X142785714Y-81095295D02*
X142785714Y-81142914D01*
X142785714Y-81142914D02*
X142738095Y-81238152D01*
X142738095Y-81238152D02*
X142690476Y-81285771D01*
X142690476Y-81285771D02*
X142595238Y-81333390D01*
X142595238Y-81333390D02*
X142404762Y-81333390D01*
X142404762Y-81333390D02*
X142309524Y-81381009D01*
X142309524Y-81381009D02*
X142261905Y-81428628D01*
X142261905Y-81428628D02*
X142214286Y-81523866D01*
X142214286Y-81523866D02*
X142214286Y-81714342D01*
X142214286Y-81714342D02*
X142261905Y-81809580D01*
X142261905Y-81809580D02*
X142309524Y-81857200D01*
X142309524Y-81857200D02*
X142404762Y-81904819D01*
X142404762Y-81904819D02*
X142595238Y-81904819D01*
X142595238Y-81904819D02*
X142690476Y-81857200D01*
X142690476Y-81857200D02*
X142738095Y-81809580D01*
X142738095Y-81809580D02*
X142785714Y-81714342D01*
X142785714Y-81714342D02*
X142785714Y-81523866D01*
X142785714Y-81523866D02*
X142738095Y-81428628D01*
X142738095Y-81428628D02*
X142690476Y-81381009D01*
X142690476Y-81381009D02*
X142595238Y-81333390D01*
X121692200Y-54038332D02*
X121739819Y-53895475D01*
X121739819Y-53895475D02*
X121739819Y-53657380D01*
X121739819Y-53657380D02*
X121692200Y-53562142D01*
X121692200Y-53562142D02*
X121644580Y-53514523D01*
X121644580Y-53514523D02*
X121549342Y-53466904D01*
X121549342Y-53466904D02*
X121454104Y-53466904D01*
X121454104Y-53466904D02*
X121358866Y-53514523D01*
X121358866Y-53514523D02*
X121311247Y-53562142D01*
X121311247Y-53562142D02*
X121263628Y-53657380D01*
X121263628Y-53657380D02*
X121216009Y-53847856D01*
X121216009Y-53847856D02*
X121168390Y-53943094D01*
X121168390Y-53943094D02*
X121120771Y-53990713D01*
X121120771Y-53990713D02*
X121025533Y-54038332D01*
X121025533Y-54038332D02*
X120930295Y-54038332D01*
X120930295Y-54038332D02*
X120835057Y-53990713D01*
X120835057Y-53990713D02*
X120787438Y-53943094D01*
X120787438Y-53943094D02*
X120739819Y-53847856D01*
X120739819Y-53847856D02*
X120739819Y-53609761D01*
X120739819Y-53609761D02*
X120787438Y-53466904D01*
X120739819Y-53133570D02*
X121739819Y-52895475D01*
X121739819Y-52895475D02*
X121025533Y-52704999D01*
X121025533Y-52704999D02*
X121739819Y-52514523D01*
X121739819Y-52514523D02*
X120739819Y-52276428D01*
X120835057Y-51943094D02*
X120787438Y-51895475D01*
X120787438Y-51895475D02*
X120739819Y-51800237D01*
X120739819Y-51800237D02*
X120739819Y-51562142D01*
X120739819Y-51562142D02*
X120787438Y-51466904D01*
X120787438Y-51466904D02*
X120835057Y-51419285D01*
X120835057Y-51419285D02*
X120930295Y-51371666D01*
X120930295Y-51371666D02*
X121025533Y-51371666D01*
X121025533Y-51371666D02*
X121168390Y-51419285D01*
X121168390Y-51419285D02*
X121739819Y-51990713D01*
X121739819Y-51990713D02*
X121739819Y-51371666D01*
X153503333Y-76484819D02*
X153170000Y-76008628D01*
X152931905Y-76484819D02*
X152931905Y-75484819D01*
X152931905Y-75484819D02*
X153312857Y-75484819D01*
X153312857Y-75484819D02*
X153408095Y-75532438D01*
X153408095Y-75532438D02*
X153455714Y-75580057D01*
X153455714Y-75580057D02*
X153503333Y-75675295D01*
X153503333Y-75675295D02*
X153503333Y-75818152D01*
X153503333Y-75818152D02*
X153455714Y-75913390D01*
X153455714Y-75913390D02*
X153408095Y-75961009D01*
X153408095Y-75961009D02*
X153312857Y-76008628D01*
X153312857Y-76008628D02*
X152931905Y-76008628D01*
X153836667Y-75484819D02*
X154455714Y-75484819D01*
X154455714Y-75484819D02*
X154122381Y-75865771D01*
X154122381Y-75865771D02*
X154265238Y-75865771D01*
X154265238Y-75865771D02*
X154360476Y-75913390D01*
X154360476Y-75913390D02*
X154408095Y-75961009D01*
X154408095Y-75961009D02*
X154455714Y-76056247D01*
X154455714Y-76056247D02*
X154455714Y-76294342D01*
X154455714Y-76294342D02*
X154408095Y-76389580D01*
X154408095Y-76389580D02*
X154360476Y-76437200D01*
X154360476Y-76437200D02*
X154265238Y-76484819D01*
X154265238Y-76484819D02*
X153979524Y-76484819D01*
X153979524Y-76484819D02*
X153884286Y-76437200D01*
X153884286Y-76437200D02*
X153836667Y-76389580D01*
X112331667Y-77242200D02*
X112474524Y-77289819D01*
X112474524Y-77289819D02*
X112712619Y-77289819D01*
X112712619Y-77289819D02*
X112807857Y-77242200D01*
X112807857Y-77242200D02*
X112855476Y-77194580D01*
X112855476Y-77194580D02*
X112903095Y-77099342D01*
X112903095Y-77099342D02*
X112903095Y-77004104D01*
X112903095Y-77004104D02*
X112855476Y-76908866D01*
X112855476Y-76908866D02*
X112807857Y-76861247D01*
X112807857Y-76861247D02*
X112712619Y-76813628D01*
X112712619Y-76813628D02*
X112522143Y-76766009D01*
X112522143Y-76766009D02*
X112426905Y-76718390D01*
X112426905Y-76718390D02*
X112379286Y-76670771D01*
X112379286Y-76670771D02*
X112331667Y-76575533D01*
X112331667Y-76575533D02*
X112331667Y-76480295D01*
X112331667Y-76480295D02*
X112379286Y-76385057D01*
X112379286Y-76385057D02*
X112426905Y-76337438D01*
X112426905Y-76337438D02*
X112522143Y-76289819D01*
X112522143Y-76289819D02*
X112760238Y-76289819D01*
X112760238Y-76289819D02*
X112903095Y-76337438D01*
X113236429Y-76289819D02*
X113474524Y-77289819D01*
X113474524Y-77289819D02*
X113665000Y-76575533D01*
X113665000Y-76575533D02*
X113855476Y-77289819D01*
X113855476Y-77289819D02*
X114093572Y-76289819D01*
X114950714Y-76289819D02*
X114474524Y-76289819D01*
X114474524Y-76289819D02*
X114426905Y-76766009D01*
X114426905Y-76766009D02*
X114474524Y-76718390D01*
X114474524Y-76718390D02*
X114569762Y-76670771D01*
X114569762Y-76670771D02*
X114807857Y-76670771D01*
X114807857Y-76670771D02*
X114903095Y-76718390D01*
X114903095Y-76718390D02*
X114950714Y-76766009D01*
X114950714Y-76766009D02*
X114998333Y-76861247D01*
X114998333Y-76861247D02*
X114998333Y-77099342D01*
X114998333Y-77099342D02*
X114950714Y-77194580D01*
X114950714Y-77194580D02*
X114903095Y-77242200D01*
X114903095Y-77242200D02*
X114807857Y-77289819D01*
X114807857Y-77289819D02*
X114569762Y-77289819D01*
X114569762Y-77289819D02*
X114474524Y-77242200D01*
X114474524Y-77242200D02*
X114426905Y-77194580D01*
X134556667Y-70257200D02*
X134699524Y-70304819D01*
X134699524Y-70304819D02*
X134937619Y-70304819D01*
X134937619Y-70304819D02*
X135032857Y-70257200D01*
X135032857Y-70257200D02*
X135080476Y-70209580D01*
X135080476Y-70209580D02*
X135128095Y-70114342D01*
X135128095Y-70114342D02*
X135128095Y-70019104D01*
X135128095Y-70019104D02*
X135080476Y-69923866D01*
X135080476Y-69923866D02*
X135032857Y-69876247D01*
X135032857Y-69876247D02*
X134937619Y-69828628D01*
X134937619Y-69828628D02*
X134747143Y-69781009D01*
X134747143Y-69781009D02*
X134651905Y-69733390D01*
X134651905Y-69733390D02*
X134604286Y-69685771D01*
X134604286Y-69685771D02*
X134556667Y-69590533D01*
X134556667Y-69590533D02*
X134556667Y-69495295D01*
X134556667Y-69495295D02*
X134604286Y-69400057D01*
X134604286Y-69400057D02*
X134651905Y-69352438D01*
X134651905Y-69352438D02*
X134747143Y-69304819D01*
X134747143Y-69304819D02*
X134985238Y-69304819D01*
X134985238Y-69304819D02*
X135128095Y-69352438D01*
X135461429Y-69304819D02*
X135699524Y-70304819D01*
X135699524Y-70304819D02*
X135890000Y-69590533D01*
X135890000Y-69590533D02*
X136080476Y-70304819D01*
X136080476Y-70304819D02*
X136318572Y-69304819D01*
X137128095Y-69638152D02*
X137128095Y-70304819D01*
X136890000Y-69257200D02*
X136651905Y-69971485D01*
X136651905Y-69971485D02*
X137270952Y-69971485D01*
X123914819Y-61293333D02*
X124629104Y-61293333D01*
X124629104Y-61293333D02*
X124771961Y-61340952D01*
X124771961Y-61340952D02*
X124867200Y-61436190D01*
X124867200Y-61436190D02*
X124914819Y-61579047D01*
X124914819Y-61579047D02*
X124914819Y-61674285D01*
X124914819Y-60293333D02*
X124914819Y-60864761D01*
X124914819Y-60579047D02*
X123914819Y-60579047D01*
X123914819Y-60579047D02*
X124057676Y-60674285D01*
X124057676Y-60674285D02*
X124152914Y-60769523D01*
X124152914Y-60769523D02*
X124200533Y-60864761D01*
X115403333Y-114584819D02*
X115070000Y-114108628D01*
X114831905Y-114584819D02*
X114831905Y-113584819D01*
X114831905Y-113584819D02*
X115212857Y-113584819D01*
X115212857Y-113584819D02*
X115308095Y-113632438D01*
X115308095Y-113632438D02*
X115355714Y-113680057D01*
X115355714Y-113680057D02*
X115403333Y-113775295D01*
X115403333Y-113775295D02*
X115403333Y-113918152D01*
X115403333Y-113918152D02*
X115355714Y-114013390D01*
X115355714Y-114013390D02*
X115308095Y-114061009D01*
X115308095Y-114061009D02*
X115212857Y-114108628D01*
X115212857Y-114108628D02*
X114831905Y-114108628D01*
X116260476Y-113584819D02*
X116070000Y-113584819D01*
X116070000Y-113584819D02*
X115974762Y-113632438D01*
X115974762Y-113632438D02*
X115927143Y-113680057D01*
X115927143Y-113680057D02*
X115831905Y-113822914D01*
X115831905Y-113822914D02*
X115784286Y-114013390D01*
X115784286Y-114013390D02*
X115784286Y-114394342D01*
X115784286Y-114394342D02*
X115831905Y-114489580D01*
X115831905Y-114489580D02*
X115879524Y-114537200D01*
X115879524Y-114537200D02*
X115974762Y-114584819D01*
X115974762Y-114584819D02*
X116165238Y-114584819D01*
X116165238Y-114584819D02*
X116260476Y-114537200D01*
X116260476Y-114537200D02*
X116308095Y-114489580D01*
X116308095Y-114489580D02*
X116355714Y-114394342D01*
X116355714Y-114394342D02*
X116355714Y-114156247D01*
X116355714Y-114156247D02*
X116308095Y-114061009D01*
X116308095Y-114061009D02*
X116260476Y-114013390D01*
X116260476Y-114013390D02*
X116165238Y-113965771D01*
X116165238Y-113965771D02*
X115974762Y-113965771D01*
X115974762Y-113965771D02*
X115879524Y-114013390D01*
X115879524Y-114013390D02*
X115831905Y-114061009D01*
X115831905Y-114061009D02*
X115784286Y-114156247D01*
X159157200Y-54038332D02*
X159204819Y-53895475D01*
X159204819Y-53895475D02*
X159204819Y-53657380D01*
X159204819Y-53657380D02*
X159157200Y-53562142D01*
X159157200Y-53562142D02*
X159109580Y-53514523D01*
X159109580Y-53514523D02*
X159014342Y-53466904D01*
X159014342Y-53466904D02*
X158919104Y-53466904D01*
X158919104Y-53466904D02*
X158823866Y-53514523D01*
X158823866Y-53514523D02*
X158776247Y-53562142D01*
X158776247Y-53562142D02*
X158728628Y-53657380D01*
X158728628Y-53657380D02*
X158681009Y-53847856D01*
X158681009Y-53847856D02*
X158633390Y-53943094D01*
X158633390Y-53943094D02*
X158585771Y-53990713D01*
X158585771Y-53990713D02*
X158490533Y-54038332D01*
X158490533Y-54038332D02*
X158395295Y-54038332D01*
X158395295Y-54038332D02*
X158300057Y-53990713D01*
X158300057Y-53990713D02*
X158252438Y-53943094D01*
X158252438Y-53943094D02*
X158204819Y-53847856D01*
X158204819Y-53847856D02*
X158204819Y-53609761D01*
X158204819Y-53609761D02*
X158252438Y-53466904D01*
X158204819Y-53133570D02*
X159204819Y-52895475D01*
X159204819Y-52895475D02*
X158490533Y-52704999D01*
X158490533Y-52704999D02*
X159204819Y-52514523D01*
X159204819Y-52514523D02*
X158204819Y-52276428D01*
X159204819Y-51371666D02*
X159204819Y-51943094D01*
X159204819Y-51657380D02*
X158204819Y-51657380D01*
X158204819Y-51657380D02*
X158347676Y-51752618D01*
X158347676Y-51752618D02*
X158442914Y-51847856D01*
X158442914Y-51847856D02*
X158490533Y-51943094D01*
X115403333Y-91724819D02*
X115070000Y-91248628D01*
X114831905Y-91724819D02*
X114831905Y-90724819D01*
X114831905Y-90724819D02*
X115212857Y-90724819D01*
X115212857Y-90724819D02*
X115308095Y-90772438D01*
X115308095Y-90772438D02*
X115355714Y-90820057D01*
X115355714Y-90820057D02*
X115403333Y-90915295D01*
X115403333Y-90915295D02*
X115403333Y-91058152D01*
X115403333Y-91058152D02*
X115355714Y-91153390D01*
X115355714Y-91153390D02*
X115308095Y-91201009D01*
X115308095Y-91201009D02*
X115212857Y-91248628D01*
X115212857Y-91248628D02*
X114831905Y-91248628D01*
X116308095Y-90724819D02*
X115831905Y-90724819D01*
X115831905Y-90724819D02*
X115784286Y-91201009D01*
X115784286Y-91201009D02*
X115831905Y-91153390D01*
X115831905Y-91153390D02*
X115927143Y-91105771D01*
X115927143Y-91105771D02*
X116165238Y-91105771D01*
X116165238Y-91105771D02*
X116260476Y-91153390D01*
X116260476Y-91153390D02*
X116308095Y-91201009D01*
X116308095Y-91201009D02*
X116355714Y-91296247D01*
X116355714Y-91296247D02*
X116355714Y-91534342D01*
X116355714Y-91534342D02*
X116308095Y-91629580D01*
X116308095Y-91629580D02*
X116260476Y-91677200D01*
X116260476Y-91677200D02*
X116165238Y-91724819D01*
X116165238Y-91724819D02*
X115927143Y-91724819D01*
X115927143Y-91724819D02*
X115831905Y-91677200D01*
X115831905Y-91677200D02*
X115784286Y-91629580D01*
X115403333Y-67594819D02*
X115070000Y-67118628D01*
X114831905Y-67594819D02*
X114831905Y-66594819D01*
X114831905Y-66594819D02*
X115212857Y-66594819D01*
X115212857Y-66594819D02*
X115308095Y-66642438D01*
X115308095Y-66642438D02*
X115355714Y-66690057D01*
X115355714Y-66690057D02*
X115403333Y-66785295D01*
X115403333Y-66785295D02*
X115403333Y-66928152D01*
X115403333Y-66928152D02*
X115355714Y-67023390D01*
X115355714Y-67023390D02*
X115308095Y-67071009D01*
X115308095Y-67071009D02*
X115212857Y-67118628D01*
X115212857Y-67118628D02*
X114831905Y-67118628D01*
X115784286Y-66690057D02*
X115831905Y-66642438D01*
X115831905Y-66642438D02*
X115927143Y-66594819D01*
X115927143Y-66594819D02*
X116165238Y-66594819D01*
X116165238Y-66594819D02*
X116260476Y-66642438D01*
X116260476Y-66642438D02*
X116308095Y-66690057D01*
X116308095Y-66690057D02*
X116355714Y-66785295D01*
X116355714Y-66785295D02*
X116355714Y-66880533D01*
X116355714Y-66880533D02*
X116308095Y-67023390D01*
X116308095Y-67023390D02*
X115736667Y-67594819D01*
X115736667Y-67594819D02*
X116355714Y-67594819D01*
X123549580Y-73826666D02*
X123597200Y-73874285D01*
X123597200Y-73874285D02*
X123644819Y-74017142D01*
X123644819Y-74017142D02*
X123644819Y-74112380D01*
X123644819Y-74112380D02*
X123597200Y-74255237D01*
X123597200Y-74255237D02*
X123501961Y-74350475D01*
X123501961Y-74350475D02*
X123406723Y-74398094D01*
X123406723Y-74398094D02*
X123216247Y-74445713D01*
X123216247Y-74445713D02*
X123073390Y-74445713D01*
X123073390Y-74445713D02*
X122882914Y-74398094D01*
X122882914Y-74398094D02*
X122787676Y-74350475D01*
X122787676Y-74350475D02*
X122692438Y-74255237D01*
X122692438Y-74255237D02*
X122644819Y-74112380D01*
X122644819Y-74112380D02*
X122644819Y-74017142D01*
X122644819Y-74017142D02*
X122692438Y-73874285D01*
X122692438Y-73874285D02*
X122740057Y-73826666D01*
X123644819Y-72874285D02*
X123644819Y-73445713D01*
X123644819Y-73159999D02*
X122644819Y-73159999D01*
X122644819Y-73159999D02*
X122787676Y-73255237D01*
X122787676Y-73255237D02*
X122882914Y-73350475D01*
X122882914Y-73350475D02*
X122930533Y-73445713D01*
X154773333Y-68864819D02*
X154440000Y-68388628D01*
X154201905Y-68864819D02*
X154201905Y-67864819D01*
X154201905Y-67864819D02*
X154582857Y-67864819D01*
X154582857Y-67864819D02*
X154678095Y-67912438D01*
X154678095Y-67912438D02*
X154725714Y-67960057D01*
X154725714Y-67960057D02*
X154773333Y-68055295D01*
X154773333Y-68055295D02*
X154773333Y-68198152D01*
X154773333Y-68198152D02*
X154725714Y-68293390D01*
X154725714Y-68293390D02*
X154678095Y-68341009D01*
X154678095Y-68341009D02*
X154582857Y-68388628D01*
X154582857Y-68388628D02*
X154201905Y-68388628D01*
X155725714Y-68864819D02*
X155154286Y-68864819D01*
X155440000Y-68864819D02*
X155440000Y-67864819D01*
X155440000Y-67864819D02*
X155344762Y-68007676D01*
X155344762Y-68007676D02*
X155249524Y-68102914D01*
X155249524Y-68102914D02*
X155154286Y-68150533D01*
D11*
%TO.C,C2*%
X125630000Y-72450000D02*
X128370000Y-72450000D01*
X125630000Y-72450000D02*
X125630000Y-67210000D01*
X128370000Y-72450000D02*
X128370000Y-67210000D01*
X125630000Y-67210000D02*
X128370000Y-67210000D01*
D10*
%TO.C,U1*%
X125730000Y-124916087D02*
X143510000Y-124916087D01*
X125730000Y-94436087D02*
X125730000Y-124916087D01*
X130810000Y-94436087D02*
X125730000Y-94436087D01*
X130810000Y-91896087D02*
X130810000Y-94436087D01*
X138430000Y-94436087D02*
X138430000Y-91896087D01*
X138430000Y-91896087D02*
X130810000Y-91896087D01*
X143510000Y-124916087D02*
X143510000Y-94436087D01*
X143510000Y-94436087D02*
X138430000Y-94436087D01*
D12*
%TO.C,SW6*%
X110440000Y-101240000D02*
X123240000Y-101240000D01*
X110440000Y-107040000D02*
X110440000Y-101240000D01*
X123240000Y-101240000D02*
X123240000Y-107040000D01*
X123240000Y-107040000D02*
X110440000Y-107040000D01*
D13*
X109540000Y-104240000D02*
G75*
G02*
X109340000Y-104240000I-100000J0D01*
G01*
X109340000Y-104240000D02*
G75*
G02*
X109540000Y-104240000I100000J0D01*
G01*
D12*
%TO.C,SW3*%
X141880000Y-54560000D02*
X147680000Y-54560000D01*
X141880000Y-67360000D02*
X141880000Y-54560000D01*
X147680000Y-54560000D02*
X147680000Y-67360000D01*
X147680000Y-67360000D02*
X141880000Y-67360000D01*
D13*
X144780000Y-53560000D02*
G75*
G02*
X144580000Y-53560000I-100000J0D01*
G01*
X144580000Y-53560000D02*
G75*
G02*
X144780000Y-53560000I100000J0D01*
G01*
D11*
%TO.C,R8*%
X138730000Y-82450000D02*
X145270000Y-82450000D01*
X138730000Y-82780000D02*
X138730000Y-82450000D01*
X138730000Y-84860000D02*
X138730000Y-85190000D01*
X138730000Y-85190000D02*
X145270000Y-85190000D01*
X145270000Y-82450000D02*
X145270000Y-82780000D01*
X145270000Y-85190000D02*
X145270000Y-84860000D01*
D12*
%TO.C,SW2*%
X113940000Y-49480000D02*
X119740000Y-49480000D01*
X113940000Y-62280000D02*
X113940000Y-49480000D01*
X119740000Y-49480000D02*
X119740000Y-62280000D01*
X119740000Y-62280000D02*
X113940000Y-62280000D01*
D13*
X116840000Y-48480000D02*
G75*
G02*
X116640000Y-48480000I-100000J0D01*
G01*
X116640000Y-48480000D02*
G75*
G02*
X116840000Y-48480000I100000J0D01*
G01*
D11*
%TO.C,R3*%
X150400000Y-72290000D02*
X150400000Y-72620000D01*
X150400000Y-75030000D02*
X150400000Y-74700000D01*
X156940000Y-72290000D02*
X150400000Y-72290000D01*
X156940000Y-72620000D02*
X156940000Y-72290000D01*
X156940000Y-74700000D02*
X156940000Y-75030000D01*
X156940000Y-75030000D02*
X150400000Y-75030000D01*
%TO.C,R4*%
X138720000Y-77230000D02*
X138720000Y-77560000D01*
X138720000Y-79970000D02*
X138720000Y-79640000D01*
X145260000Y-77230000D02*
X138720000Y-77230000D01*
X145260000Y-77560000D02*
X145260000Y-77230000D01*
X145260000Y-79640000D02*
X145260000Y-79970000D01*
X145260000Y-79970000D02*
X138720000Y-79970000D01*
D12*
%TO.C,SW5*%
X110440000Y-78380000D02*
X123240000Y-78380000D01*
X110440000Y-84180000D02*
X110440000Y-78380000D01*
X123240000Y-78380000D02*
X123240000Y-84180000D01*
X123240000Y-84180000D02*
X110440000Y-84180000D01*
D13*
X109540000Y-81380000D02*
G75*
G02*
X109340000Y-81380000I-100000J0D01*
G01*
X109340000Y-81380000D02*
G75*
G02*
X109540000Y-81380000I100000J0D01*
G01*
D12*
%TO.C,SW4*%
X130760000Y-70760000D02*
X143560000Y-70760000D01*
X130760000Y-76560000D02*
X130760000Y-70760000D01*
X143560000Y-70760000D02*
X143560000Y-76560000D01*
X143560000Y-76560000D02*
X130760000Y-76560000D01*
D13*
X129860000Y-73760000D02*
G75*
G02*
X129660000Y-73760000I-100000J0D01*
G01*
X129660000Y-73760000D02*
G75*
G02*
X129860000Y-73760000I100000J0D01*
G01*
D14*
%TO.C,J1*%
X122632978Y-55930800D02*
X122632978Y-65989200D01*
X122632978Y-65989200D02*
X125123961Y-65989200D01*
X125123961Y-55930800D02*
X122632978Y-55930800D01*
X127796041Y-65989200D02*
X128982978Y-65989200D01*
X128982978Y-55930800D02*
X127796041Y-55930800D01*
X128982978Y-65989200D02*
X128982978Y-55930800D01*
D15*
X124841000Y-66624200D02*
G75*
G02*
X124079000Y-66624200I-381000J0D01*
G01*
X124079000Y-66624200D02*
G75*
G02*
X124841000Y-66624200I381000J0D01*
G01*
D11*
%TO.C,R6*%
X112300000Y-110390000D02*
X112300000Y-110720000D01*
X112300000Y-113130000D02*
X112300000Y-112800000D01*
X118840000Y-110390000D02*
X112300000Y-110390000D01*
X118840000Y-110720000D02*
X118840000Y-110390000D01*
X118840000Y-112800000D02*
X118840000Y-113130000D01*
X118840000Y-113130000D02*
X112300000Y-113130000D01*
D12*
%TO.C,SW1*%
X152040000Y-49480000D02*
X157840000Y-49480000D01*
X152040000Y-62280000D02*
X152040000Y-49480000D01*
X157840000Y-49480000D02*
X157840000Y-62280000D01*
X157840000Y-62280000D02*
X152040000Y-62280000D01*
D13*
X154940000Y-48480000D02*
G75*
G02*
X154740000Y-48480000I-100000J0D01*
G01*
X154740000Y-48480000D02*
G75*
G02*
X154940000Y-48480000I100000J0D01*
G01*
D16*
%TO.C,G\u002A\u002A\u002A*%
G36*
X160091466Y-88450276D02*
G01*
X160113494Y-88454117D01*
X160132222Y-88460600D01*
X160146218Y-88469601D01*
X160152426Y-88477322D01*
X160154979Y-88486007D01*
X160156974Y-88500738D01*
X160158411Y-88520054D01*
X160159290Y-88542490D01*
X160159609Y-88566583D01*
X160159369Y-88590871D01*
X160158570Y-88613890D01*
X160157210Y-88634177D01*
X160155289Y-88650270D01*
X160152807Y-88660705D01*
X160152486Y-88661474D01*
X160147426Y-88670735D01*
X160141735Y-88674766D01*
X160133712Y-88675592D01*
X160122787Y-88674227D01*
X160109128Y-88670763D01*
X160102457Y-88668496D01*
X160076573Y-88660618D01*
X160054434Y-88658132D01*
X160036049Y-88660514D01*
X160012249Y-88670413D01*
X159988178Y-88687811D01*
X159963864Y-88712681D01*
X159939334Y-88744998D01*
X159925758Y-88765940D01*
X159908550Y-88793851D01*
X159908550Y-89045522D01*
X159908550Y-89297193D01*
X159899752Y-89305991D01*
X159890427Y-89312224D01*
X159877205Y-89317476D01*
X159871327Y-89318998D01*
X159858312Y-89320789D01*
X159840073Y-89321997D01*
X159818673Y-89322621D01*
X159796177Y-89322663D01*
X159774648Y-89322122D01*
X159756149Y-89321001D01*
X159742744Y-89319299D01*
X159741123Y-89318953D01*
X159729061Y-89314598D01*
X159718808Y-89308437D01*
X159717591Y-89307379D01*
X159708994Y-89299303D01*
X159708994Y-88894156D01*
X159709006Y-88829034D01*
X159709043Y-88771037D01*
X159709113Y-88719761D01*
X159709219Y-88674801D01*
X159709367Y-88635754D01*
X159709563Y-88602213D01*
X159709812Y-88573774D01*
X159710118Y-88550034D01*
X159710488Y-88530586D01*
X159710926Y-88515027D01*
X159711439Y-88502951D01*
X159712030Y-88493954D01*
X159712706Y-88487632D01*
X159713471Y-88483579D01*
X159714332Y-88481392D01*
X159714384Y-88481315D01*
X159721270Y-88475476D01*
X159732019Y-88470125D01*
X159736034Y-88468747D01*
X159748637Y-88466381D01*
X159766466Y-88464823D01*
X159787258Y-88464086D01*
X159808750Y-88464180D01*
X159828680Y-88465115D01*
X159844784Y-88466903D01*
X159850993Y-88468199D01*
X159860945Y-88471444D01*
X159868164Y-88475749D01*
X159873082Y-88482273D01*
X159876131Y-88492173D01*
X159877747Y-88506607D01*
X159878360Y-88526733D01*
X159878428Y-88541530D01*
X159878428Y-88594050D01*
X159901504Y-88560976D01*
X159920295Y-88536083D01*
X159940607Y-88512720D01*
X159961182Y-88492141D01*
X159980760Y-88475598D01*
X159998084Y-88464345D01*
X159999044Y-88463856D01*
X160019928Y-88455867D01*
X160043249Y-88451025D01*
X160067573Y-88449203D01*
X160091466Y-88450276D01*
G37*
G36*
X160683955Y-88453758D02*
G01*
X160706531Y-88461858D01*
X160714853Y-88466511D01*
X160721288Y-88471838D01*
X160726053Y-88478799D01*
X160729369Y-88488358D01*
X160731453Y-88501477D01*
X160732524Y-88519117D01*
X160732801Y-88542242D01*
X160732503Y-88571812D01*
X160732439Y-88575816D01*
X160731718Y-88607426D01*
X160730430Y-88632151D01*
X160728161Y-88650637D01*
X160724499Y-88663527D01*
X160719031Y-88671467D01*
X160711345Y-88675099D01*
X160701029Y-88675070D01*
X160687668Y-88672023D01*
X160673693Y-88667570D01*
X160644075Y-88660288D01*
X160617664Y-88659641D01*
X160594101Y-88665630D01*
X160588780Y-88668080D01*
X160572412Y-88678881D01*
X160554150Y-88695295D01*
X160535166Y-88716057D01*
X160516632Y-88739902D01*
X160502103Y-88761656D01*
X160480859Y-88795999D01*
X160480859Y-89047724D01*
X160480875Y-89097902D01*
X160480893Y-89141094D01*
X160480866Y-89177847D01*
X160480749Y-89208704D01*
X160480496Y-89234211D01*
X160480061Y-89254914D01*
X160479398Y-89271356D01*
X160478461Y-89284083D01*
X160477204Y-89293641D01*
X160475582Y-89300574D01*
X160473548Y-89305427D01*
X160471057Y-89308745D01*
X160468063Y-89311073D01*
X160464519Y-89312957D01*
X160460381Y-89314942D01*
X160458268Y-89316037D01*
X160451191Y-89317864D01*
X160438197Y-89319443D01*
X160420895Y-89320728D01*
X160400895Y-89321676D01*
X160379808Y-89322244D01*
X160359243Y-89322385D01*
X160340810Y-89322058D01*
X160326119Y-89321217D01*
X160317073Y-89319898D01*
X160299128Y-89313242D01*
X160287562Y-89304340D01*
X160285155Y-89300777D01*
X160284665Y-89296170D01*
X160284201Y-89284632D01*
X160283766Y-89266764D01*
X160283360Y-89243164D01*
X160282985Y-89214432D01*
X160282641Y-89181169D01*
X160282330Y-89143974D01*
X160282053Y-89103446D01*
X160281811Y-89060185D01*
X160281606Y-89014792D01*
X160281437Y-88967865D01*
X160281307Y-88920004D01*
X160281216Y-88871810D01*
X160281166Y-88823881D01*
X160281157Y-88776818D01*
X160281192Y-88731220D01*
X160281270Y-88687687D01*
X160281393Y-88646818D01*
X160281563Y-88609214D01*
X160281779Y-88575474D01*
X160282044Y-88546197D01*
X160282359Y-88521984D01*
X160282724Y-88503434D01*
X160283140Y-88491146D01*
X160283610Y-88485722D01*
X160283643Y-88485620D01*
X160290626Y-88477660D01*
X160304724Y-88471221D01*
X160325652Y-88466411D01*
X160337951Y-88464723D01*
X160359852Y-88463270D01*
X160382359Y-88463571D01*
X160403659Y-88465434D01*
X160421937Y-88468669D01*
X160435378Y-88473083D01*
X160439402Y-88475431D01*
X160443082Y-88478475D01*
X160445711Y-88482081D01*
X160447523Y-88487530D01*
X160448752Y-88496109D01*
X160449630Y-88509103D01*
X160450393Y-88527794D01*
X160450738Y-88537740D01*
X160452620Y-88593003D01*
X160476174Y-88559610D01*
X160494489Y-88535664D01*
X160514585Y-88512845D01*
X160535126Y-88492467D01*
X160554774Y-88475848D01*
X160572190Y-88464303D01*
X160574018Y-88463346D01*
X160598805Y-88454265D01*
X160626983Y-88449623D01*
X160656163Y-88449445D01*
X160683955Y-88453758D01*
G37*
G36*
X157704567Y-88451589D02*
G01*
X157728642Y-88455121D01*
X157758637Y-88462801D01*
X157787895Y-88473270D01*
X157815049Y-88485819D01*
X157838732Y-88499743D01*
X157857579Y-88514334D01*
X157869731Y-88528127D01*
X157876484Y-88542970D01*
X157881502Y-88563573D01*
X157884609Y-88588328D01*
X157885632Y-88615630D01*
X157884396Y-88643869D01*
X157883391Y-88653726D01*
X157879357Y-88677977D01*
X157873649Y-88695061D01*
X157865962Y-88705214D01*
X157855986Y-88708674D01*
X157843416Y-88705679D01*
X157828018Y-88696520D01*
X157801503Y-88677684D01*
X157779810Y-88662937D01*
X157761787Y-88651782D01*
X157746282Y-88643722D01*
X157732143Y-88638261D01*
X157718219Y-88634900D01*
X157703358Y-88633144D01*
X157686408Y-88632495D01*
X157679476Y-88632437D01*
X157661210Y-88632526D01*
X157648152Y-88633243D01*
X157637981Y-88635026D01*
X157628376Y-88638313D01*
X157617017Y-88643545D01*
X157614684Y-88644689D01*
X157593342Y-88657497D01*
X157575726Y-88673643D01*
X157560232Y-88694776D01*
X157552181Y-88708843D01*
X157539370Y-88738854D01*
X157529488Y-88774366D01*
X157522545Y-88813941D01*
X157518548Y-88856139D01*
X157517506Y-88899523D01*
X157519427Y-88942652D01*
X157524319Y-88984089D01*
X157532191Y-89022393D01*
X157543051Y-89056127D01*
X157550088Y-89071792D01*
X157562876Y-89092101D01*
X157579517Y-89111454D01*
X157597981Y-89127797D01*
X157616239Y-89139072D01*
X157616669Y-89139268D01*
X157626223Y-89143169D01*
X157635595Y-89145740D01*
X157646724Y-89147246D01*
X157661548Y-89147953D01*
X157681437Y-89148126D01*
X157700731Y-89148041D01*
X157714565Y-89147525D01*
X157725012Y-89146188D01*
X157734141Y-89143637D01*
X157744024Y-89139482D01*
X157754859Y-89134252D01*
X157769769Y-89125932D01*
X157787783Y-89114395D01*
X157806317Y-89101356D01*
X157818666Y-89091894D01*
X157836724Y-89077966D01*
X157850345Y-89068980D01*
X157860498Y-89064636D01*
X157868154Y-89064635D01*
X157874283Y-89068679D01*
X157878082Y-89073597D01*
X157880396Y-89077944D01*
X157882114Y-89083654D01*
X157883321Y-89091824D01*
X157884102Y-89103550D01*
X157884544Y-89119930D01*
X157884732Y-89142059D01*
X157884758Y-89159256D01*
X157884678Y-89185726D01*
X157884382Y-89205790D01*
X157883784Y-89220572D01*
X157882800Y-89231194D01*
X157881344Y-89238781D01*
X157879331Y-89244455D01*
X157878114Y-89246882D01*
X157867734Y-89260141D01*
X157851237Y-89274178D01*
X157829883Y-89288262D01*
X157804934Y-89301664D01*
X157777649Y-89313653D01*
X157749290Y-89323498D01*
X157742514Y-89325447D01*
X157717077Y-89330829D01*
X157686910Y-89334652D01*
X157654678Y-89336768D01*
X157623050Y-89337031D01*
X157594691Y-89335293D01*
X157585573Y-89334115D01*
X157539510Y-89323467D01*
X157497058Y-89306299D01*
X157458464Y-89282825D01*
X157423972Y-89253262D01*
X157393827Y-89217823D01*
X157368275Y-89176725D01*
X157347560Y-89130182D01*
X157344890Y-89122759D01*
X157336407Y-89096998D01*
X157329702Y-89072814D01*
X157324589Y-89048800D01*
X157320880Y-89023546D01*
X157318389Y-88995645D01*
X157316929Y-88963689D01*
X157316312Y-88926269D01*
X157316260Y-88907153D01*
X157316478Y-88869596D01*
X157317207Y-88838137D01*
X157318620Y-88811351D01*
X157320886Y-88787815D01*
X157324178Y-88766104D01*
X157328665Y-88744792D01*
X157334520Y-88722457D01*
X157341126Y-88700219D01*
X157360354Y-88648477D01*
X157384329Y-88602416D01*
X157412961Y-88562131D01*
X157446162Y-88527715D01*
X157483842Y-88499263D01*
X157525914Y-88476869D01*
X157564716Y-88462769D01*
X157596656Y-88455575D01*
X157632494Y-88451226D01*
X157669406Y-88449854D01*
X157704567Y-88451589D01*
G37*
G36*
X154427192Y-88450409D02*
G01*
X154454946Y-88453008D01*
X154470007Y-88455503D01*
X154516463Y-88468583D01*
X154558413Y-88487650D01*
X154595766Y-88512591D01*
X154628432Y-88543294D01*
X154656318Y-88579646D01*
X154679334Y-88621532D01*
X154697388Y-88668841D01*
X154710390Y-88721459D01*
X154716414Y-88761200D01*
X154718012Y-88779981D01*
X154719134Y-88803361D01*
X154719680Y-88828417D01*
X154719553Y-88852225D01*
X154719531Y-88853177D01*
X154718551Y-88878884D01*
X154716732Y-88898380D01*
X154713643Y-88912973D01*
X154708850Y-88923972D01*
X154701921Y-88932685D01*
X154692423Y-88940420D01*
X154690171Y-88941968D01*
X154677581Y-88950453D01*
X154454543Y-88950453D01*
X154231504Y-88950453D01*
X154233326Y-88975868D01*
X154239073Y-89020321D01*
X154249538Y-89058921D01*
X154264750Y-89091704D01*
X154284734Y-89118706D01*
X154309518Y-89139965D01*
X154339128Y-89155516D01*
X154372931Y-89165269D01*
X154392151Y-89167583D01*
X154417981Y-89168420D01*
X154448235Y-89167811D01*
X154480425Y-89165672D01*
X154510239Y-89161670D01*
X154539815Y-89155335D01*
X154571291Y-89146195D01*
X154606804Y-89133779D01*
X154612537Y-89131633D01*
X154633436Y-89123986D01*
X154648667Y-89119152D01*
X154659486Y-89116986D01*
X154667150Y-89117338D01*
X154672913Y-89120061D01*
X154677170Y-89124035D01*
X154679989Y-89127962D01*
X154682025Y-89133383D01*
X154683440Y-89141566D01*
X154684395Y-89153778D01*
X154685053Y-89171288D01*
X154685455Y-89188985D01*
X154685812Y-89211203D01*
X154685778Y-89227379D01*
X154685202Y-89238999D01*
X154683933Y-89247549D01*
X154681820Y-89254513D01*
X154678711Y-89261378D01*
X154677924Y-89262932D01*
X154670533Y-89273843D01*
X154659713Y-89283426D01*
X154644448Y-89292275D01*
X154623717Y-89300985D01*
X154597750Y-89309762D01*
X154565623Y-89319124D01*
X154535878Y-89326098D01*
X154506298Y-89331018D01*
X154474666Y-89334221D01*
X154438765Y-89336040D01*
X154420779Y-89336494D01*
X154398031Y-89336857D01*
X154377661Y-89337043D01*
X154360951Y-89337052D01*
X154349181Y-89336882D01*
X154343633Y-89336534D01*
X154343593Y-89336525D01*
X154337275Y-89335288D01*
X154325854Y-89333273D01*
X154311664Y-89330890D01*
X154309918Y-89330605D01*
X154261196Y-89319199D01*
X154216629Y-89301662D01*
X154176462Y-89278167D01*
X154140939Y-89248888D01*
X154110305Y-89213998D01*
X154084803Y-89173671D01*
X154082363Y-89168991D01*
X154068057Y-89138651D01*
X154056595Y-89108611D01*
X154047688Y-89077513D01*
X154041051Y-89043996D01*
X154036396Y-89006701D01*
X154033437Y-88964269D01*
X154032236Y-88931374D01*
X154031588Y-88889966D01*
X154032073Y-88854344D01*
X154033838Y-88822826D01*
X154035533Y-88807375D01*
X154233286Y-88807375D01*
X154381227Y-88807375D01*
X154529168Y-88807375D01*
X154526638Y-88773871D01*
X154521383Y-88732743D01*
X154512200Y-88697812D01*
X154498922Y-88668754D01*
X154481382Y-88645241D01*
X154459412Y-88626948D01*
X154447841Y-88620232D01*
X154427221Y-88612750D01*
X154402477Y-88608590D01*
X154376299Y-88607874D01*
X154351378Y-88610720D01*
X154335303Y-88615200D01*
X154309203Y-88628963D01*
X154286317Y-88649017D01*
X154267079Y-88674659D01*
X154251918Y-88705181D01*
X154241267Y-88739879D01*
X154235558Y-88778047D01*
X154235547Y-88778195D01*
X154233286Y-88807375D01*
X154035533Y-88807375D01*
X154037030Y-88793731D01*
X154041798Y-88765380D01*
X154048287Y-88736091D01*
X154049946Y-88729415D01*
X154066741Y-88675509D01*
X154088489Y-88626818D01*
X154115001Y-88583537D01*
X154146088Y-88545867D01*
X154181561Y-88514004D01*
X154221231Y-88488147D01*
X154264910Y-88468493D01*
X154311491Y-88455427D01*
X154335899Y-88451858D01*
X154365059Y-88449833D01*
X154396359Y-88449350D01*
X154427192Y-88450409D01*
G37*
G36*
X153692639Y-88256648D02*
G01*
X153714827Y-88258199D01*
X153731542Y-88261039D01*
X153743788Y-88265374D01*
X153752566Y-88271412D01*
X153756020Y-88275199D01*
X153758440Y-88278649D01*
X153760295Y-88282720D01*
X153761660Y-88288391D01*
X153762611Y-88296642D01*
X153763221Y-88308453D01*
X153763564Y-88324803D01*
X153763717Y-88346671D01*
X153763753Y-88375037D01*
X153763753Y-88376768D01*
X153763753Y-88468508D01*
X153844558Y-88468508D01*
X153871244Y-88468537D01*
X153891431Y-88468690D01*
X153906148Y-88469060D01*
X153916426Y-88469743D01*
X153923295Y-88470836D01*
X153927786Y-88472433D01*
X153930928Y-88474629D01*
X153932993Y-88476698D01*
X153938161Y-88483848D01*
X153941879Y-88493306D01*
X153944346Y-88506270D01*
X153945764Y-88523940D01*
X153946330Y-88547514D01*
X153946365Y-88556990D01*
X153946035Y-88582849D01*
X153944904Y-88602493D01*
X153942759Y-88617216D01*
X153939388Y-88628309D01*
X153934578Y-88637067D01*
X153932814Y-88639442D01*
X153925110Y-88649237D01*
X153844257Y-88649237D01*
X153763405Y-88649237D01*
X153764585Y-88862912D01*
X153764851Y-88908660D01*
X153765115Y-88947513D01*
X153765403Y-88980103D01*
X153765736Y-89007065D01*
X153766138Y-89029034D01*
X153766631Y-89046642D01*
X153767240Y-89060526D01*
X153767986Y-89071318D01*
X153768892Y-89079653D01*
X153769982Y-89086165D01*
X153771279Y-89091488D01*
X153772806Y-89096256D01*
X153773074Y-89097014D01*
X153784281Y-89118923D01*
X153799881Y-89134891D01*
X153819515Y-89144815D01*
X153842827Y-89148596D01*
X153869458Y-89146133D01*
X153899050Y-89137327D01*
X153906385Y-89134331D01*
X153920152Y-89129551D01*
X153929903Y-89129502D01*
X153936642Y-89134911D01*
X153941370Y-89146502D01*
X153944590Y-89161942D01*
X153946621Y-89180331D01*
X153947440Y-89202418D01*
X153947128Y-89225969D01*
X153945766Y-89248748D01*
X153943436Y-89268521D01*
X153940217Y-89283053D01*
X153940198Y-89283110D01*
X153931437Y-89298379D01*
X153915919Y-89311108D01*
X153893542Y-89321344D01*
X153864206Y-89329133D01*
X153830733Y-89334207D01*
X153813284Y-89336115D01*
X153800772Y-89337222D01*
X153790648Y-89337528D01*
X153780362Y-89337030D01*
X153767364Y-89335725D01*
X153753655Y-89334141D01*
X153713577Y-89326392D01*
X153678413Y-89313012D01*
X153648080Y-89293921D01*
X153622496Y-89269044D01*
X153601579Y-89238301D01*
X153585246Y-89201614D01*
X153574653Y-89164587D01*
X153573035Y-89157126D01*
X153571645Y-89149722D01*
X153570461Y-89141745D01*
X153569462Y-89132566D01*
X153568625Y-89121555D01*
X153567931Y-89108082D01*
X153567356Y-89091518D01*
X153566879Y-89071232D01*
X153566478Y-89046596D01*
X153566132Y-89016980D01*
X153565819Y-88981753D01*
X153565518Y-88940287D01*
X153565207Y-88891951D01*
X153565191Y-88889379D01*
X153563700Y-88649459D01*
X153516146Y-88648407D01*
X153468593Y-88647355D01*
X153460859Y-88634177D01*
X153457630Y-88627666D01*
X153455334Y-88619962D01*
X153453764Y-88609570D01*
X153452711Y-88594995D01*
X153451969Y-88574740D01*
X153451815Y-88568914D01*
X153451693Y-88537497D01*
X153453150Y-88512809D01*
X153456280Y-88494196D01*
X153461176Y-88481004D01*
X153465286Y-88475097D01*
X153468871Y-88472271D01*
X153474495Y-88470371D01*
X153483524Y-88469225D01*
X153497322Y-88468661D01*
X153517255Y-88468508D01*
X153517716Y-88468508D01*
X153564197Y-88468508D01*
X153564197Y-88376768D01*
X153564229Y-88348024D01*
X153564373Y-88325831D01*
X153564705Y-88309209D01*
X153565299Y-88297179D01*
X153566229Y-88288761D01*
X153567570Y-88282976D01*
X153569397Y-88278844D01*
X153571784Y-88275385D01*
X153571930Y-88275199D01*
X153579331Y-88268217D01*
X153589690Y-88263042D01*
X153604008Y-88259469D01*
X153623290Y-88257288D01*
X153648538Y-88256294D01*
X153663975Y-88256176D01*
X153692639Y-88256648D01*
G37*
G36*
X158157655Y-88087468D02*
G01*
X158179573Y-88089233D01*
X158196473Y-88092453D01*
X158209576Y-88097352D01*
X158219369Y-88103570D01*
X158229273Y-88111361D01*
X158229273Y-88335753D01*
X158229273Y-88560145D01*
X158256571Y-88533849D01*
X158292513Y-88502863D01*
X158328698Y-88479056D01*
X158365697Y-88462086D01*
X158387653Y-88455267D01*
X158408319Y-88451605D01*
X158433543Y-88449670D01*
X158460552Y-88449460D01*
X158486574Y-88450975D01*
X158508837Y-88454214D01*
X158513545Y-88455307D01*
X158552801Y-88468945D01*
X158587526Y-88488585D01*
X158617701Y-88514199D01*
X158643308Y-88545761D01*
X158664329Y-88583243D01*
X158680746Y-88626619D01*
X158692540Y-88675861D01*
X158699571Y-88729491D01*
X158700394Y-88743202D01*
X158701144Y-88763875D01*
X158701812Y-88790944D01*
X158702390Y-88823841D01*
X158702872Y-88861998D01*
X158703250Y-88904849D01*
X158703515Y-88951826D01*
X158703661Y-89002362D01*
X158703687Y-89036420D01*
X158703672Y-89087468D01*
X158703618Y-89131513D01*
X158703513Y-89169080D01*
X158703347Y-89200696D01*
X158703107Y-89226887D01*
X158702783Y-89248180D01*
X158702363Y-89265102D01*
X158701835Y-89278178D01*
X158701188Y-89287935D01*
X158700411Y-89294900D01*
X158699491Y-89299599D01*
X158698418Y-89302559D01*
X158697864Y-89303489D01*
X158689517Y-89311150D01*
X158676279Y-89316796D01*
X158657564Y-89320534D01*
X158632788Y-89322470D01*
X158601365Y-89322710D01*
X158593125Y-89322536D01*
X158568829Y-89321728D01*
X158550673Y-89320531D01*
X158537268Y-89318653D01*
X158527223Y-89315800D01*
X158519149Y-89311681D01*
X158511656Y-89306004D01*
X158510721Y-89305196D01*
X158509406Y-89303670D01*
X158508277Y-89301193D01*
X158507321Y-89297219D01*
X158506524Y-89291203D01*
X158505871Y-89282598D01*
X158505348Y-89270859D01*
X158504941Y-89255439D01*
X158504635Y-89235793D01*
X158504417Y-89211374D01*
X158504272Y-89181636D01*
X158504185Y-89146033D01*
X158504143Y-89104020D01*
X158504132Y-89055050D01*
X158504132Y-89052372D01*
X158504070Y-89002033D01*
X158503887Y-88955272D01*
X158503592Y-88912612D01*
X158503191Y-88874573D01*
X158502692Y-88841678D01*
X158502102Y-88814448D01*
X158501429Y-88793405D01*
X158500679Y-88779071D01*
X158500217Y-88774072D01*
X158493132Y-88737203D01*
X158481936Y-88706235D01*
X158466762Y-88681320D01*
X158447739Y-88662609D01*
X158424999Y-88650254D01*
X158398672Y-88644406D01*
X158387742Y-88643922D01*
X158370047Y-88644848D01*
X158355372Y-88648281D01*
X158340696Y-88654549D01*
X158320586Y-88666877D01*
X158298577Y-88684720D01*
X158276051Y-88706817D01*
X158254388Y-88731903D01*
X158250222Y-88737245D01*
X158229273Y-88764595D01*
X158229273Y-89031949D01*
X158229273Y-89299303D01*
X158220801Y-89307260D01*
X158211786Y-89313085D01*
X158199506Y-89318010D01*
X158195386Y-89319120D01*
X158182012Y-89321063D01*
X158163378Y-89322274D01*
X158141552Y-89322775D01*
X158118600Y-89322588D01*
X158096588Y-89321736D01*
X158077585Y-89320241D01*
X158063657Y-89318125D01*
X158061878Y-89317688D01*
X158049564Y-89313115D01*
X158039530Y-89307206D01*
X158036429Y-89304304D01*
X158035534Y-89302955D01*
X158034723Y-89300990D01*
X158033992Y-89298058D01*
X158033338Y-89293808D01*
X158032757Y-89287890D01*
X158032246Y-89279954D01*
X158031801Y-89269649D01*
X158031420Y-89256625D01*
X158031098Y-89240531D01*
X158030832Y-89221017D01*
X158030620Y-89197732D01*
X158030457Y-89170325D01*
X158030340Y-89138447D01*
X158030266Y-89101746D01*
X158030231Y-89059873D01*
X158030233Y-89012477D01*
X158030267Y-88959207D01*
X158030330Y-88899713D01*
X158030419Y-88833644D01*
X158030531Y-88760650D01*
X158030624Y-88703040D01*
X158031600Y-88110149D01*
X158040428Y-88103000D01*
X158050956Y-88096500D01*
X158064776Y-88091844D01*
X158082991Y-88088834D01*
X158106702Y-88087272D01*
X158129495Y-88086929D01*
X158157655Y-88087468D01*
G37*
G36*
X159266010Y-88451527D02*
G01*
X159309053Y-88458205D01*
X159347729Y-88469704D01*
X159382999Y-88486369D01*
X159415824Y-88508539D01*
X159438142Y-88527781D01*
X159467341Y-88559205D01*
X159491613Y-88594124D01*
X159511125Y-88633028D01*
X159526047Y-88676409D01*
X159536548Y-88724757D01*
X159542798Y-88778563D01*
X159544963Y-88837497D01*
X159544978Y-88861753D01*
X159544735Y-88879780D01*
X159544112Y-88892878D01*
X159542989Y-88902346D01*
X159541243Y-88909485D01*
X159538753Y-88915594D01*
X159537420Y-88918235D01*
X159529995Y-88929572D01*
X159521307Y-88939144D01*
X159519261Y-88940826D01*
X159516937Y-88942433D01*
X159514211Y-88943804D01*
X159510496Y-88944962D01*
X159505205Y-88945927D01*
X159497751Y-88946722D01*
X159487546Y-88947369D01*
X159474003Y-88947889D01*
X159456536Y-88948303D01*
X159434558Y-88948635D01*
X159407480Y-88948906D01*
X159374716Y-88949136D01*
X159335679Y-88949349D01*
X159289782Y-88949566D01*
X159282720Y-88949598D01*
X159056548Y-88950626D01*
X159059020Y-88980279D01*
X159065108Y-89023864D01*
X159075668Y-89061465D01*
X159090815Y-89093241D01*
X159110664Y-89119349D01*
X159135330Y-89139946D01*
X159164926Y-89155189D01*
X159192188Y-89163626D01*
X159205639Y-89166223D01*
X159220380Y-89167757D01*
X159238229Y-89168319D01*
X159261004Y-89167999D01*
X159272232Y-89167632D01*
X159302122Y-89166000D01*
X159328468Y-89163158D01*
X159353401Y-89158652D01*
X159379054Y-89152029D01*
X159407559Y-89142835D01*
X159434381Y-89133125D01*
X159456604Y-89125029D01*
X159473024Y-89119746D01*
X159484780Y-89117167D01*
X159493009Y-89117182D01*
X159498849Y-89119680D01*
X159503436Y-89124551D01*
X159504646Y-89126317D01*
X159507300Y-89131435D01*
X159509162Y-89138211D01*
X159510361Y-89147958D01*
X159511028Y-89161989D01*
X159511297Y-89181617D01*
X159511322Y-89193149D01*
X159511033Y-89219880D01*
X159509873Y-89240287D01*
X159507402Y-89255565D01*
X159503180Y-89266908D01*
X159496766Y-89275510D01*
X159487721Y-89282567D01*
X159475963Y-89289091D01*
X159450924Y-89299961D01*
X159419934Y-89310538D01*
X159384570Y-89320330D01*
X159354453Y-89327209D01*
X159331115Y-89330993D01*
X159302669Y-89333933D01*
X159271091Y-89335975D01*
X159238359Y-89337063D01*
X159206451Y-89337141D01*
X159177342Y-89336154D01*
X159153010Y-89334047D01*
X159146098Y-89333052D01*
X159096423Y-89322109D01*
X159052199Y-89306364D01*
X159012856Y-89285540D01*
X158977822Y-89259355D01*
X158959300Y-89241654D01*
X158932000Y-89209011D01*
X158909190Y-89172341D01*
X158890584Y-89130989D01*
X158875896Y-89084297D01*
X158864840Y-89031612D01*
X158863162Y-89021106D01*
X158860268Y-88996165D01*
X158858188Y-88965913D01*
X158856940Y-88932383D01*
X158856539Y-88897611D01*
X158857001Y-88863631D01*
X158858344Y-88832475D01*
X158860480Y-88807375D01*
X159056876Y-88807375D01*
X159204089Y-88807375D01*
X159351301Y-88807375D01*
X159351301Y-88777856D01*
X159348599Y-88740306D01*
X159340730Y-88706070D01*
X159328051Y-88675865D01*
X159310916Y-88650405D01*
X159289682Y-88630406D01*
X159272836Y-88620169D01*
X159262578Y-88615463D01*
X159253416Y-88612419D01*
X159243220Y-88610681D01*
X159229861Y-88609894D01*
X159211211Y-88609703D01*
X159210106Y-88609703D01*
X159191310Y-88609857D01*
X159177978Y-88610555D01*
X159168047Y-88612154D01*
X159159455Y-88615010D01*
X159150137Y-88619477D01*
X159148523Y-88620322D01*
X159122893Y-88638033D01*
X159101194Y-88661942D01*
X159083606Y-88691717D01*
X159070311Y-88727028D01*
X159061490Y-88767542D01*
X159059390Y-88783843D01*
X159056876Y-88807375D01*
X158860480Y-88807375D01*
X158860582Y-88806179D01*
X158861388Y-88799845D01*
X158872824Y-88738766D01*
X158889294Y-88683253D01*
X158910824Y-88633248D01*
X158937439Y-88588696D01*
X158969165Y-88549540D01*
X158974781Y-88543706D01*
X159009003Y-88513031D01*
X159045195Y-88488735D01*
X159084120Y-88470519D01*
X159126544Y-88458087D01*
X159173233Y-88451141D01*
X159217637Y-88449330D01*
X159266010Y-88451527D01*
G37*
G36*
X155217650Y-88450298D02*
G01*
X155264230Y-88455339D01*
X155304855Y-88463982D01*
X155340342Y-88476539D01*
X155371510Y-88493323D01*
X155399178Y-88514644D01*
X155407677Y-88522726D01*
X155427003Y-88544170D01*
X155442319Y-88566497D01*
X155454712Y-88591686D01*
X155465269Y-88621716D01*
X155468772Y-88633883D01*
X155478692Y-88669946D01*
X155478745Y-88987697D01*
X155478799Y-89305447D01*
X155468169Y-89313386D01*
X155462533Y-89316884D01*
X155455621Y-89319300D01*
X155445851Y-89320899D01*
X155431642Y-89321944D01*
X155412460Y-89322667D01*
X155383769Y-89323074D01*
X155361661Y-89322296D01*
X155345268Y-89320222D01*
X155333718Y-89316742D01*
X155326142Y-89311745D01*
X155326037Y-89311640D01*
X155322547Y-89307049D01*
X155320369Y-89300625D01*
X155319216Y-89290669D01*
X155318802Y-89275485D01*
X155318778Y-89268612D01*
X155318686Y-89253242D01*
X155318439Y-89241181D01*
X155318080Y-89234066D01*
X155317837Y-89232848D01*
X155314880Y-89235258D01*
X155307704Y-89241728D01*
X155297546Y-89251133D01*
X155290758Y-89257505D01*
X155254671Y-89287196D01*
X155216290Y-89310592D01*
X155181348Y-89325488D01*
X155166935Y-89330050D01*
X155153738Y-89333157D01*
X155139499Y-89335135D01*
X155121955Y-89336313D01*
X155102279Y-89336941D01*
X155069283Y-89336894D01*
X155043202Y-89335026D01*
X155028858Y-89332625D01*
X154986303Y-89319810D01*
X154948854Y-89301548D01*
X154916628Y-89277939D01*
X154889739Y-89249086D01*
X154868305Y-89215091D01*
X154853235Y-89178542D01*
X154847386Y-89154659D01*
X154843300Y-89125871D01*
X154841088Y-89094620D01*
X154840877Y-89065323D01*
X155035011Y-89065323D01*
X155035783Y-89091348D01*
X155041384Y-89116185D01*
X155051853Y-89138062D01*
X155057920Y-89146184D01*
X155073405Y-89161454D01*
X155090089Y-89171587D01*
X155109673Y-89177227D01*
X155133858Y-89179020D01*
X155144104Y-89178844D01*
X155162795Y-89177555D01*
X155177395Y-89174717D01*
X155191301Y-89169565D01*
X155196817Y-89166985D01*
X155214686Y-89156002D01*
X155235679Y-89139044D01*
X155251946Y-89123828D01*
X155284891Y-89091458D01*
X155284891Y-89022838D01*
X155284891Y-88954218D01*
X155226862Y-88954218D01*
X155186056Y-88955216D01*
X155151709Y-88958355D01*
X155122998Y-88963852D01*
X155099101Y-88971923D01*
X155079195Y-88982785D01*
X155062459Y-88996654D01*
X155061266Y-88997866D01*
X155047792Y-89016808D01*
X155039027Y-89039886D01*
X155035011Y-89065323D01*
X154840877Y-89065323D01*
X154840863Y-89063349D01*
X154842737Y-89034499D01*
X154845741Y-89015182D01*
X154857748Y-88975808D01*
X154876118Y-88940305D01*
X154900625Y-88908896D01*
X154931040Y-88881808D01*
X154967138Y-88859266D01*
X155008691Y-88841496D01*
X155025948Y-88836018D01*
X155056721Y-88828219D01*
X155089902Y-88822102D01*
X155126789Y-88817499D01*
X155168685Y-88814245D01*
X155210932Y-88812358D01*
X155285697Y-88809928D01*
X155283937Y-88756880D01*
X155282541Y-88728856D01*
X155280186Y-88706883D01*
X155276487Y-88689506D01*
X155271056Y-88675268D01*
X155263507Y-88662712D01*
X155256612Y-88653976D01*
X155242220Y-88640376D01*
X155225011Y-88630595D01*
X155203707Y-88624164D01*
X155177032Y-88620614D01*
X155163608Y-88619858D01*
X155143480Y-88619622D01*
X155122901Y-88620288D01*
X155105020Y-88621716D01*
X155097717Y-88622735D01*
X155074930Y-88628195D01*
X155047953Y-88637080D01*
X155018827Y-88648587D01*
X154989592Y-88661910D01*
X154962967Y-88675861D01*
X154942853Y-88686814D01*
X154927797Y-88693752D01*
X154916621Y-88696878D01*
X154908145Y-88696394D01*
X154901188Y-88692502D01*
X154896128Y-88687313D01*
X154886978Y-88671122D01*
X154881148Y-88648336D01*
X154878672Y-88619132D01*
X154878894Y-88596330D01*
X154879843Y-88578538D01*
X154881311Y-88566133D01*
X154883785Y-88556971D01*
X154887752Y-88548909D01*
X154890747Y-88544167D01*
X154904595Y-88528675D01*
X154925197Y-88513331D01*
X154951780Y-88498528D01*
X154983573Y-88484661D01*
X155019804Y-88472124D01*
X155046821Y-88464498D01*
X155104037Y-88453460D01*
X155164642Y-88448984D01*
X155217650Y-88450298D01*
G37*
G36*
X160900646Y-88463563D02*
G01*
X160922367Y-88464654D01*
X160940758Y-88466139D01*
X160953306Y-88467655D01*
X160961685Y-88469647D01*
X160967571Y-88472562D01*
X160972639Y-88476846D01*
X160974252Y-88478466D01*
X160976527Y-88481401D01*
X160979190Y-88486148D01*
X160982399Y-88493178D01*
X160986311Y-88502960D01*
X160991086Y-88515962D01*
X160996882Y-88532656D01*
X161003857Y-88553509D01*
X161012170Y-88578993D01*
X161021978Y-88609575D01*
X161033441Y-88645727D01*
X161046716Y-88687916D01*
X161061963Y-88736613D01*
X161069951Y-88762193D01*
X161086186Y-88814216D01*
X161100320Y-88859511D01*
X161112501Y-88898538D01*
X161122875Y-88931757D01*
X161131590Y-88959627D01*
X161138793Y-88982608D01*
X161144630Y-89001158D01*
X161149250Y-89015739D01*
X161152800Y-89026809D01*
X161155425Y-89034827D01*
X161157275Y-89040254D01*
X161158495Y-89043549D01*
X161159233Y-89045172D01*
X161159635Y-89045581D01*
X161159851Y-89045238D01*
X161160025Y-89044600D01*
X161160240Y-89044180D01*
X161161465Y-89040404D01*
X161164551Y-89029940D01*
X161169337Y-89013353D01*
X161175663Y-88991209D01*
X161183369Y-88964074D01*
X161192295Y-88932514D01*
X161202279Y-88897095D01*
X161213162Y-88858381D01*
X161224784Y-88816940D01*
X161236984Y-88773337D01*
X161237468Y-88771606D01*
X161249796Y-88727588D01*
X161261649Y-88685459D01*
X161272854Y-88645816D01*
X161283241Y-88609255D01*
X161292638Y-88576375D01*
X161300874Y-88547770D01*
X161307779Y-88524039D01*
X161313180Y-88505778D01*
X161316908Y-88493583D01*
X161318783Y-88488067D01*
X161323841Y-88479550D01*
X161331048Y-88473221D01*
X161341453Y-88468784D01*
X161356109Y-88465947D01*
X161376068Y-88464412D01*
X161402381Y-88463887D01*
X161405068Y-88463879D01*
X161434264Y-88464318D01*
X161457028Y-88465888D01*
X161474400Y-88468784D01*
X161487420Y-88473205D01*
X161497128Y-88479345D01*
X161499777Y-88481777D01*
X161502614Y-88484737D01*
X161504993Y-88487836D01*
X161506812Y-88491495D01*
X161507967Y-88496134D01*
X161508357Y-88502174D01*
X161507878Y-88510037D01*
X161506427Y-88520142D01*
X161503902Y-88532912D01*
X161500200Y-88548767D01*
X161495218Y-88568127D01*
X161488853Y-88591414D01*
X161481004Y-88619050D01*
X161471566Y-88651453D01*
X161460438Y-88689047D01*
X161447516Y-88732251D01*
X161432698Y-88781486D01*
X161415881Y-88837174D01*
X161401061Y-88886182D01*
X161374879Y-88972738D01*
X161350788Y-89052353D01*
X161328707Y-89125298D01*
X161308552Y-89191840D01*
X161290243Y-89252250D01*
X161273696Y-89306797D01*
X161258830Y-89355749D01*
X161245562Y-89399378D01*
X161233809Y-89437951D01*
X161223490Y-89471738D01*
X161214522Y-89501008D01*
X161206823Y-89526031D01*
X161200311Y-89547076D01*
X161194902Y-89564412D01*
X161190517Y-89578309D01*
X161187070Y-89589035D01*
X161184482Y-89596861D01*
X161182668Y-89602056D01*
X161181548Y-89604888D01*
X161181360Y-89605270D01*
X161171193Y-89616792D01*
X161154478Y-89626318D01*
X161132040Y-89633391D01*
X161129533Y-89633942D01*
X161115288Y-89636055D01*
X161096286Y-89637626D01*
X161074524Y-89638624D01*
X161051998Y-89639017D01*
X161030705Y-89638775D01*
X161012642Y-89637867D01*
X160999806Y-89636261D01*
X160998573Y-89635987D01*
X160981092Y-89629388D01*
X160969398Y-89619790D01*
X160964079Y-89607883D01*
X160964962Y-89596628D01*
X160966718Y-89591351D01*
X160970689Y-89579817D01*
X160976583Y-89562867D01*
X160984103Y-89541343D01*
X160992956Y-89516087D01*
X161002848Y-89487941D01*
X161013485Y-89457748D01*
X161014005Y-89456273D01*
X161024567Y-89426241D01*
X161034293Y-89398417D01*
X161042905Y-89373605D01*
X161050128Y-89352609D01*
X161055685Y-89336235D01*
X161059298Y-89325287D01*
X161060692Y-89320570D01*
X161060699Y-89320489D01*
X161058202Y-89315958D01*
X161051968Y-89308804D01*
X161049519Y-89306375D01*
X161047511Y-89304001D01*
X161045177Y-89300240D01*
X161042376Y-89294695D01*
X161038969Y-89286968D01*
X161034817Y-89276663D01*
X161029780Y-89263383D01*
X161023718Y-89246730D01*
X161016491Y-89226309D01*
X161007961Y-89201722D01*
X160997987Y-89172573D01*
X160986431Y-89138463D01*
X160973151Y-89098998D01*
X160958009Y-89053779D01*
X160940865Y-89002410D01*
X160921579Y-88944493D01*
X160910527Y-88911266D01*
X160893252Y-88859259D01*
X160876631Y-88809124D01*
X160860822Y-88761342D01*
X160845981Y-88716390D01*
X160832266Y-88674747D01*
X160819833Y-88636890D01*
X160808840Y-88603299D01*
X160799442Y-88574452D01*
X160791797Y-88550828D01*
X160786062Y-88532903D01*
X160782394Y-88521158D01*
X160780949Y-88516071D01*
X160780945Y-88516046D01*
X160781014Y-88499142D01*
X160786421Y-88484681D01*
X160796388Y-88474607D01*
X160797899Y-88473761D01*
X160809761Y-88469810D01*
X160827544Y-88466700D01*
X160849669Y-88464545D01*
X160874562Y-88463461D01*
X160900646Y-88463563D01*
G37*
G36*
X156136041Y-88452658D02*
G01*
X156175618Y-88462528D01*
X156211168Y-88478733D01*
X156242608Y-88501222D01*
X156269852Y-88529945D01*
X156292813Y-88564852D01*
X156294293Y-88567592D01*
X156306255Y-88590034D01*
X156329946Y-88563818D01*
X156365256Y-88528521D01*
X156401879Y-88499129D01*
X156439095Y-88476144D01*
X156476183Y-88460072D01*
X156480340Y-88458711D01*
X156498345Y-88453663D01*
X156515044Y-88450717D01*
X156533753Y-88449412D01*
X156548524Y-88449226D01*
X156592663Y-88452329D01*
X156632505Y-88461550D01*
X156668082Y-88476918D01*
X156699428Y-88498465D01*
X156726574Y-88526220D01*
X156749553Y-88560214D01*
X156768399Y-88600478D01*
X156783142Y-88647042D01*
X156789563Y-88675594D01*
X156790748Y-88682385D01*
X156791788Y-88690273D01*
X156792697Y-88699794D01*
X156793488Y-88711487D01*
X156794174Y-88725891D01*
X156794767Y-88743543D01*
X156795282Y-88764983D01*
X156795730Y-88790747D01*
X156796125Y-88821375D01*
X156796481Y-88857404D01*
X156796809Y-88899373D01*
X156797122Y-88947821D01*
X156797421Y-89000624D01*
X156797701Y-89055031D01*
X156797912Y-89102405D01*
X156798048Y-89143245D01*
X156798100Y-89178046D01*
X156798062Y-89207308D01*
X156797926Y-89231527D01*
X156797687Y-89251201D01*
X156797335Y-89266828D01*
X156796866Y-89278905D01*
X156796270Y-89287929D01*
X156795542Y-89294398D01*
X156794674Y-89298809D01*
X156793658Y-89301661D01*
X156793111Y-89302631D01*
X156784452Y-89310699D01*
X156770155Y-89316681D01*
X156749760Y-89320678D01*
X156722808Y-89322793D01*
X156700106Y-89323207D01*
X156669378Y-89322604D01*
X156645360Y-89320709D01*
X156627322Y-89317394D01*
X156614536Y-89312533D01*
X156607117Y-89306947D01*
X156605625Y-89305232D01*
X156604334Y-89303133D01*
X156603225Y-89300120D01*
X156602283Y-89295663D01*
X156601489Y-89289233D01*
X156600826Y-89280298D01*
X156600277Y-89268328D01*
X156599825Y-89252794D01*
X156599451Y-89233164D01*
X156599139Y-89208910D01*
X156598872Y-89179499D01*
X156598631Y-89144404D01*
X156598400Y-89103092D01*
X156598162Y-89055034D01*
X156598040Y-89029479D01*
X156597777Y-88977298D01*
X156597512Y-88932097D01*
X156597229Y-88893325D01*
X156596913Y-88860432D01*
X156596550Y-88832868D01*
X156596126Y-88810081D01*
X156595626Y-88791521D01*
X156595035Y-88776639D01*
X156594339Y-88764883D01*
X156593523Y-88755702D01*
X156592572Y-88748547D01*
X156591473Y-88742866D01*
X156590340Y-88738546D01*
X156578356Y-88706258D01*
X156563418Y-88680832D01*
X156545401Y-88662150D01*
X156524179Y-88650095D01*
X156499629Y-88644548D01*
X156489753Y-88644122D01*
X156467968Y-88646510D01*
X156446645Y-88653953D01*
X156425131Y-88666893D01*
X156402774Y-88685773D01*
X156378921Y-88711034D01*
X156363569Y-88729499D01*
X156339146Y-88760024D01*
X156339146Y-89024427D01*
X156339092Y-89078858D01*
X156338932Y-89127975D01*
X156338671Y-89171493D01*
X156338312Y-89209124D01*
X156337860Y-89240584D01*
X156337318Y-89265584D01*
X156336690Y-89283839D01*
X156335980Y-89295062D01*
X156335404Y-89298670D01*
X156330721Y-89306439D01*
X156322743Y-89312368D01*
X156310571Y-89316706D01*
X156293307Y-89319706D01*
X156270052Y-89321618D01*
X156250372Y-89322424D01*
X156217349Y-89322725D01*
X156191117Y-89321378D01*
X156171104Y-89318296D01*
X156156734Y-89313394D01*
X156147834Y-89307023D01*
X156146333Y-89305299D01*
X156145033Y-89303197D01*
X156143918Y-89300184D01*
X156142970Y-89295729D01*
X156142170Y-89289299D01*
X156141502Y-89280362D01*
X156140946Y-89268385D01*
X156140486Y-89252837D01*
X156140103Y-89233185D01*
X156139780Y-89208897D01*
X156139498Y-89179440D01*
X156139241Y-89144284D01*
X156138990Y-89102894D01*
X156138727Y-89054739D01*
X156138604Y-89031385D01*
X156138314Y-88979197D01*
X156138020Y-88933986D01*
X156137709Y-88895197D01*
X156137365Y-88862276D01*
X156136975Y-88834670D01*
X156136522Y-88811825D01*
X156135993Y-88793187D01*
X156135373Y-88778202D01*
X156134647Y-88766315D01*
X156133801Y-88756974D01*
X156132819Y-88749623D01*
X156131687Y-88743710D01*
X156130891Y-88740471D01*
X156119731Y-88708333D01*
X156105123Y-88682783D01*
X156086919Y-88663640D01*
X156064972Y-88650725D01*
X156054890Y-88647198D01*
X156032274Y-88643338D01*
X156010019Y-88645278D01*
X155987652Y-88653278D01*
X155964699Y-88667596D01*
X155940686Y-88688491D01*
X155915140Y-88716222D01*
X155904127Y-88729609D01*
X155879792Y-88760024D01*
X155879792Y-89024427D01*
X155879738Y-89078858D01*
X155879578Y-89127975D01*
X155879317Y-89171493D01*
X155878959Y-89209124D01*
X155878506Y-89240584D01*
X155877964Y-89265584D01*
X155877336Y-89283839D01*
X155876626Y-89295062D01*
X155876051Y-89298670D01*
X155871702Y-89306225D01*
X155864534Y-89311986D01*
X155853629Y-89316187D01*
X155838071Y-89319064D01*
X155816945Y-89320851D01*
X155789335Y-89321783D01*
X155785662Y-89321847D01*
X155764099Y-89321941D01*
X155743973Y-89321570D01*
X155727055Y-89320801D01*
X155715115Y-89319699D01*
X155711899Y-89319126D01*
X155699911Y-89314915D01*
X155689864Y-89309154D01*
X155688366Y-89307897D01*
X155680237Y-89300323D01*
X155680237Y-88892529D01*
X155680240Y-88828285D01*
X155680256Y-88771148D01*
X155680292Y-88720693D01*
X155680354Y-88676498D01*
X155680450Y-88638139D01*
X155680586Y-88605191D01*
X155680771Y-88577232D01*
X155681011Y-88553837D01*
X155681314Y-88534583D01*
X155681686Y-88519046D01*
X155682135Y-88506803D01*
X155682669Y-88497429D01*
X155683293Y-88490501D01*
X155684015Y-88485596D01*
X155684844Y-88482289D01*
X155685784Y-88480157D01*
X155686845Y-88478777D01*
X155687248Y-88478390D01*
X155695839Y-88472554D01*
X155707457Y-88468424D01*
X155723285Y-88465782D01*
X155744509Y-88464410D01*
X155764953Y-88464083D01*
X155794675Y-88465006D01*
X155817490Y-88468000D01*
X155833757Y-88473151D01*
X155843834Y-88480547D01*
X155846015Y-88483774D01*
X155847415Y-88490031D01*
X155848568Y-88502113D01*
X155849357Y-88518313D01*
X155849669Y-88536926D01*
X155849670Y-88538050D01*
X155849670Y-88585496D01*
X155886381Y-88548354D01*
X155919777Y-88516888D01*
X155951576Y-88492029D01*
X155982754Y-88473307D01*
X156014289Y-88460253D01*
X156047157Y-88452396D01*
X156082333Y-88449266D01*
X156092525Y-88449172D01*
X156136041Y-88452658D01*
G37*
G36*
X158327071Y-83089097D02*
G01*
X158405258Y-83102661D01*
X158460535Y-83116254D01*
X158479036Y-83121556D01*
X158495194Y-83126599D01*
X158507458Y-83130872D01*
X158514279Y-83133861D01*
X158514832Y-83134242D01*
X158519785Y-83140613D01*
X158526615Y-83152476D01*
X158534606Y-83168255D01*
X158543044Y-83186371D01*
X158551212Y-83205248D01*
X158558396Y-83223308D01*
X158563880Y-83238974D01*
X158566380Y-83247912D01*
X158571778Y-83284952D01*
X158572156Y-83326066D01*
X158567750Y-83369936D01*
X158558797Y-83415246D01*
X158545534Y-83460678D01*
X158528197Y-83504914D01*
X158515455Y-83531261D01*
X158507808Y-83544936D01*
X158498529Y-83560119D01*
X158488547Y-83575458D01*
X158478790Y-83589605D01*
X158470187Y-83601207D01*
X158463667Y-83608916D01*
X158460334Y-83611407D01*
X158456393Y-83610431D01*
X158446963Y-83607826D01*
X158433783Y-83604075D01*
X158427919Y-83602382D01*
X158379708Y-83591740D01*
X158327398Y-83586285D01*
X158272305Y-83585969D01*
X158215747Y-83590749D01*
X158159041Y-83600578D01*
X158110147Y-83613343D01*
X158059096Y-83631388D01*
X158005950Y-83654761D01*
X157952701Y-83682462D01*
X157901340Y-83713492D01*
X157875345Y-83731102D01*
X157852696Y-83748461D01*
X157828011Y-83769708D01*
X157802731Y-83793406D01*
X157778291Y-83818115D01*
X157756131Y-83842399D01*
X157737688Y-83864818D01*
X157727692Y-83878736D01*
X157701734Y-83921731D01*
X157678708Y-83968052D01*
X157657706Y-84019570D01*
X157653303Y-84031688D01*
X157646834Y-84050058D01*
X157641473Y-84065704D01*
X157637640Y-84077363D01*
X157635757Y-84083767D01*
X157635657Y-84084597D01*
X157639511Y-84084524D01*
X157649390Y-84083682D01*
X157663842Y-84082209D01*
X157681416Y-84080246D01*
X157683301Y-84080026D01*
X157792451Y-84070623D01*
X157899718Y-84068084D01*
X158004874Y-84072366D01*
X158107688Y-84083424D01*
X158207933Y-84101214D01*
X158305378Y-84125691D01*
X158399795Y-84156811D01*
X158490955Y-84194528D01*
X158578629Y-84238800D01*
X158617953Y-84261490D01*
X158698777Y-84314420D01*
X158775708Y-84373628D01*
X158848591Y-84438856D01*
X158917271Y-84509843D01*
X158981593Y-84586332D01*
X159041401Y-84668062D01*
X159096540Y-84754775D01*
X159146855Y-84846212D01*
X159192191Y-84942112D01*
X159232391Y-85042218D01*
X159267302Y-85146271D01*
X159296767Y-85254010D01*
X159320632Y-85365177D01*
X159336111Y-85460118D01*
X159343625Y-85520907D01*
X159349718Y-85585154D01*
X159354319Y-85651151D01*
X159357354Y-85717191D01*
X159358752Y-85781566D01*
X159358440Y-85842569D01*
X159356345Y-85898492D01*
X159355372Y-85913824D01*
X159343241Y-86034928D01*
X159324053Y-86153411D01*
X159297834Y-86269215D01*
X159264608Y-86382283D01*
X159224400Y-86492559D01*
X159177232Y-86599985D01*
X159123131Y-86704505D01*
X159062120Y-86806061D01*
X158994223Y-86904597D01*
X158919465Y-87000056D01*
X158863708Y-87064304D01*
X158818558Y-87111945D01*
X158768313Y-87160848D01*
X158714809Y-87209338D01*
X158659887Y-87255743D01*
X158612691Y-87292881D01*
X158515845Y-87361645D01*
X158415382Y-87423849D01*
X158311537Y-87479406D01*
X158204541Y-87528229D01*
X158094628Y-87570230D01*
X157982031Y-87605322D01*
X157866982Y-87633418D01*
X157749714Y-87654430D01*
X157630461Y-87668272D01*
X157606133Y-87670191D01*
X157580205Y-87671615D01*
X157548581Y-87672622D01*
X157513087Y-87673216D01*
X157475545Y-87673399D01*
X157437779Y-87673174D01*
X157401614Y-87672545D01*
X157368873Y-87671513D01*
X157341380Y-87670082D01*
X157336922Y-87669766D01*
X157219755Y-87657320D01*
X157104217Y-87637653D01*
X156990617Y-87610945D01*
X156879261Y-87577372D01*
X156770456Y-87537113D01*
X156664508Y-87490346D01*
X156561726Y-87437248D01*
X156462415Y-87377996D01*
X156366884Y-87312770D01*
X156275438Y-87241746D01*
X156188385Y-87165102D01*
X156106032Y-87083017D01*
X156028686Y-86995667D01*
X155956653Y-86903230D01*
X155917876Y-86848018D01*
X155853480Y-86746254D01*
X155796232Y-86642177D01*
X155746105Y-86535704D01*
X155703069Y-86426751D01*
X155667097Y-86315236D01*
X155638159Y-86201075D01*
X155616227Y-86084185D01*
X155601273Y-85964483D01*
X155597099Y-85913824D01*
X155595581Y-85884384D01*
X155594653Y-85848996D01*
X155594595Y-85842686D01*
X155926430Y-85842686D01*
X155928190Y-85890412D01*
X155931696Y-85936685D01*
X155934474Y-85961541D01*
X155938251Y-85989121D01*
X155942111Y-86010213D01*
X155946741Y-86025836D01*
X155952831Y-86037007D01*
X155961072Y-86044745D01*
X155972152Y-86050069D01*
X155986760Y-86053995D01*
X155998648Y-86056312D01*
X156022841Y-86060121D01*
X156054031Y-86064075D01*
X156091688Y-86068122D01*
X156135280Y-86072206D01*
X156184278Y-86076273D01*
X156223940Y-86079258D01*
X156252226Y-86081515D01*
X156274556Y-86083751D01*
X156290491Y-86085913D01*
X156299597Y-86087944D01*
X156301597Y-86089072D01*
X156303505Y-86095054D01*
X156305541Y-86105804D01*
X156306750Y-86114721D01*
X156308916Y-86131182D01*
X156312241Y-86153410D01*
X156316445Y-86179782D01*
X156321249Y-86208672D01*
X156326374Y-86238458D01*
X156331539Y-86267513D01*
X156336465Y-86294216D01*
X156340873Y-86316940D01*
X156344483Y-86334062D01*
X156344583Y-86334502D01*
X156349000Y-86352576D01*
X156353626Y-86369299D01*
X156357816Y-86382442D01*
X156360148Y-86388325D01*
X156371048Y-86403117D01*
X156388526Y-86416352D01*
X156411716Y-86427608D01*
X156439752Y-86436461D01*
X156471049Y-86442395D01*
X156488303Y-86443907D01*
X156511280Y-86444743D01*
X156538210Y-86444948D01*
X156567322Y-86444567D01*
X156596842Y-86443644D01*
X156625001Y-86442225D01*
X156650025Y-86440353D01*
X156670145Y-86438075D01*
X156675476Y-86437229D01*
X156699360Y-86432455D01*
X156716876Y-86427456D01*
X156729181Y-86421770D01*
X156737435Y-86414936D01*
X156740086Y-86411438D01*
X156745167Y-86400018D01*
X156750281Y-86381381D01*
X156755381Y-86355837D01*
X156760422Y-86323700D01*
X156765358Y-86285280D01*
X156770144Y-86240891D01*
X156774734Y-86190843D01*
X156777600Y-86155306D01*
X156779397Y-86132986D01*
X156781140Y-86113347D01*
X156782711Y-86097585D01*
X156783490Y-86091069D01*
X157639080Y-86091069D01*
X157639788Y-86140589D01*
X157646725Y-86189389D01*
X157659765Y-86236291D01*
X157678778Y-86280117D01*
X157689986Y-86299710D01*
X157716169Y-86334795D01*
X157748131Y-86365908D01*
X157784924Y-86392463D01*
X157825599Y-86413871D01*
X157869210Y-86429548D01*
X157914808Y-86438905D01*
X157914879Y-86438914D01*
X157943745Y-86440911D01*
X157976446Y-86440320D01*
X158009818Y-86437329D01*
X158040695Y-86432122D01*
X158044315Y-86431303D01*
X158091089Y-86416637D01*
X158134598Y-86395535D01*
X158174213Y-86368509D01*
X158209302Y-86336066D01*
X158239236Y-86298718D01*
X158263382Y-86256973D01*
X158265443Y-86252601D01*
X158281892Y-86208736D01*
X158291836Y-86163071D01*
X158295059Y-86117049D01*
X158291917Y-86075727D01*
X158281014Y-86024263D01*
X158264571Y-85977831D01*
X158242484Y-85936254D01*
X158214650Y-85899354D01*
X158180968Y-85866954D01*
X158162876Y-85853079D01*
X158122616Y-85828746D01*
X158078630Y-85810101D01*
X158032183Y-85797380D01*
X157984540Y-85790820D01*
X157936967Y-85790657D01*
X157890728Y-85797127D01*
X157878662Y-85800034D01*
X157829301Y-85816334D01*
X157785307Y-85837698D01*
X157746811Y-85864011D01*
X157713944Y-85895158D01*
X157686836Y-85931025D01*
X157665617Y-85971498D01*
X157656866Y-85994591D01*
X157644730Y-86042011D01*
X157639080Y-86091069D01*
X156783490Y-86091069D01*
X156783989Y-86086895D01*
X156784855Y-86082474D01*
X156784878Y-86082445D01*
X156789092Y-86081420D01*
X156799392Y-86079870D01*
X156814367Y-86077982D01*
X156832604Y-86075945D01*
X156838728Y-86075309D01*
X156892109Y-86069635D01*
X156940578Y-86064013D01*
X156983788Y-86058499D01*
X157021389Y-86053147D01*
X157053031Y-86048012D01*
X157078365Y-86043147D01*
X157097043Y-86038608D01*
X157108715Y-86034449D01*
X157111639Y-86032675D01*
X157117934Y-86024691D01*
X157123003Y-86011617D01*
X157126948Y-85992909D01*
X157129870Y-85968023D01*
X157131872Y-85936415D01*
X157132451Y-85921354D01*
X157132925Y-85877311D01*
X157131723Y-85830360D01*
X157128994Y-85783199D01*
X157124887Y-85738521D01*
X157120470Y-85704809D01*
X157119587Y-85699489D01*
X158407180Y-85699489D01*
X158407887Y-85749008D01*
X158414825Y-85797809D01*
X158427864Y-85844711D01*
X158446877Y-85888537D01*
X158458085Y-85908130D01*
X158484269Y-85943215D01*
X158516231Y-85974328D01*
X158553023Y-86000882D01*
X158593699Y-86022291D01*
X158637310Y-86037967D01*
X158682908Y-86047325D01*
X158682979Y-86047334D01*
X158711845Y-86049331D01*
X158744546Y-86048740D01*
X158777918Y-86045749D01*
X158808794Y-86040542D01*
X158812415Y-86039723D01*
X158859188Y-86025057D01*
X158902698Y-86003955D01*
X158942312Y-85976928D01*
X158977402Y-85944486D01*
X159007335Y-85907138D01*
X159031482Y-85865393D01*
X159033543Y-85861021D01*
X159049991Y-85817156D01*
X159059935Y-85771491D01*
X159063158Y-85725469D01*
X159060017Y-85684147D01*
X159049114Y-85632683D01*
X159032670Y-85586251D01*
X159010583Y-85544674D01*
X158982750Y-85507774D01*
X158949068Y-85475374D01*
X158930975Y-85461499D01*
X158890715Y-85437166D01*
X158846729Y-85418521D01*
X158800282Y-85405800D01*
X158752640Y-85399240D01*
X158705066Y-85399077D01*
X158658828Y-85405546D01*
X158646762Y-85408454D01*
X158597401Y-85424754D01*
X158553407Y-85446118D01*
X158514911Y-85472430D01*
X158482043Y-85503578D01*
X158454935Y-85539445D01*
X158433717Y-85579918D01*
X158424965Y-85603011D01*
X158412830Y-85650430D01*
X158407180Y-85699489D01*
X157119587Y-85699489D01*
X157116436Y-85680495D01*
X157112680Y-85662572D01*
X157108845Y-85649928D01*
X157104576Y-85641451D01*
X157099517Y-85636029D01*
X157098161Y-85635069D01*
X157087706Y-85630213D01*
X157071663Y-85625791D01*
X157049746Y-85621769D01*
X157021666Y-85618114D01*
X156987135Y-85614792D01*
X156945865Y-85611769D01*
X156897567Y-85609013D01*
X156857371Y-85607136D01*
X156833281Y-85606035D01*
X156811834Y-85604933D01*
X156794134Y-85603898D01*
X156781284Y-85602996D01*
X156774387Y-85602293D01*
X156773530Y-85602072D01*
X156772699Y-85598001D01*
X156771370Y-85587706D01*
X156769686Y-85572465D01*
X156767791Y-85553559D01*
X156766413Y-85538808D01*
X156762647Y-85499945D01*
X156758438Y-85461218D01*
X156753908Y-85423420D01*
X156749179Y-85387345D01*
X156744369Y-85353789D01*
X156739601Y-85323544D01*
X156734995Y-85297405D01*
X156730673Y-85276166D01*
X156726753Y-85260622D01*
X156723359Y-85251566D01*
X156722539Y-85250325D01*
X156711667Y-85241985D01*
X156694332Y-85234712D01*
X156671533Y-85228564D01*
X156644269Y-85223601D01*
X156613540Y-85219884D01*
X156580344Y-85217472D01*
X156545682Y-85216426D01*
X156510552Y-85216805D01*
X156475955Y-85218668D01*
X156442888Y-85222076D01*
X156412352Y-85227090D01*
X156396152Y-85230767D01*
X156368838Y-85239520D01*
X156348161Y-85250337D01*
X156333399Y-85263678D01*
X156325773Y-85275623D01*
X156320260Y-85288359D01*
X156315220Y-85303255D01*
X156310570Y-85320884D01*
X156306228Y-85341817D01*
X156302110Y-85366626D01*
X156298135Y-85395882D01*
X156294219Y-85430158D01*
X156290282Y-85470025D01*
X156286240Y-85516054D01*
X156282011Y-85568818D01*
X156280330Y-85590846D01*
X156279151Y-85604879D01*
X156277698Y-85613122D01*
X156275143Y-85617294D01*
X156270658Y-85619114D01*
X156266355Y-85619844D01*
X156258800Y-85620860D01*
X156245233Y-85622556D01*
X156227122Y-85624753D01*
X156205936Y-85627272D01*
X156186655Y-85629529D01*
X156134223Y-85635996D01*
X156087039Y-85642587D01*
X156045532Y-85649227D01*
X156010130Y-85655840D01*
X155981263Y-85662352D01*
X155959357Y-85668685D01*
X155953972Y-85670629D01*
X155946857Y-85674836D01*
X155941253Y-85681955D01*
X155936872Y-85692933D01*
X155933425Y-85708718D01*
X155930625Y-85730258D01*
X155928485Y-85754494D01*
X155926500Y-85796412D01*
X155926430Y-85842686D01*
X155594595Y-85842686D01*
X155594287Y-85809216D01*
X155594458Y-85766602D01*
X155595141Y-85722711D01*
X155596309Y-85679098D01*
X155597937Y-85637322D01*
X155599999Y-85598940D01*
X155602468Y-85565507D01*
X155602977Y-85559895D01*
X155617308Y-85438357D01*
X155637055Y-85321305D01*
X155662152Y-85208848D01*
X155692534Y-85101096D01*
X155728137Y-84998156D01*
X155768896Y-84900138D01*
X155814745Y-84807151D01*
X155865620Y-84719304D01*
X155921456Y-84636705D01*
X155982187Y-84559463D01*
X156047750Y-84487687D01*
X156118078Y-84421486D01*
X156193107Y-84360970D01*
X156272773Y-84306245D01*
X156357009Y-84257423D01*
X156389976Y-84240553D01*
X156469388Y-84204365D01*
X156550945Y-84173304D01*
X156635440Y-84147160D01*
X156723663Y-84125725D01*
X156816409Y-84108788D01*
X156914468Y-84096142D01*
X156949107Y-84092786D01*
X156970780Y-84091325D01*
X156998469Y-84090182D01*
X157030677Y-84089359D01*
X157065909Y-84088855D01*
X157102667Y-84088673D01*
X157139455Y-84088811D01*
X157174776Y-84089272D01*
X157207135Y-84090055D01*
X157235034Y-84091161D01*
X157256977Y-84092590D01*
X157257845Y-84092666D01*
X157274976Y-84094098D01*
X157289082Y-84095113D01*
X157298641Y-84095612D01*
X157302120Y-84095523D01*
X157303041Y-84091690D01*
X157305043Y-84081562D01*
X157307915Y-84066263D01*
X157311446Y-84046918D01*
X157315428Y-84024651D01*
X157316323Y-84019583D01*
X157330725Y-83944534D01*
X157346467Y-83875895D01*
X157363942Y-83812605D01*
X157383548Y-83753603D01*
X157405678Y-83697826D01*
X157430728Y-83644215D01*
X157459094Y-83591709D01*
X157491170Y-83539245D01*
X157500612Y-83524808D01*
X157544968Y-83462418D01*
X157593953Y-83402399D01*
X157645408Y-83346660D01*
X157694665Y-83298625D01*
X157742964Y-83256858D01*
X157791549Y-83220427D01*
X157841665Y-83188398D01*
X157894555Y-83159839D01*
X157894846Y-83159695D01*
X157963142Y-83129786D01*
X158032761Y-83107147D01*
X158103833Y-83091769D01*
X158176489Y-83083641D01*
X158250858Y-83082754D01*
X158327071Y-83089097D01*
G37*
D11*
%TO.C,R5*%
X112300000Y-87530000D02*
X112300000Y-87860000D01*
X112300000Y-90270000D02*
X112300000Y-89940000D01*
X118840000Y-87530000D02*
X112300000Y-87530000D01*
X118840000Y-87860000D02*
X118840000Y-87530000D01*
X118840000Y-89940000D02*
X118840000Y-90270000D01*
X118840000Y-90270000D02*
X112300000Y-90270000D01*
%TO.C,R7*%
X138730000Y-87530000D02*
X145270000Y-87530000D01*
X138730000Y-87860000D02*
X138730000Y-87530000D01*
X138730000Y-89940000D02*
X138730000Y-90270000D01*
X138730000Y-90270000D02*
X145270000Y-90270000D01*
X145270000Y-87530000D02*
X145270000Y-87860000D01*
X145270000Y-90270000D02*
X145270000Y-89940000D01*
%TO.C,R2*%
X112300000Y-63400000D02*
X112300000Y-63730000D01*
X112300000Y-66140000D02*
X112300000Y-65810000D01*
X118840000Y-63400000D02*
X112300000Y-63400000D01*
X118840000Y-63730000D02*
X118840000Y-63400000D01*
X118840000Y-65810000D02*
X118840000Y-66140000D01*
X118840000Y-66140000D02*
X112300000Y-66140000D01*
%TO.C,C1*%
X120550000Y-67250000D02*
X123290000Y-67250000D01*
X120550000Y-72490000D02*
X120550000Y-67250000D01*
X123290000Y-67250000D02*
X123290000Y-72490000D01*
X123290000Y-72490000D02*
X120550000Y-72490000D01*
%TO.C,R1*%
X151670000Y-64670000D02*
X151670000Y-65000000D01*
X151670000Y-67410000D02*
X151670000Y-67080000D01*
X158210000Y-64670000D02*
X151670000Y-64670000D01*
X158210000Y-65000000D02*
X158210000Y-64670000D01*
X158210000Y-67080000D02*
X158210000Y-67410000D01*
X158210000Y-67410000D02*
X151670000Y-67410000D01*
%TD*%
M02*
